<?xml version="1.0" encoding="UTF-8"?>
<svg id="Calque_1" data-name="Calque 1" xmlns="http://www.w3.org/2000/svg" viewBox="0 0 232.89 205.49">
  <defs>
    <style>
      .cls-1 {
        fill: #864e38;
      }

      .cls-2 {
        fill: #1b3630;
      }

      .cls-3 {
        fill: #743d2e;
      }

      .cls-4 {
        fill: #54241d;
      }

      .cls-5 {
        fill: #c09060;
      }

      .cls-6 {
        fill: #a0724c;
      }

      .cls-7 {
        fill: #58211d;
      }

      .cls-8 {
        fill: #844f38;
      }

      .cls-9 {
        fill: #9d704a;
      }

      .cls-10 {
        fill: #a07348;
      }

      .cls-11 {
        fill: #682e27;
      }

      .cls-12 {
        fill: #845135;
      }

      .cls-13 {
        fill: #4d7d4b;
      }

      .cls-14 {
        fill: #315444;
      }

      .cls-15 {
        fill: #a2714a;
      }

      .cls-16 {
        fill: #5e1e1d;
      }

      .cls-17 {
        fill: #613026;
      }

      .cls-18 {
        fill: #9e734c;
      }

      .cls-19 {
        fill: #54241e;
      }

      .cls-20 {
        fill: #56231c;
      }

      .cls-21 {
        fill: #692d25;
      }

      .cls-22 {
        fill: #57221e;
      }

      .cls-23 {
        fill: #572221;
      }

      .cls-24 {
        fill: #183730;
      }

      .cls-25 {
        fill: #53251e;
      }

      .cls-26 {
        fill: #55241e;
      }

      .cls-27 {
        fill: #9c7548;
      }

      .cls-28 {
        fill: #c1915f;
      }

      .cls-29 {
        fill: #a47245;
      }

      .cls-30 {
        fill: #622f27;
      }

      .cls-31 {
        fill: #a3714d;
      }

      .cls-32 {
        fill: #2f5444;
      }

      .cls-33 {
        fill: #6f3d2f;
      }

      .cls-34 {
        fill: #613027;
      }

      .cls-35 {
        fill: #855139;
      }

      .cls-36 {
        fill: #7e4c43;
      }

      .cls-37 {
        fill: #9b744d;
      }

      .cls-38 {
        fill: #784639;
      }

      .cls-39 {
        fill: #c09064;
      }
    </style>
  </defs>
  <rect class="cls-3" x="41.1" y="191.79" width="13.7" height="13.7"/>
  <rect class="cls-3" x="54.8" y="191.79" width="13.7" height="13.7"/>
  <rect class="cls-3" x="68.5" y="191.79" width="13.7" height="13.7"/>
  <rect class="cls-3" x="82.2" y="191.79" width="13.7" height="13.7"/>
  <rect class="cls-3" x="95.9" y="191.79" width="13.7" height="13.7"/>
  <rect class="cls-3" x="109.59" y="191.79" width="13.7" height="13.7"/>
  <rect class="cls-3" x="123.29" y="191.79" width="13.7" height="13.7"/>
  <rect class="cls-3" x="136.99" y="191.79" width="13.7" height="13.7"/>
  <rect class="cls-3" x="150.69" y="191.79" width="13.7" height="13.7"/>
  <rect class="cls-12" x="164.39" y="191.79" width="13.7" height="13.7"/>
  <rect class="cls-1" x="178.09" y="191.79" width="13.7" height="13.7"/>
  <rect class="cls-3" x="41.1" y="178.09" width="13.7" height="13.7"/>
  <rect class="cls-6" x="54.8" y="178.09" width="13.7" height="13.7"/>
  <rect class="cls-5" x="68.5" y="178.09" width="13.7" height="13.7"/>
  <rect class="cls-3" x="82.2" y="178.09" width="13.7" height="13.7"/>
  <rect class="cls-2" x="95.9" y="178.09" width="13.7" height="13.7"/>
  <rect class="cls-2" x="109.59" y="178.09" width="13.7" height="13.7"/>
  <rect class="cls-2" x="123.29" y="178.09" width="13.7" height="13.7"/>
  <rect class="cls-3" x="136.99" y="178.09" width="13.7" height="13.7"/>
  <rect class="cls-6" x="150.69" y="178.09" width="13.7" height="13.7"/>
  <rect class="cls-5" x="164.39" y="178.09" width="13.7" height="13.7"/>
  <rect class="cls-8" x="178.09" y="178.09" width="13.7" height="13.7"/>
  <rect class="cls-3" x="41.1" y="164.39" width="13.7" height="13.7"/>
  <rect class="cls-15" x="54.8" y="164.39" width="13.7" height="13.7"/>
  <rect class="cls-5" x="68.5" y="164.39" width="13.7" height="13.7"/>
  <rect class="cls-3" x="82.2" y="164.39" width="13.7" height="13.7"/>
  <rect class="cls-24" x="95.9" y="164.39" width="13.7" height="13.7"/>
  <rect class="cls-14" x="109.59" y="164.39" width="13.7" height="13.7"/>
  <rect class="cls-14" x="123.29" y="164.39" width="13.7" height="13.7"/>
  <rect class="cls-3" x="136.99" y="164.39" width="13.7" height="13.7"/>
  <rect class="cls-15" x="150.69" y="164.39" width="13.7" height="13.7"/>
  <rect class="cls-5" x="164.39" y="164.39" width="13.7" height="13.7"/>
  <rect class="cls-35" x="178.09" y="164.39" width="13.7" height="13.7"/>
  <rect class="cls-3" x="41.1" y="150.69" width="13.7" height="13.7"/>
  <rect class="cls-6" x="54.8" y="150.69" width="13.7" height="13.7"/>
  <rect class="cls-39" x="68.5" y="150.69" width="13.7" height="13.7"/>
  <rect class="cls-3" x="82.2" y="150.69" width="13.7" height="13.7"/>
  <rect class="cls-2" x="95.9" y="150.69" width="13.7" height="13.7"/>
  <rect class="cls-14" x="109.59" y="150.69" width="13.7" height="13.7"/>
  <rect class="cls-14" x="123.29" y="150.69" width="13.7" height="13.7"/>
  <rect class="cls-3" x="136.99" y="150.69" width="13.7" height="13.7"/>
  <rect class="cls-6" x="150.69" y="150.69" width="13.7" height="13.7"/>
  <rect class="cls-5" x="164.39" y="150.69" width="13.7" height="13.7"/>
  <rect class="cls-1" x="178.09" y="150.69" width="13.7" height="13.7"/>
  <rect class="cls-3" x="41.1" y="136.99" width="13.7" height="13.7"/>
  <rect class="cls-18" x="54.8" y="136.99" width="13.7" height="13.7"/>
  <rect class="cls-5" x="68.5" y="136.99" width="13.7" height="13.7"/>
  <rect class="cls-3" x="82.2" y="136.99" width="13.7" height="13.7"/>
  <rect class="cls-2" x="95.9" y="136.99" width="13.7" height="13.7"/>
  <rect class="cls-32" x="109.59" y="136.99" width="13.7" height="13.7"/>
  <rect class="cls-14" x="123.29" y="136.99" width="13.7" height="13.7"/>
  <rect class="cls-3" x="136.99" y="136.99" width="13.7" height="13.7"/>
  <rect class="cls-6" x="150.69" y="136.99" width="13.7" height="13.7"/>
  <rect class="cls-5" x="164.39" y="136.99" width="13.7" height="13.7"/>
  <rect class="cls-8" x="178.09" y="136.99" width="13.7" height="13.7"/>
  <rect class="cls-22" y="123.29" width="13.7" height="13.7"/>
  <rect class="cls-22" x="13.7" y="123.29" width="13.7" height="13.7"/>
  <rect class="cls-3" x="41.1" y="123.29" width="13.7" height="13.7"/>
  <rect class="cls-18" x="54.8" y="123.29" width="13.7" height="13.7"/>
  <rect class="cls-5" x="68.5" y="123.29" width="13.7" height="13.7"/>
  <rect class="cls-38" x="82.2" y="123.29" width="13.7" height="13.7"/>
  <rect class="cls-2" x="95.9" y="123.29" width="13.7" height="13.7"/>
  <rect class="cls-14" x="109.59" y="123.29" width="13.7" height="13.7"/>
  <rect class="cls-14" x="123.29" y="123.29" width="13.7" height="13.7"/>
  <rect class="cls-3" x="136.99" y="123.29" width="13.7" height="13.7"/>
  <rect class="cls-31" x="150.69" y="123.29" width="13.7" height="13.7"/>
  <rect class="cls-5" x="164.39" y="123.29" width="13.7" height="13.7"/>
  <rect class="cls-13" x="178.09" y="123.29" width="13.7" height="13.7"/>
  <rect class="cls-30" x="205.49" y="123.29" width="13.7" height="13.7"/>
  <rect class="cls-3" x="219.19" y="123.29" width="13.7" height="13.7"/>
  <rect class="cls-20" y="109.59" width="13.7" height="13.7"/>
  <rect class="cls-19" x="13.7" y="109.59" width="13.7" height="13.7"/>
  <rect class="cls-4" x="27.4" y="109.59" width="13.7" height="13.7"/>
  <rect class="cls-3" x="41.1" y="109.59" width="13.7" height="13.7"/>
  <rect class="cls-37" x="54.8" y="109.59" width="13.7" height="13.7"/>
  <rect class="cls-6" x="68.5" y="109.59" width="13.7" height="13.7"/>
  <rect class="cls-28" x="82.2" y="109.59" width="13.7" height="13.7"/>
  <rect class="cls-3" x="95.9" y="109.59" width="13.7" height="13.7"/>
  <rect class="cls-3" x="109.59" y="109.59" width="13.7" height="13.7"/>
  <rect class="cls-36" x="123.29" y="109.59" width="13.7" height="13.7"/>
  <rect class="cls-10" x="136.99" y="109.59" width="13.7" height="13.7"/>
  <rect class="cls-13" x="150.69" y="109.59" width="13.7" height="13.7"/>
  <rect class="cls-5" x="164.39" y="109.59" width="13.7" height="13.7"/>
  <rect class="cls-13" x="178.09" y="109.59" width="13.7" height="13.7"/>
  <rect class="cls-13" x="191.79" y="109.59" width="13.7" height="13.7"/>
  <rect class="cls-17" x="205.49" y="109.59" width="13.7" height="13.7"/>
  <rect class="cls-3" x="219.19" y="109.59" width="13.7" height="13.7"/>
  <rect class="cls-21" x="13.7" y="95.9" width="13.7" height="13.7"/>
  <rect class="cls-22" x="27.4" y="95.9" width="13.7" height="13.7"/>
  <rect class="cls-22" x="41.1" y="95.9" width="13.7" height="13.7"/>
  <rect class="cls-33" x="54.8" y="95.9" width="13.7" height="13.7"/>
  <rect class="cls-31" x="68.5" y="95.9" width="13.7" height="13.7"/>
  <rect class="cls-6" x="82.2" y="95.9" width="13.7" height="13.7"/>
  <rect class="cls-28" x="95.9" y="95.9" width="13.7" height="13.7"/>
  <rect class="cls-5" x="109.59" y="95.9" width="13.7" height="13.7"/>
  <rect class="cls-5" x="123.29" y="95.9" width="13.7" height="13.7"/>
  <rect class="cls-6" x="136.99" y="95.9" width="13.7" height="13.7"/>
  <rect class="cls-13" x="150.69" y="95.9" width="13.7" height="13.7"/>
  <rect class="cls-13" x="164.39" y="95.9" width="13.7" height="13.7"/>
  <rect class="cls-13" x="178.09" y="95.9" width="13.7" height="13.7"/>
  <rect class="cls-11" x="191.79" y="95.9" width="13.7" height="13.7"/>
  <rect class="cls-3" x="205.49" y="95.9" width="13.7" height="13.7"/>
  <rect class="cls-21" x="27.4" y="82.2" width="13.7" height="13.7"/>
  <rect class="cls-22" x="41.1" y="82.2" width="13.7" height="13.7"/>
  <rect class="cls-22" x="54.8" y="82.2" width="13.7" height="13.7"/>
  <rect class="cls-3" x="68.5" y="82.2" width="13.7" height="13.7"/>
  <rect class="cls-6" x="82.2" y="82.2" width="13.7" height="13.7"/>
  <rect class="cls-27" x="95.9" y="82.2" width="13.7" height="13.7"/>
  <rect class="cls-13" x="109.59" y="82.2" width="13.7" height="13.7"/>
  <rect class="cls-6" x="123.29" y="82.2" width="13.7" height="13.7"/>
  <rect class="cls-6" x="136.99" y="82.2" width="13.7" height="13.7"/>
  <rect class="cls-6" x="150.69" y="82.2" width="13.7" height="13.7"/>
  <rect class="cls-30" x="164.39" y="82.2" width="13.7" height="13.7"/>
  <rect class="cls-13" x="178.09" y="82.2" width="13.7" height="13.7"/>
  <rect class="cls-13" x="191.79" y="82.2" width="13.7" height="13.7"/>
  <rect class="cls-34" x="41.1" y="68.5" width="13.7" height="13.7"/>
  <rect class="cls-7" x="54.8" y="68.5" width="13.7" height="13.7"/>
  <rect class="cls-19" x="68.5" y="68.5" width="13.7" height="13.7"/>
  <rect class="cls-3" x="82.2" y="68.5" width="13.7" height="13.7"/>
  <rect class="cls-29" x="95.9" y="68.5" width="13.7" height="13.7"/>
  <rect class="cls-13" x="109.59" y="68.5" width="13.7" height="13.7"/>
  <rect class="cls-6" x="123.29" y="68.5" width="13.7" height="13.7"/>
  <rect class="cls-6" x="136.99" y="68.5" width="13.7" height="13.7"/>
  <rect class="cls-16" x="150.69" y="68.5" width="13.7" height="13.7"/>
  <rect class="cls-16" x="164.39" y="68.5" width="13.7" height="13.7"/>
  <rect class="cls-13" x="178.09" y="68.5" width="13.7" height="13.7"/>
  <rect class="cls-34" x="41.1" y="54.8" width="13.7" height="13.7"/>
  <rect class="cls-34" x="54.8" y="54.8" width="13.7" height="13.7"/>
  <rect class="cls-22" x="68.5" y="54.8" width="13.7" height="13.7"/>
  <rect class="cls-22" x="82.2" y="54.8" width="13.7" height="13.7"/>
  <rect class="cls-3" x="95.9" y="54.8" width="13.7" height="13.7"/>
  <rect class="cls-6" x="109.59" y="54.8" width="13.7" height="13.7"/>
  <rect class="cls-13" x="123.29" y="54.8" width="13.7" height="13.7"/>
  <rect class="cls-23" x="136.99" y="54.8" width="13.7" height="13.7"/>
  <rect class="cls-13" x="150.69" y="54.8" width="13.7" height="13.7"/>
  <rect class="cls-13" x="164.39" y="54.8" width="13.7" height="13.7"/>
  <rect class="cls-34" x="41.1" y="41.1" width="13.7" height="13.7"/>
  <rect class="cls-9" x="54.8" y="41.1" width="13.7" height="13.7"/>
  <rect class="cls-34" x="68.5" y="41.1" width="13.7" height="13.7"/>
  <rect class="cls-22" x="82.2" y="41.1" width="13.7" height="13.7"/>
  <rect class="cls-25" x="95.9" y="41.1" width="13.7" height="13.7"/>
  <rect class="cls-3" x="109.59" y="41.1" width="13.7" height="13.7"/>
  <rect class="cls-13" x="123.29" y="41.1" width="13.7" height="13.7"/>
  <rect class="cls-30" x="136.99" y="41.1" width="13.7" height="13.7"/>
  <rect class="cls-13" x="150.69" y="41.1" width="13.7" height="13.7"/>
  <rect class="cls-34" x="41.1" y="27.4" width="13.7" height="13.7"/>
  <rect class="cls-9" x="54.8" y="27.4" width="13.7" height="13.7"/>
  <rect class="cls-34" x="82.2" y="27.4" width="13.7" height="13.7"/>
  <rect class="cls-25" x="95.9" y="27.4" width="13.7" height="13.7"/>
  <rect class="cls-26" x="109.59" y="27.4" width="13.7" height="13.7"/>
  <rect class="cls-13" x="123.29" y="27.4" width="13.7" height="13.7"/>
  <rect class="cls-13" x="136.99" y="27.4" width="13.7" height="13.7"/>
  <rect class="cls-34" x="95.9" y="13.7" width="13.7" height="13.7"/>
  <rect class="cls-13" x="109.59" y="13.7" width="13.7" height="13.7"/>
  <rect class="cls-13" x="123.29" y="13.7" width="13.7" height="13.7"/>
  <rect class="cls-13" x="109.59" width="13.7" height="13.7"/>
</svg>