<?xml version="1.0" encoding="UTF-8"?>
<svg id="Calque_1" data-name="Calque 1" xmlns="http://www.w3.org/2000/svg" viewBox="0 0 113.39 153.07">
  <defs>
    <style>
      .cls-1 {
        fill: #922318;
      }

      .cls-2 {
        fill: #6f3225;
      }

      .cls-3 {
        fill: #f6dc59;
      }

      .cls-4 {
        fill: #9e6040;
      }

      .cls-5 {
        fill: #905335;
      }

      .cls-6 {
        fill: #efba4b;
      }

      .cls-7 {
        fill: #f0ab47;
      }

      .cls-8 {
        fill: #ae7146;
      }

      .cls-9 {
        fill: #e0833b;
      }

      .cls-10 {
        fill: #f0b949;
      }

      .cls-11 {
        fill: #d36c2f;
      }

      .cls-12 {
        fill: #f3c851;
      }

      .cls-13 {
        fill: #ba7e4f;
      }

      .cls-14 {
        fill: #63231e;
      }

      .cls-15 {
        fill: #eba949;
      }
    </style>
  </defs>
  <rect class="cls-1" x="17.01" y="147.4" width="11.34" height="5.67"/>
  <rect class="cls-14" x="28.35" y="147.4" width="56.69" height="5.67"/>
  <rect class="cls-1" x="85.04" y="147.4" width="11.34" height="5.67"/>
  <rect class="cls-5" x="5.67" y="136.07" width="11.34" height="11.33"/>
  <rect class="cls-11" x="17.01" y="136.07" width="11.34" height="11.33"/>
  <rect class="cls-5" x="28.35" y="136.07" width="56.69" height="11.33"/>
  <rect class="cls-11" x="85.04" y="136.07" width="11.34" height="11.33"/>
  <rect class="cls-5" x="96.38" y="136.07" width="11.34" height="11.33"/>
  <rect class="cls-4" x="5.67" y="124.73" width="11.34" height="11.34"/>
  <rect class="cls-9" x="17.01" y="124.73" width="11.34" height="11.34"/>
  <rect class="cls-4" x="28.35" y="124.73" width="56.69" height="11.34"/>
  <rect class="cls-9" x="85.04" y="124.73" width="11.34" height="11.34"/>
  <rect class="cls-4" x="96.38" y="124.73" width="11.34" height="11.34"/>
  <rect class="cls-8" x="5.67" y="113.39" width="11.34" height="11.34"/>
  <rect class="cls-15" x="17.01" y="113.39" width="11.34" height="11.34"/>
  <polygon class="cls-8" points="85.04 113.39 85.04 124.73 28.35 124.73 28.35 113.39 51.03 113.39 51.03 119.06 62.36 119.06 62.36 113.39 85.04 113.39"/>
  <rect class="cls-15" x="51.03" y="113.39" width="11.33" height="5.67"/>
  <rect class="cls-15" x="85.04" y="113.39" width="11.34" height="11.34"/>
  <rect class="cls-8" x="96.38" y="113.39" width="11.34" height="11.34"/>
  <rect class="cls-13" x="5.67" y="102.05" width="11.34" height="11.34"/>
  <rect class="cls-12" x="17.01" y="102.05" width="11.34" height="11.34"/>
  <rect class="cls-13" x="28.35" y="102.05" width="17.01" height="11.34"/>
  <rect class="cls-12" x="45.36" y="102.05" width="5.67" height="11.34"/>
  <rect class="cls-12" x="62.36" y="102.05" width="5.67" height="11.34"/>
  <rect class="cls-13" x="68.03" y="102.05" width="17.01" height="11.34"/>
  <rect class="cls-12" x="85.04" y="102.05" width="11.34" height="11.34"/>
  <rect class="cls-13" x="96.38" y="102.05" width="11.34" height="11.34"/>
  <rect class="cls-3" x="17.01" y="96.38" width="11.34" height="5.67"/>
  <polygon class="cls-14" points="85.04 96.38 85.04 102.05 62.36 102.05 62.36 113.39 51.03 113.39 51.03 102.05 28.35 102.05 28.35 96.38 85.04 96.38"/>
  <rect class="cls-3" x="85.04" y="96.38" width="11.34" height="5.67"/>
  <polygon class="cls-14" points="113.39 85.04 113.39 153.07 96.38 153.07 96.38 147.4 107.72 147.4 107.72 102.05 96.38 102.05 96.38 96.38 107.72 96.38 107.72 85.04 113.39 85.04"/>
  <rect class="cls-3" x="5.67" y="90.71" width="5.67" height="5.67"/>
  <rect class="cls-9" x="11.34" y="90.71" width="5.67" height="5.67"/>
  <rect class="cls-11" x="22.68" y="90.71" width="5.67" height="5.67"/>
  <rect class="cls-6" x="28.35" y="90.71" width="5.67" height="5.67"/>
  <rect class="cls-6" x="56.69" y="90.71" width="17.01" height="5.67"/>
  <polygon class="cls-9" points="90.71 85.04 90.71 96.38 73.7 96.38 73.7 90.71 85.04 90.71 85.04 85.04 90.71 85.04"/>
  <rect class="cls-11" x="90.71" y="90.71" width="17.01" height="5.67"/>
  <polygon class="cls-14" points="5.67 147.4 17.01 147.4 17.01 153.07 0 153.07 0 85.04 5.67 85.04 5.67 96.38 17.01 96.38 17.01 102.05 5.67 102.05 5.67 147.4"/>
  <rect class="cls-11" x="5.67" y="85.04" width="5.67" height="5.67"/>
  <polygon class="cls-15" points="22.68 85.04 22.68 96.38 17.01 96.38 17.01 90.71 11.34 90.71 11.34 85.04 22.68 85.04"/>
  <rect class="cls-3" x="22.68" y="85.04" width="5.67" height="5.67"/>
  <polygon class="cls-9" points="39.69 85.04 39.69 96.38 34.02 96.38 34.02 90.71 28.35 90.71 28.35 85.04 39.69 85.04"/>
  <polygon class="cls-11" points="56.69 90.71 56.69 96.38 39.69 96.38 39.69 85.04 45.36 85.04 45.36 90.71 56.69 90.71"/>
  <polygon class="cls-6" points="62.36 85.04 62.36 90.71 45.36 90.71 45.36 85.04 51.03 85.04 51.03 79.37 56.69 79.37 56.69 85.04 62.36 85.04"/>
  <rect class="cls-11" x="68.03" y="85.04" width="11.34" height="5.67"/>
  <rect class="cls-15" x="79.37" y="85.04" width="5.67" height="5.67"/>
  <rect class="cls-15" x="90.71" y="85.04" width="5.67" height="5.67"/>
  <rect class="cls-10" x="96.38" y="85.04" width="5.67" height="5.67"/>
  <rect class="cls-3" x="102.05" y="85.04" width="5.67" height="5.67"/>
  <rect class="cls-11" x="11.34" y="79.37" width="5.67" height="5.67"/>
  <rect class="cls-3" x="17.01" y="79.37" width="5.67" height="5.67"/>
  <rect class="cls-11" x="22.68" y="79.37" width="11.34" height="5.67"/>
  <rect class="cls-9" x="56.69" y="79.37" width="5.67" height="5.67"/>
  <rect class="cls-3" x="73.7" y="79.37" width="5.67" height="5.67"/>
  <rect class="cls-15" x="79.37" y="79.37" width="5.67" height="5.67"/>
  <rect class="cls-9" x="90.71" y="79.37" width="5.67" height="5.67"/>
  <rect class="cls-15" x="96.38" y="79.37" width="5.67" height="5.67"/>
  <rect class="cls-11" x="17.01" y="73.7" width="5.67" height="5.67"/>
  <rect class="cls-15" x="22.68" y="73.7" width="5.67" height="5.67"/>
  <rect class="cls-3" x="28.35" y="73.7" width="5.67" height="5.67"/>
  <polygon class="cls-15" points="45.36 79.37 45.36 85.04 34.02 85.04 34.02 73.7 39.69 73.7 39.69 79.37 45.36 79.37"/>
  <polygon class="cls-3" points="51.03 73.7 51.03 85.04 45.36 85.04 45.36 79.37 39.69 79.37 39.69 73.7 51.03 73.7"/>
  <rect class="cls-9" x="51.03" y="73.7" width="5.66" height="5.67"/>
  <rect class="cls-6" x="56.69" y="73.7" width="5.67" height="5.67"/>
  <rect class="cls-3" x="62.36" y="73.7" width="5.67" height="17.01"/>
  <rect class="cls-9" x="68.03" y="73.7" width="5.67" height="11.34"/>
  <rect class="cls-11" x="73.7" y="73.7" width="5.67" height="5.67"/>
  <rect class="cls-3" x="79.37" y="73.7" width="5.67" height="5.67"/>
  <rect class="cls-11" x="22.68" y="68.03" width="11.34" height="5.67"/>
  <rect class="cls-7" x="51.03" y="68.03" width="5.66" height="5.67"/>
  <rect class="cls-3" x="56.69" y="68.03" width="5.67" height="5.67"/>
  <polygon class="cls-11" points="96.38 73.7 96.38 79.37 90.71 79.37 90.71 85.04 85.04 85.04 85.04 73.7 79.37 73.7 79.37 68.03 90.71 68.03 90.71 73.7 96.38 73.7"/>
  <polygon class="cls-14" points="17.01 62.37 17.01 79.37 11.34 79.37 11.34 85.04 5.67 85.04 5.67 73.7 11.34 73.7 11.34 62.37 17.01 62.37"/>
  <polygon class="cls-14" points="107.72 73.7 107.72 85.04 102.05 85.04 102.05 79.37 96.38 79.37 96.38 62.37 102.05 62.37 102.05 73.7 107.72 73.7"/>
  <rect class="cls-14" x="5.67" y="56.7" width="5.67" height="5.67"/>
  <rect class="cls-14" x="102.05" y="56.7" width="5.67" height="5.67"/>
  <polygon class="cls-2" points="107.72 39.69 107.72 56.7 102.05 56.7 102.05 62.37 96.38 62.37 96.38 73.7 90.71 73.7 90.71 68.03 79.37 68.03 79.37 73.7 62.36 73.7 62.36 68.03 51.03 68.03 51.03 73.7 34.02 73.7 34.02 68.03 22.68 68.03 22.68 73.7 17.01 73.7 17.01 62.37 11.34 62.37 11.34 56.7 5.67 56.7 5.67 39.69 107.72 39.69"/>
  <rect class="cls-1" x="22.68" y="34.02" width="11.34" height="5.67"/>
  <rect class="cls-14" x="34.02" y="34.02" width="45.35" height="5.67"/>
  <rect class="cls-1" x="79.37" y="34.02" width="11.34" height="5.67"/>
  <polygon class="cls-14" points="113.39 17.01 113.39 56.7 107.72 56.7 107.72 39.69 90.71 39.69 90.71 34.02 107.72 34.02 107.72 17.01 113.39 17.01"/>
  <rect class="cls-5" x="5.67" y="28.35" width="17.01" height="5.67"/>
  <rect class="cls-11" x="22.68" y="28.35" width="11.34" height="5.67"/>
  <rect class="cls-5" x="34.02" y="28.35" width="45.35" height="5.67"/>
  <rect class="cls-11" x="79.37" y="28.35" width="11.34" height="5.67"/>
  <rect class="cls-5" x="90.71" y="28.35" width="17.01" height="5.67"/>
  <polygon class="cls-14" points="22.68 34.02 22.68 39.69 5.67 39.69 5.67 56.7 0 56.7 0 17.01 5.67 17.01 5.67 34.02 22.68 34.02"/>
  <rect class="cls-4" x="5.67" y="17.01" width="17.01" height="11.34"/>
  <rect class="cls-9" x="22.68" y="17.01" width="11.34" height="11.34"/>
  <rect class="cls-4" x="34.02" y="17.01" width="45.35" height="11.34"/>
  <rect class="cls-9" x="79.37" y="17.01" width="11.34" height="11.34"/>
  <rect class="cls-4" x="90.71" y="17.01" width="17.01" height="11.34"/>
  <rect class="cls-14" x="5.67" y="11.34" width="5.67" height="5.67"/>
  <rect class="cls-8" x="11.34" y="11.34" width="17.01" height="5.67"/>
  <rect class="cls-15" x="28.35" y="11.34" width="11.34" height="5.67"/>
  <rect class="cls-8" x="39.69" y="11.34" width="34.01" height="5.67"/>
  <rect class="cls-15" x="73.7" y="11.34" width="11.34" height="5.67"/>
  <rect class="cls-8" x="85.04" y="11.34" width="17.01" height="5.67"/>
  <rect class="cls-14" x="102.05" y="11.34" width="5.67" height="5.67"/>
  <rect class="cls-14" x="11.34" y="5.67" width="5.67" height="5.67"/>
  <rect class="cls-13" x="17.01" y="5.67" width="11.34" height="5.67"/>
  <rect class="cls-12" x="28.35" y="5.67" width="11.34" height="5.67"/>
  <rect class="cls-13" x="39.69" y="5.67" width="34.01" height="5.67"/>
  <rect class="cls-12" x="73.7" y="5.67" width="11.34" height="5.67"/>
  <rect class="cls-13" x="85.04" y="5.67" width="11.34" height="5.67"/>
  <rect class="cls-14" x="96.38" y="5.67" width="5.67" height="5.67"/>
  <rect class="cls-14" x="17.01" width="11.34" height="5.67"/>
  <rect class="cls-3" x="28.35" width="11.34" height="5.67"/>
  <rect class="cls-14" x="39.69" width="34.01" height="5.67"/>
  <rect class="cls-3" x="73.7" width="11.34" height="5.67"/>
  <rect class="cls-14" x="85.04" width="11.34" height="5.67"/>
</svg>