<?xml version="1.0" encoding="UTF-8"?>
<svg id="Warstwa_1" data-name="Warstwa 1" xmlns="http://www.w3.org/2000/svg" viewBox="0 0 234.49 234.52">
  <defs>
    <style>
      .cls-1 {
        fill: #2d7e44;
      }

      .cls-2 {
        fill: #195441;
      }

      .cls-3 {
        fill: #12372f;
      }

      .cls-4 {
        fill: #307d44;
      }

      .cls-5 {
        fill: #154537;
      }

      .cls-6 {
        fill: #aac759;
      }

      .cls-7 {
        fill: #1b5341;
      }

      .cls-8 {
        fill: #1d543f;
      }

      .cls-9 {
        fill: #c2d266;
      }

      .cls-10 {
        fill: #307e44;
      }

      .cls-11 {
        fill: #70aa49;
      }

      .cls-12 {
        fill: #a9c859;
      }
    </style>
  </defs>
  <rect class="cls-3" x="29.3" y="219.86" width="14.66" height="14.66"/>
  <rect class="cls-5" x="43.96" y="219.86" width="14.66" height="14.66"/>
  <rect class="cls-3" x="14.65" y="205.21" width="14.66" height="14.66"/>
  <rect class="cls-5" x="29.3" y="205.21" width="14.66" height="14.66"/>
  <rect class="cls-5" x="14.66" y="190.54" width="14.63" height="14.66"/>
  <rect class="cls-8" x="43.95" y="161.25" width="43.98" height="14.63"/>
  <polygon class="cls-5" points="146.56 131.93 146.56 161.25 117.25 161.25 117.25 175.88 87.93 175.88 87.93 161.25 102.59 161.25 102.59 146.59 131.9 146.59 131.9 131.93 146.56 131.93"/>
  <rect class="cls-3" x="117.25" y="161.25" width="29.32" height="14.63"/>
  <rect class="cls-5" x="14.66" y="146.59" width="14.63" height="14.66"/>
  <rect class="cls-10" x="43.95" y="146.59" width="43.98" height="14.66"/>
  <rect class="cls-7" x="87.93" y="146.59" width="14.66" height="14.66"/>
  <rect class="cls-7" x="14.66" y="131.93" width="14.63" height="14.66"/>
  <rect class="cls-5" x="29.29" y="131.93" width="14.66" height="14.66"/>
  <rect class="cls-12" x="43.95" y="131.93" width="14.66" height="14.66"/>
  <rect class="cls-11" x="58.61" y="131.93" width="29.32" height="14.66"/>
  <rect class="cls-10" x="87.93" y="131.93" width="29.32" height="14.66"/>
  <rect class="cls-7" x="117.25" y="131.93" width="14.66" height="14.66"/>
  <rect class="cls-4" x="14.66" y="117.27" width="14.63" height="14.66"/>
  <rect class="cls-7" x="29.3" y="117.27" width="14.66" height="14.66"/>
  <rect class="cls-3" x="43.95" y="117.27" width="14.66" height="14.66"/>
  <polygon class="cls-11" points="161.22 58.64 161.22 87.95 146.56 87.95 146.56 102.61 131.9 102.61 131.9 117.27 117.25 117.27 117.25 131.93 87.93 131.93 87.93 117.27 102.59 117.27 102.59 102.61 117.25 102.61 117.25 87.95 131.9 87.95 131.9 73.29 146.56 73.29 146.56 58.64 161.22 58.64"/>
  <rect class="cls-10" x="117.25" y="117.27" width="14.66" height="14.66"/>
  <rect class="cls-7" x="131.9" y="117.27" width="14.66" height="14.66"/>
  <polygon class="cls-3" points="117.25 175.88 117.25 190.54 14.66 190.54 14.66 175.88 0 175.88 0 102.61 14.66 102.61 14.66 161.25 29.29 161.25 29.29 146.59 43.95 146.59 43.95 175.88 117.25 175.88"/>
  <rect class="cls-11" x="14.66" y="102.61" width="14.63" height="14.66"/>
  <rect class="cls-1" x="29.3" y="102.61" width="14.66" height="14.66"/>
  <rect class="cls-7" x="43.96" y="102.61" width="14.66" height="14.66"/>
  <rect class="cls-3" x="58.61" y="102.61" width="14.66" height="14.66"/>
  <rect class="cls-10" x="131.9" y="102.61" width="14.66" height="14.66"/>
  <rect class="cls-3" x="146.56" y="102.61" width="14.66" height="58.64"/>
  <rect class="cls-11" x="29.29" y="87.95" width="14.66" height="14.66"/>
  <rect class="cls-1" x="43.95" y="87.95" width="14.66" height="14.66"/>
  <rect class="cls-7" x="58.62" y="87.95" width="14.66" height="14.66"/>
  <rect class="cls-3" x="73.27" y="87.95" width="14.66" height="14.66"/>
  <rect class="cls-10" x="146.56" y="87.95" width="14.66" height="14.66"/>
  <rect class="cls-6" x="29.29" y="73.29" width="14.66" height="14.66"/>
  <rect class="cls-1" x="58.61" y="73.29" width="14.66" height="14.66"/>
  <rect class="cls-7" x="73.28" y="73.29" width="14.66" height="14.66"/>
  <rect class="cls-3" x="87.93" y="73.29" width="14.66" height="14.66"/>
  <rect class="cls-3" x="161.22" y="73.29" width="14.66" height="29.32"/>
  <rect class="cls-9" x="14.66" y="58.64" width="14.63" height="43.98"/>
  <rect class="cls-6" x="29.29" y="58.64" width="14.66" height="14.66"/>
  <rect class="cls-1" x="73.27" y="58.64" width="14.66" height="14.66"/>
  <rect class="cls-7" x="87.93" y="58.64" width="14.66" height="14.66"/>
  <rect class="cls-3" x="102.59" y="58.64" width="14.66" height="14.66"/>
  <rect class="cls-4" x="161.22" y="58.64" width="14.66" height="14.66"/>
  <rect class="cls-9" x="29.3" y="43.98" width="14.66" height="14.66"/>
  <rect class="cls-12" x="43.95" y="43.98" width="14.66" height="14.66"/>
  <rect class="cls-1" x="87.93" y="43.98" width="14.66" height="14.66"/>
  <rect class="cls-2" x="102.59" y="43.98" width="14.66" height="14.66"/>
  <rect class="cls-2" x="117.25" y="43.98" width="14.66" height="14.66"/>
  <rect class="cls-11" x="161.22" y="43.98" width="14.66" height="14.66"/>
  <rect class="cls-3" x="175.88" y="43.98" width="14.66" height="29.32"/>
  <polygon class="cls-11" points="117.25 29.32 117.25 43.98 87.93 43.98 87.93 58.64 73.27 58.64 73.27 73.29 58.61 73.29 58.61 87.95 43.95 87.95 43.95 58.64 58.61 58.64 58.61 43.98 73.27 43.98 73.27 29.32 117.25 29.32"/>
  <rect class="cls-10" x="117.25" y="29.32" width="14.66" height="14.66"/>
  <rect class="cls-10" x="131.9" y="29.32" width="14.66" height="14.66"/>
  <polygon class="cls-12" points="175.88 29.32 175.88 43.98 161.22 43.98 161.22 58.64 146.56 58.64 146.56 73.29 131.9 73.29 131.9 87.95 117.25 87.95 117.25 102.61 102.59 102.61 102.59 117.27 87.93 117.27 87.93 131.93 58.61 131.93 58.61 117.27 73.27 117.27 73.27 102.61 87.93 102.61 87.93 87.95 102.59 87.95 102.59 73.29 117.25 73.29 117.25 58.64 131.9 58.64 131.9 43.98 146.56 43.98 146.56 29.32 175.88 29.32"/>
  <rect class="cls-11" x="175.88" y="29.32" width="14.66" height="14.66"/>
  <rect class="cls-3" x="190.54" y="29.32" width="14.66" height="14.66"/>
  <polygon class="cls-9" points="87.93 14.66 87.93 29.32 73.27 29.32 73.27 43.98 43.95 43.98 43.95 29.32 58.61 29.32 58.61 14.66 87.93 14.66"/>
  <rect class="cls-12" x="87.93" y="14.66" width="14.66" height="14.66"/>
  <rect class="cls-12" x="102.59" y="14.66" width="14.66" height="14.66"/>
  <rect class="cls-11" x="117.25" y="14.66" width="58.64" height="14.66"/>
  <rect class="cls-12" x="175.88" y="14.66" width="29.32" height="14.66"/>
  <rect class="cls-3" x="205.2" y="14.66" width="14.66" height="14.66"/>
  <rect class="cls-9" x="87.93" width="146.56" height="14.66"/>
</svg>