<?xml version="1.0" encoding="UTF-8"?>
<svg id="Calque_1" data-name="Calque 1" xmlns="http://www.w3.org/2000/svg" viewBox="0 0 283.05 459.94">
  <defs>
    <style>
      .cls-1 {
        fill: #459241;
      }

      .cls-2 {
        fill: #479140;
      }

      .cls-3 {
        fill: #266445;
      }

      .cls-4 {
        fill: #77ae4b;
      }

      .cls-5 {
        fill: #5b9a47;
      }

      .cls-6 {
        fill: #589c44;
      }

      .cls-7 {
        fill: #77ad4d;
      }

      .cls-8 {
        fill: #b0ca5d;
      }

      .cls-9 {
        fill: #1f5441;
      }

      .cls-10 {
        fill: #1e5541;
      }
    </style>
  </defs>
  <rect class="cls-2" x="123.85" y="424.56" width="17.66" height="17.69"/>
  <rect class="cls-5" x="141.51" y="424.56" width="17.69" height="17.69"/>
  <polygon class="cls-8" points="194.59 389.17 194.59 442.25 176.89 442.25 176.89 406.87 141.51 406.87 141.51 389.17 194.59 389.17"/>
  <rect class="cls-6" x="123.85" y="406.87" width="17.66" height="17.69"/>
  <polygon class="cls-4" points="176.89 406.87 176.89 442.25 159.2 442.25 159.2 424.56 141.51 424.56 141.51 406.87 176.89 406.87"/>
  <polygon class="cls-9" points="194.59 442.25 194.59 459.94 106.16 459.94 106.16 389.17 123.85 389.17 123.85 442.25 194.59 442.25"/>
  <rect class="cls-7" x="123.85" y="389.17" width="17.66" height="17.69"/>
  <rect class="cls-3" x="123.85" y="336.13" width="35.35" height="17.66"/>
  <polygon class="cls-2" points="159.2 247.66 159.2 318.43 176.89 318.43 176.89 353.79 159.2 353.79 159.2 336.13 123.85 336.13 123.85 265.36 141.51 265.36 141.51 229.97 176.89 229.97 176.89 247.66 159.2 247.66"/>
  <polygon class="cls-6" points="247.66 88.46 247.66 194.59 229.97 194.59 229.97 229.97 212.28 229.97 212.28 265.36 194.59 265.36 194.59 300.74 212.28 300.74 212.28 318.43 194.59 318.43 194.59 353.79 176.89 353.79 176.89 318.43 159.2 318.43 159.2 247.66 176.89 247.66 176.89 212.28 194.59 212.28 194.59 194.59 212.28 194.59 212.28 159.2 229.97 159.2 229.97 106.12 212.28 106.12 212.28 88.46 194.59 88.46 194.59 70.77 176.89 70.77 176.89 53.08 212.28 53.08 212.28 70.77 229.97 70.77 229.97 88.46 247.66 88.46"/>
  <polygon class="cls-4" points="247.66 194.59 247.66 265.36 229.97 265.36 229.97 283.05 212.28 283.05 212.28 300.74 194.59 300.74 194.59 265.36 212.28 265.36 212.28 229.97 229.97 229.97 229.97 194.59 247.66 194.59"/>
  <polygon class="cls-9" points="194.59 353.79 194.59 371.48 106.16 371.48 106.16 265.36 123.85 265.36 123.85 353.79 194.59 353.79"/>
  <rect class="cls-3" x="123.85" y="247.66" width="17.66" height="17.69"/>
  <rect class="cls-3" x="159.2" y="212.28" width="17.69" height="17.69"/>
  <rect class="cls-3" x="159.21" y="194.59" width="17.69" height="17.69"/>
  <rect class="cls-2" x="176.89" y="194.59" width="17.69" height="17.69"/>
  <rect class="cls-8" x="247.66" y="194.59" width="17.69" height="35.39"/>
  <rect class="cls-3" x="176.9" y="176.9" width="17.69" height="17.69"/>
  <rect class="cls-2" x="194.59" y="176.89" width="17.69" height="17.69"/>
  <rect class="cls-9" y="159.2" width="17.69" height="17.69"/>
  <polygon class="cls-9" points="212.28 106.12 212.28 159.2 194.59 159.2 194.59 123.82 176.89 123.82 176.89 106.12 123.85 106.12 123.85 123.82 106.16 123.82 106.16 141.51 88.46 141.51 88.46 176.89 35.38 176.89 35.38 159.2 70.77 159.2 70.77 123.82 88.46 123.82 88.46 106.12 106.16 106.12 106.16 88.46 123.85 88.46 123.85 70.77 176.89 70.77 176.89 88.46 194.59 88.46 194.59 106.12 212.28 106.12"/>
  <rect class="cls-10" x="176.9" y="159.21" width="17.69" height="17.69"/>
  <rect class="cls-3" x="194.59" y="159.2" width="17.69" height="17.69"/>
  <rect class="cls-1" x="212.28" y="106.12" width="17.69" height="53.08"/>
  <polygon class="cls-3" points="70.77 123.82 70.77 159.2 35.38 159.2 35.38 176.89 17.69 176.89 17.69 159.2 0 159.2 0 123.82 17.69 123.82 17.69 141.51 53.08 141.51 53.08 123.82 70.77 123.82"/>
  <rect class="cls-6" x="17.69" y="123.82" width="17.69" height="17.69"/>
  <rect class="cls-2" x="35.38" y="123.82" width="17.69" height="17.69"/>
  <polygon class="cls-4" points="265.36 70.77 265.36 194.59 247.66 194.59 247.66 88.46 229.97 88.46 229.97 70.77 212.28 70.77 212.28 53.08 176.89 53.08 176.89 35.39 88.46 35.39 88.46 53.08 70.77 53.08 70.77 70.77 53.08 70.77 53.08 106.12 35.38 106.12 35.38 123.82 0 123.82 0 106.12 17.69 106.12 17.69 53.08 35.38 53.08 35.38 35.39 70.77 35.39 70.77 17.69 194.59 17.69 194.59 35.39 229.97 35.39 229.97 53.08 247.66 53.08 247.66 70.77 265.36 70.77"/>
  <rect class="cls-6" x="35.38" y="106.12" width="17.69" height="17.69"/>
  <rect class="cls-2" x="53.08" y="106.12" width="17.69" height="17.69"/>
  <rect class="cls-3" x="70.77" y="106.12" width="17.69" height="17.69"/>
  <polygon class="cls-6" points="176.89 35.39 176.89 53.08 106.16 53.08 106.16 70.77 88.46 70.77 88.46 88.46 70.77 88.46 70.77 106.12 53.08 106.12 53.08 70.77 70.77 70.77 70.77 53.08 88.46 53.08 88.46 35.39 176.89 35.39"/>
  <rect class="cls-2" x="70.77" y="88.46" width="17.69" height="17.66"/>
  <rect class="cls-3" x="88.46" y="88.46" width="17.69" height="17.66"/>
  <rect class="cls-2" x="194.59" y="88.46" width="17.69" height="17.66"/>
  <rect class="cls-2" x="88.46" y="70.77" width="17.69" height="17.69"/>
  <rect class="cls-2" x="106.16" y="70.77" width="17.69" height="17.69"/>
  <rect class="cls-2" x="176.89" y="70.77" width="17.69" height="17.69"/>
  <rect class="cls-8" y="53.08" width="17.69" height="53.05"/>
  <rect class="cls-2" x="106.16" y="53.08" width="17.69" height="17.69"/>
  <rect class="cls-2" x="123.85" y="53.08" width="17.66" height="17.69"/>
  <rect class="cls-2" x="141.51" y="53.08" width="17.69" height="17.69"/>
  <rect class="cls-2" x="159.2" y="53.08" width="17.69" height="17.69"/>
  <rect class="cls-8" x="17.69" y="35.39" width="17.69" height="17.69"/>
  <polygon class="cls-8" points="283.05 53.08 283.05 194.59 265.36 194.59 265.36 70.77 247.66 70.77 247.66 53.08 229.97 53.08 229.97 35.39 265.36 35.39 265.36 53.08 283.05 53.08"/>
  <rect class="cls-8" x="35.38" y="17.69" width="35.39" height="17.69"/>
  <rect class="cls-8" x="194.59" y="17.69" width="53.08" height="17.69"/>
  <rect class="cls-8" x="70.77" width="141.51" height="17.69"/>
</svg>