<?xml version="1.0" encoding="UTF-8"?>
<svg id="Calque_1" data-name="Calque 1" xmlns="http://www.w3.org/2000/svg" viewBox="0 0 264.67 430.1">
  <defs>
    <style>
      .cls-1 {
        fill: #bb804c;
      }

      .cls-2 {
        fill: #367bb4;
      }

      .cls-3 {
        fill: #449bc1;
      }

      .cls-4 {
        fill: #823f2e;
      }

      .cls-5 {
        fill: #337e48;
      }

      .cls-6 {
        fill: #efd29f;
      }

      .cls-7 {
        fill: #6bc5d4;
      }

      .cls-8 {
        fill: #a4d8e0;
      }

      .cls-9 {
        fill: #272755;
      }

      .cls-10 {
        fill: #cc905a;
      }

      .cls-11 {
        fill: #bbdfe9;
      }

      .cls-12 {
        fill: #6a8a9d;
      }

      .cls-13 {
        fill: #dba167;
      }

      .cls-14 {
        fill: #d46d2c;
      }

      .cls-15 {
        fill: #be804d;
      }

      .cls-16 {
        fill: #3f9dbf;
      }

      .cls-17 {
        fill: #d89f70;
      }

      .cls-18 {
        fill: #bc7e51;
      }

      .cls-19 {
        fill: #252651;
      }

      .cls-20 {
        fill: #b64828;
      }

      .cls-21 {
        fill: #d6a26c;
      }

      .cls-22 {
        fill: #bd8342;
      }

      .cls-23 {
        fill: #d46d2f;
      }

      .cls-24 {
        fill: #89b84c;
      }

      .cls-25 {
        fill: #337cac;
      }

      .cls-26 {
        fill: #1b3738;
      }

      .cls-27 {
        fill: #25387a;
      }

      .cls-28 {
        fill: #2f7e44;
      }

      .cls-29 {
        fill: #1a3737;
      }

      .cls-30 {
        fill: #6a8a99;
      }

      .cls-31 {
        fill: #638e9c;
      }

      .cls-32 {
        fill: #263879;
      }

      .cls-33 {
        fill: #bbdfe5;
      }

      .cls-34 {
        fill: #8bb74f;
      }

      .cls-35 {
        fill: #b3482c;
      }

      .cls-36 {
        fill: #449cc2;
      }

      .cls-37 {
        fill: #d8a167;
      }

      .cls-38 {
        fill: #8cb653;
      }

      .cls-39 {
        fill: #964e34;
      }

      .cls-40 {
        fill: #eac085;
      }

      .cls-41 {
        fill: #d16e2e;
      }

      .cls-42 {
        fill: #18533f;
      }

      .cls-43 {
        fill: #4d98c1;
      }

      .cls-44 {
        fill: #a4cddd;
      }

      .cls-45 {
        fill: #4b9bc2;
      }

      .cls-46 {
        fill: #61221f;
      }

      .cls-47 {
        fill: #6cc4d3;
      }

      .cls-48 {
        fill: #edbf84;
      }

      .cls-49 {
        fill: #d9a46a;
      }

      .cls-50 {
        fill: #6b89a1;
      }

      .cls-51 {
        fill: #bae0e7;
      }

      .cls-52 {
        fill: #eed1a7;
      }

      .cls-53 {
        fill: #609cc0;
      }

      .cls-54 {
        fill: #72ab46;
      }

      .cls-55 {
        fill: #d6a368;
      }

      .cls-56 {
        fill: #ba8341;
      }

      .cls-57 {
        fill: #b64727;
      }

      .cls-58 {
        fill: #eac182;
      }

      .cls-59 {
        fill: #439cc1;
      }

      .cls-60 {
        fill: #bdd164;
      }

      .cls-61 {
        fill: #3679b1;
      }

      .cls-62 {
        fill: #bb7f4d;
      }

      .cls-63 {
        fill: #efd2a1;
      }

      .cls-64 {
        fill: #a1cde0;
      }

      .cls-65 {
        fill: #a4ccdc;
      }

      .cls-66 {
        fill: #377ab0;
      }

      .cls-67 {
        fill: #e9c08b;
      }

      .cls-68 {
        fill: #8f5136;
      }

      .cls-69 {
        fill: #efd0a3;
      }

      .cls-70 {
        fill: #d16f2c;
      }

      .cls-71 {
        fill: #243979;
      }

      .cls-72 {
        fill: #e9c086;
      }

      .cls-73 {
        fill: #b9804d;
      }

      .cls-74 {
        fill: #8c5040;
      }

      .cls-75 {
        fill: #bed9ec;
      }

      .cls-76 {
        fill: #d36c33;
      }

      .cls-77 {
        fill: #6ec5d1;
      }

      .cls-78 {
        fill: #932218;
      }

      .cls-79 {
        fill: #ae7345;
      }

      .cls-80 {
        fill: #3479b3;
      }

      .cls-81 {
        fill: #a5ccde;
      }

      .cls-82 {
        fill: #b64726;
      }

      .cls-83 {
        fill: #8db155;
      }

      .cls-84 {
        fill: #3577b7;
      }

      .cls-85 {
        fill: #419dc3;
      }

      .cls-86 {
        fill: #3579b0;
      }

      .cls-87 {
        fill: #d76c28;
      }

      .cls-88 {
        fill: #133a3a;
      }

      .cls-89 {
        fill: #154537;
      }

      .cls-90 {
        fill: #c1cf67;
      }

      .cls-91 {
        fill: #d46c30;
      }

      .cls-92 {
        fill: #688b9c;
      }

      .cls-93 {
        fill: #efcf9d;
      }

      .cls-94 {
        fill: #347ab1;
      }

      .cls-95 {
        fill: #badfe7;
      }

      .cls-96 {
        fill: #d7a66b;
      }

      .cls-97 {
        fill: #1b5341;
      }

      .cls-98 {
        fill: #639bbe;
      }

      .cls-99 {
        fill: #124737;
      }

      .cls-100 {
        fill: #e49591;
      }

      .cls-101 {
        fill: #398351;
      }

      .cls-102 {
        fill: #1c3c74;
      }

      .cls-103 {
        fill: #6fc5d5;
      }

      .cls-104 {
        fill: #479cc1;
      }

      .cls-105 {
        fill: #dba069;
      }

      .cls-106 {
        fill: #8e5334;
      }

      .cls-107 {
        fill: #343648;
      }

      .cls-108 {
        fill: #d1a272;
      }

      .cls-109 {
        fill: #72ab49;
      }

      .cls-110 {
        fill: #a3d7df;
      }

      .cls-111 {
        fill: #801718;
      }

      .cls-112 {
        fill: #e9c186;
      }

      .cls-113 {
        fill: #165a3f;
      }

      .cls-114 {
        fill: #823f32;
      }

      .cls-115 {
        fill: #e9c280;
      }

      .cls-116 {
        fill: #698b9e;
      }

      .cls-117 {
        fill: #6dc5d5;
      }

      .cls-118 {
        fill: #62211d;
      }

      .cls-119 {
        fill: #922119;
      }

      .cls-120 {
        fill: #ebbf89;
      }

      .cls-121 {
        fill: #1d5241;
      }

      .cls-122 {
        fill: #7e1817;
      }

      .cls-123 {
        fill: #922416;
      }

      .cls-124 {
        fill: #bc8152;
      }

      .cls-125 {
        fill: #183638;
      }

      .cls-126 {
        fill: #a5ccdd;
      }

      .cls-127 {
        fill: #e1a06a;
      }

      .cls-128 {
        fill: #307e42;
      }
    </style>
  </defs>
  <rect class="cls-74" x="8.27" y="157.14" width="8.26" height="8.27"/>
  <rect class="cls-74" y="140.6" width="8.27" height="16.54"/>
  <polygon class="cls-22" points="256.39 66.16 256.39 74.44 165.41 74.44 165.41 82.71 140.6 82.71 140.6 90.98 124.07 90.98 124.07 99.25 107.52 99.25 107.52 107.52 99.25 107.52 99.25 115.8 90.98 115.8 90.98 124.07 82.71 124.07 82.71 132.34 74.43 132.34 74.43 140.6 66.16 140.6 66.16 148.87 49.62 148.87 49.62 157.14 41.35 157.14 41.35 165.41 16.53 165.41 16.53 157.14 8.27 157.14 8.27 140.6 16.53 140.6 16.53 132.34 33.07 132.34 33.07 124.07 49.62 124.07 49.62 115.8 57.89 115.8 57.89 107.52 66.16 107.52 66.16 99.25 74.43 99.25 74.43 90.98 82.71 90.98 82.71 82.71 99.25 82.71 99.25 74.44 115.8 74.44 115.8 66.16 140.6 66.16 140.6 57.89 181.96 57.89 181.96 49.62 215.05 49.62 215.05 57.89 248.12 57.89 248.12 66.16 256.39 66.16"/>
  <rect class="cls-74" x="8.27" y="132.34" width="8.26" height="8.26"/>
  <polygon class="cls-17" points="157.14 190.23 157.14 198.5 140.6 198.5 140.6 181.96 148.87 181.96 148.87 190.23 157.14 190.23"/>
  <polygon class="cls-40" points="165.41 181.96 165.41 198.5 157.14 198.5 157.14 190.23 148.87 190.23 148.87 181.96 165.41 181.96"/>
  <rect class="cls-121" x="181.96" y="181.96" width="8.27" height="8.27"/>
  <rect class="cls-121" x="190.23" y="181.96" width="8.27" height="8.27"/>
  <rect class="cls-71" x="198.5" y="181.96" width="8.27" height="24.82"/>
  <rect class="cls-117" x="206.78" y="181.96" width="8.27" height="8.27"/>
  <rect class="cls-46" x="41.35" y="173.69" width="49.63" height="8.27"/>
  <rect class="cls-111" x="90.98" y="173.69" width="8.27" height="8.27"/>
  <rect class="cls-119" x="99.25" y="173.69" width="8.27" height="16.54"/>
  <rect class="cls-20" x="107.52" y="173.69" width="8.27" height="16.54"/>
  <polygon class="cls-23" points="132.33 181.96 132.33 198.5 124.07 198.5 124.07 190.23 115.8 190.23 115.8 173.69 124.07 173.69 124.07 181.96 132.33 181.96"/>
  <polygon class="cls-62" points="181.96 173.69 181.96 181.96 140.6 181.96 140.6 198.5 132.33 198.5 132.33 181.96 124.07 181.96 124.07 173.69 181.96 173.69"/>
  <rect class="cls-29" x="181.96" y="173.69" width="8.27" height="8.27"/>
  <rect class="cls-121" x="190.23" y="173.69" width="8.27" height="8.27"/>
  <rect class="cls-66" x="198.5" y="173.69" width="8.27" height="8.27"/>
  <rect class="cls-74" x="16.53" y="165.41" width="16.54" height="8.27"/>
  <rect class="cls-46" x="33.07" y="165.41" width="8.27" height="8.27"/>
  <polygon class="cls-114" points="82.71 165.41 82.71 173.69 41.35 173.69 41.35 157.14 49.62 157.14 49.62 148.87 66.16 148.87 66.16 140.6 74.43 140.6 74.43 165.41 82.71 165.41"/>
  <rect class="cls-111" x="82.71" y="165.41" width="8.27" height="8.27"/>
  <rect class="cls-78" x="90.98" y="165.42" width="8.27" height="8.27"/>
  <rect class="cls-20" x="99.25" y="165.41" width="8.27" height="8.27"/>
  <rect class="cls-23" x="107.52" y="165.41" width="8.27" height="8.27"/>
  <rect class="cls-62" x="115.8" y="165.41" width="8.27" height="8.27"/>
  <polygon class="cls-63" points="190.23 157.14 190.23 165.41 181.96 165.41 181.96 173.69 157.14 173.69 157.14 165.41 165.41 165.41 165.41 157.14 173.69 157.14 173.69 140.6 181.96 140.6 181.96 157.14 190.23 157.14"/>
  <rect class="cls-122" x="181.96" y="165.41" width="8.27" height="8.27"/>
  <rect class="cls-123" x="206.78" y="165.41" width="8.27" height="8.27"/>
  <rect class="cls-82" x="215.04" y="165.42" width="8.27" height="8.27"/>
  <rect class="cls-87" x="223.32" y="165.42" width="8.27" height="8.27"/>
  <rect class="cls-111" x="74.43" y="157.14" width="8.27" height="8.27"/>
  <rect class="cls-78" x="82.71" y="157.14" width="8.27" height="8.27"/>
  <rect class="cls-35" x="90.98" y="157.14" width="8.27" height="8.27"/>
  <rect class="cls-120" x="99.25" y="157.14" width="8.27" height="8.27"/>
  <rect class="cls-55" x="107.52" y="157.14" width="8.27" height="8.27"/>
  <polygon class="cls-58" points="157.14 165.41 157.14 173.69 124.07 173.69 124.07 165.41 115.8 165.41 115.8 157.14 140.6 157.14 140.6 165.41 157.14 165.41"/>
  <polygon class="cls-40" points="181.96 115.8 181.96 140.6 173.69 140.6 173.69 157.14 165.41 157.14 165.41 165.41 157.14 165.41 157.14 132.34 165.41 132.34 165.41 115.8 181.96 115.8"/>
  <polygon class="cls-122" points="206.78 165.41 206.78 173.69 190.23 173.69 190.23 157.14 198.5 157.14 198.5 165.41 206.78 165.41"/>
  <rect class="cls-123" x="198.5" y="157.14" width="8.27" height="8.27"/>
  <rect class="cls-82" x="206.78" y="157.14" width="8.27" height="8.27"/>
  <rect class="cls-78" x="74.43" y="148.87" width="8.27" height="8.27"/>
  <polygon class="cls-63" points="107.52 140.6 107.52 148.87 99.25 148.87 99.25 157.14 90.98 157.14 90.98 140.6 107.52 140.6"/>
  <rect class="cls-79" x="99.25" y="148.87" width="16.54" height="8.27"/>
  <rect class="cls-55" x="115.8" y="148.87" width="8.27" height="8.27"/>
  <rect class="cls-82" x="124.07" y="148.87" width="8.26" height="8.27"/>
  <rect class="cls-91" x="132.33" y="148.87" width="8.27" height="8.27"/>
  <rect class="cls-100" x="140.6" y="148.87" width="16.54" height="16.54"/>
  <rect class="cls-123" x="206.78" y="148.87" width="24.82" height="8.27"/>
  <rect class="cls-82" x="82.71" y="140.6" width="8.27" height="16.54"/>
  <rect class="cls-72" x="107.52" y="140.6" width="8.27" height="8.27"/>
  <polygon class="cls-82" points="124.07 132.34 124.07 148.87 115.8 148.87 115.8 140.6 107.52 140.6 107.52 132.34 99.25 132.34 99.25 115.8 115.8 115.8 115.8 132.34 124.07 132.34"/>
  <polygon class="cls-112" points="157.14 115.8 157.14 124.07 148.87 124.07 148.87 148.87 132.33 148.87 132.33 124.07 140.6 124.07 140.6 115.8 157.14 115.8"/>
  <rect class="cls-100" x="181.96" y="140.6" width="16.54" height="16.54"/>
  <rect class="cls-87" x="223.32" y="140.6" width="8.27" height="8.27"/>
  <rect class="cls-111" x="74.43" y="132.34" width="8.27" height="16.53"/>
  <rect class="cls-78" x="82.71" y="132.34" width="8.27" height="8.26"/>
  <rect class="cls-111" x="90.98" y="132.34" width="8.27" height="8.26"/>
  <rect class="cls-78" x="99.25" y="132.34" width="8.27" height="8.26"/>
  <rect class="cls-63" x="190.23" y="132.34" width="8.27" height="8.26"/>
  <polygon class="cls-82" points="223.32 140.6 223.32 148.87 206.78 148.87 206.78 132.34 215.05 132.34 215.05 140.6 223.32 140.6"/>
  <rect class="cls-87" x="215.05" y="132.34" width="8.27" height="8.26"/>
  <rect class="cls-74" x="16.53" y="124.07" width="16.54" height="8.27"/>
  <rect class="cls-111" x="82.71" y="124.07" width="8.27" height="8.27"/>
  <rect class="cls-78" x="90.98" y="124.07" width="8.27" height="8.27"/>
  <rect class="cls-9" x="148.87" y="124.07" width="8.27" height="24.8"/>
  <rect class="cls-41" x="157.14" y="124.07" width="8.27" height="8.27"/>
  <rect class="cls-63" x="190.23" y="124.07" width="8.27" height="8.27"/>
  <rect class="cls-122" x="198.5" y="124.07" width="8.27" height="33.07"/>
  <rect class="cls-123" x="206.78" y="124.07" width="8.27" height="8.27"/>
  <rect class="cls-74" x="33.07" y="115.8" width="8.27" height="8.27"/>
  <rect class="cls-74" x="41.35" y="115.8" width="8.27" height="8.27"/>
  <rect class="cls-111" x="90.98" y="115.8" width="8.27" height="8.27"/>
  <polygon class="cls-76" points="132.33 124.07 132.33 148.87 124.07 148.87 124.07 132.34 115.8 132.34 115.8 115.8 124.07 115.8 124.07 124.07 132.33 124.07"/>
  <rect class="cls-18" x="124.07" y="115.8" width="8.26" height="8.27"/>
  <rect class="cls-21" x="132.33" y="115.8" width="8.27" height="8.27"/>
  <rect class="cls-82" x="157.14" y="115.8" width="8.27" height="8.27"/>
  <rect class="cls-9" x="181.96" y="115.8" width="8.27" height="24.8"/>
  <rect class="cls-63" x="190.23" y="115.8" width="8.27" height="8.27"/>
  <polygon class="cls-27" points="74.43 82.71 74.43 90.98 66.16 90.98 66.16 99.25 57.89 99.25 57.89 107.52 49.62 107.52 49.62 115.8 41.35 115.8 41.35 99.25 49.62 99.25 49.62 90.98 57.89 90.98 57.89 82.71 74.43 82.71"/>
  <rect class="cls-49" x="49.62" y="107.52" width="8.27" height="8.27"/>
  <rect class="cls-111" x="99.25" y="107.52" width="8.27" height="8.27"/>
  <rect class="cls-78" x="107.52" y="107.52" width="8.27" height="8.27"/>
  <rect class="cls-82" x="115.8" y="107.52" width="16.53" height="8.27"/>
  <rect class="cls-62" x="132.33" y="107.52" width="8.27" height="8.27"/>
  <rect class="cls-105" x="140.6" y="107.52" width="16.54" height="8.27"/>
  <rect class="cls-70" x="173.69" y="107.52" width="8.27" height="8.27"/>
  <rect class="cls-67" x="181.96" y="107.52" width="8.27" height="8.27"/>
  <rect class="cls-63" x="190.23" y="107.52" width="8.27" height="8.27"/>
  <rect class="cls-19" x="33.07" y="99.25" width="8.27" height="16.54"/>
  <rect class="cls-49" x="57.89" y="99.25" width="8.27" height="8.27"/>
  <rect class="cls-111" x="107.52" y="99.25" width="8.27" height="8.27"/>
  <polygon class="cls-78" points="140.6 90.98 140.6 99.25 132.33 99.25 132.33 107.52 115.8 107.52 115.8 99.25 124.07 99.25 124.07 90.98 140.6 90.98"/>
  <rect class="cls-82" x="132.33" y="99.25" width="8.27" height="8.27"/>
  <rect class="cls-73" x="140.6" y="99.25" width="8.27" height="8.27"/>
  <rect class="cls-48" x="181.96" y="99.25" width="8.27" height="8.27"/>
  <rect class="cls-122" x="190.23" y="99.25" width="8.27" height="8.27"/>
  <rect class="cls-123" x="198.5" y="99.25" width="8.27" height="24.82"/>
  <polygon class="cls-14" points="231.59 99.25 231.59 124.07 215.05 124.07 215.05 115.8 223.32 115.8 223.32 99.25 231.59 99.25"/>
  <rect class="cls-106" x="231.59" y="99.25" width="8.27" height="8.27"/>
  <rect class="cls-49" x="66.16" y="90.98" width="8.27" height="8.27"/>
  <rect class="cls-57" x="140.6" y="90.98" width="8.27" height="8.27"/>
  <rect class="cls-78" x="157.14" y="90.98" width="8.27" height="24.82"/>
  <rect class="cls-122" x="190.23" y="90.98" width="8.27" height="8.27"/>
  <rect class="cls-14" x="215.05" y="90.98" width="8.27" height="8.27"/>
  <rect class="cls-15" x="231.59" y="90.98" width="8.27" height="8.27"/>
  <rect class="cls-106" x="239.86" y="90.98" width="8.27" height="8.27"/>
  <rect class="cls-49" x="74.43" y="82.71" width="8.27" height="8.27"/>
  <rect class="cls-78" x="140.6" y="82.71" width="8.27" height="8.27"/>
  <polygon class="cls-122" points="165.41 82.71 165.41 90.98 157.14 90.98 157.14 107.52 148.87 107.52 148.87 82.71 165.41 82.71"/>
  <rect class="cls-78" x="165.41" y="82.71" width="8.27" height="8.27"/>
  <polygon class="cls-82" points="181.96 82.71 181.96 107.52 173.69 107.52 173.69 115.8 165.41 115.8 165.41 90.98 173.69 90.98 173.69 82.71 181.96 82.71"/>
  <rect class="cls-70" x="181.96" y="82.71" width="8.27" height="16.54"/>
  <rect class="cls-122" x="190.23" y="82.71" width="8.27" height="8.27"/>
  <rect class="cls-15" x="239.86" y="82.71" width="8.26" height="8.27"/>
  <rect class="cls-106" x="248.13" y="82.71" width="8.27" height="8.27"/>
  <rect class="cls-118" x="33.07" y="74.44" width="8.27" height="24.82"/>
  <polygon class="cls-80" points="115.8 57.89 115.8 66.16 99.25 66.16 99.25 74.44 82.71 74.44 82.71 82.71 66.16 82.71 66.16 74.44 74.43 74.44 74.43 66.16 90.98 66.16 90.98 57.89 115.8 57.89"/>
  <rect class="cls-49" x="82.71" y="74.44" width="16.54" height="8.27"/>
  <rect class="cls-122" x="165.41" y="74.44" width="8.27" height="8.27"/>
  <rect class="cls-78" x="173.69" y="74.44" width="24.82" height="8.27"/>
  <polygon class="cls-57" points="223.32 99.25 223.32 115.8 215.05 115.8 215.05 124.07 206.78 124.07 206.78 99.25 198.5 99.25 198.5 74.44 206.78 74.44 206.78 82.71 215.05 82.71 215.05 99.25 223.32 99.25"/>
  <polygon class="cls-4" points="248.12 74.44 248.12 82.71 239.86 82.71 239.86 90.98 231.59 90.98 231.59 99.25 223.32 99.25 223.32 90.98 215.05 90.98 215.05 82.71 206.78 82.71 206.78 74.44 248.12 74.44"/>
  <rect class="cls-15" x="248.12" y="74.44" width="8.27" height="8.27"/>
  <rect class="cls-106" x="256.4" y="74.44" width="8.27" height="8.27"/>
  <rect class="cls-49" x="99.25" y="66.16" width="16.54" height="8.27"/>
  <rect class="cls-96" x="256.39" y="66.16" width="8.27" height="8.27"/>
  <rect class="cls-49" x="115.8" y="57.89" width="24.8" height="8.27"/>
  <rect class="cls-96" x="248.12" y="57.89" width="8.27" height="8.27"/>
  <rect class="cls-43" x="107.52" y="49.62" width="8.27" height="8.27"/>
  <rect class="cls-61" x="115.8" y="49.62" width="24.8" height="8.27"/>
  <rect class="cls-49" x="140.6" y="49.62" width="41.36" height="8.27"/>
  <rect class="cls-96" x="215.05" y="49.62" width="33.07" height="8.27"/>
  <rect class="cls-43" x="115.8" y="41.35" width="33.07" height="8.27"/>
  <rect class="cls-96" x="181.96" y="41.35" width="33.09" height="8.27"/>
  <rect class="cls-118" x="24.8" y="33.07" width="8.27" height="41.36"/>
  <polygon class="cls-68" points="66.16 66.16 66.16 82.71 57.89 82.71 57.89 90.98 49.62 90.98 49.62 99.25 41.35 99.25 41.35 74.44 33.07 74.44 33.07 33.07 41.35 33.07 41.35 57.89 57.89 57.89 57.89 66.16 66.16 66.16"/>
  <polygon class="cls-7" points="173.69 41.35 173.69 49.62 148.87 49.62 148.87 41.35 140.6 41.35 140.6 33.07 157.14 33.07 157.14 41.35 173.69 41.35"/>
  <polygon class="cls-8" points="181.96 33.07 181.96 49.62 173.69 49.62 173.69 41.35 157.14 41.35 157.14 33.07 181.96 33.07"/>
  <rect class="cls-127" x="148.87" y="24.8" width="16.54" height="8.27"/>
  <rect class="cls-118" x="33.07" y="16.54" width="8.27" height="16.53"/>
  <polygon class="cls-124" points="115.8 41.35 115.8 49.62 107.52 49.62 107.52 57.89 90.98 57.89 90.98 66.16 74.43 66.16 74.43 74.44 66.16 74.44 66.16 66.16 57.89 66.16 57.89 57.89 41.35 57.89 41.35 16.54 66.16 16.54 66.16 24.8 74.43 24.8 74.43 33.07 82.71 33.07 82.71 41.35 115.8 41.35"/>
  <rect class="cls-127" x="132.33" y="16.54" width="16.54" height="8.26"/>
  <rect class="cls-39" x="41.35" y="8.27" width="16.54" height="8.27"/>
  <polygon class="cls-10" points="148.87 24.8 148.87 33.07 140.6 33.07 140.6 41.35 82.71 41.35 82.71 33.07 74.43 33.07 74.43 24.8 66.16 24.8 66.16 16.54 57.89 16.54 57.89 8.27 115.8 8.27 115.8 16.54 132.33 16.54 132.33 24.8 148.87 24.8"/>
  <rect class="cls-127" x="115.8" y="8.27" width="16.53" height="8.27"/>
  <rect class="cls-39" x="57.89" width="8.27" height="8.27"/>
  <rect class="cls-127" x="66.16" width="49.63" height="8.27"/>
  <rect class="cls-32" x="124.07" y="421.82" width="33.07" height="8.27"/>
  <rect class="cls-32" x="115.8" y="413.55" width="8.27" height="8.27"/>
  <rect class="cls-94" x="124.07" y="413.55" width="33.07" height="8.27"/>
  <rect class="cls-32" x="190.23" y="413.55" width="33.09" height="8.27"/>
  <rect class="cls-66" x="115.8" y="405.28" width="8.27" height="8.27"/>
  <rect class="cls-32" x="124.07" y="405.28" width="8.26" height="8.27"/>
  <rect class="cls-3" x="132.33" y="405.28" width="24.82" height="8.27"/>
  <rect class="cls-32" x="157.14" y="405.28" width="8.27" height="16.54"/>
  <rect class="cls-32" x="181.96" y="405.28" width="8.27" height="8.27"/>
  <polygon class="cls-94" points="223.32 397.01 223.32 413.55 190.23 413.55 190.23 405.28 215.05 405.28 215.05 397.01 223.32 397.01"/>
  <rect class="cls-66" x="115.8" y="397.01" width="8.27" height="8.27"/>
  <rect class="cls-45" x="124.07" y="397.01" width="8.26" height="8.27"/>
  <polygon class="cls-32" points="157.14 388.73 157.14 405.28 132.33 405.28 132.33 397.01 148.87 397.01 148.87 388.73 157.14 388.73"/>
  <rect class="cls-32" x="190.23" y="397.01" width="8.27" height="8.27"/>
  <rect class="cls-3" x="198.5" y="397.01" width="16.54" height="8.27"/>
  <polygon class="cls-32" points="115.8 397.01 115.8 413.55 107.52 413.55 107.52 405.28 99.25 405.28 99.25 388.73 107.52 388.73 107.52 397.01 115.8 397.01"/>
  <polygon class="cls-84" points="124.07 380.46 124.07 388.73 115.8 388.73 115.8 397.01 107.52 397.01 107.52 380.46 124.07 380.46"/>
  <rect class="cls-59" x="115.8" y="388.73" width="8.27" height="8.27"/>
  <rect class="cls-103" x="124.07" y="388.73" width="24.8" height="8.27"/>
  <polygon class="cls-32" points="181.96 397.01 181.96 405.28 165.41 405.28 165.41 388.73 173.69 388.73 173.69 397.01 181.96 397.01"/>
  <rect class="cls-36" x="190.23" y="388.73" width="8.27" height="8.27"/>
  <polygon class="cls-32" points="231.59 388.73 231.59 413.55 223.32 413.55 223.32 397.01 198.5 397.01 198.5 388.73 215.05 388.73 215.05 380.46 223.32 380.46 223.32 388.73 231.59 388.73"/>
  <polygon class="cls-65" points="99.25 355.66 99.25 380.46 90.98 380.46 90.98 388.73 41.35 388.73 41.35 372.19 33.07 372.19 33.07 347.39 41.35 347.39 41.35 363.93 90.98 363.93 90.98 355.66 99.25 355.66"/>
  <rect class="cls-36" x="181.96" y="380.46" width="8.27" height="8.27"/>
  <rect class="cls-77" x="190.23" y="380.46" width="8.27" height="8.27"/>
  <rect class="cls-77" x="198.5" y="380.46" width="8.27" height="8.27"/>
  <rect class="cls-77" x="206.78" y="380.46" width="8.27" height="8.27"/>
  <rect class="cls-53" x="33.07" y="372.19" width="8.27" height="8.27"/>
  <rect class="cls-98" x="99.25" y="355.66" width="8.27" height="24.8"/>
  <polygon class="cls-2" points="190.23 388.73 190.23 405.28 181.96 405.28 181.96 397.01 173.69 397.01 173.69 388.73 165.41 388.73 165.41 372.19 181.96 372.19 181.96 388.73 190.23 388.73"/>
  <rect class="cls-77" x="198.5" y="372.19" width="8.27" height="8.27"/>
  <rect class="cls-32" x="206.77" y="372.2" width="8.27" height="8.27"/>
  <rect class="cls-32" x="157.14" y="363.93" width="8.27" height="24.8"/>
  <rect class="cls-99" x="190.23" y="363.93" width="8.27" height="8.26"/>
  <rect class="cls-32" x="198.5" y="363.93" width="8.27" height="8.27"/>
  <rect class="cls-92" x="107.52" y="355.66" width="8.27" height="24.8"/>
  <polygon class="cls-88" points="140.6 355.66 140.6 388.73 124.07 388.73 124.07 380.46 115.8 380.46 115.8 355.66 140.6 355.66"/>
  <rect class="cls-89" x="140.6" y="355.66" width="8.27" height="33.07"/>
  <polygon class="cls-88" points="198.5 372.19 198.5 380.46 181.96 380.46 181.96 372.19 165.41 372.19 165.41 363.93 157.14 363.93 157.14 355.66 165.41 355.66 165.41 347.39 173.69 347.39 173.69 355.66 190.23 355.66 190.23 372.19 198.5 372.19"/>
  <rect class="cls-99" x="190.23" y="355.66" width="8.27" height="8.27"/>
  <polygon class="cls-12" points="107.52 380.46 107.52 388.73 99.25 388.73 99.25 397.01 33.07 397.01 33.07 388.73 24.8 388.73 24.8 380.46 16.53 380.46 16.53 347.39 24.8 347.39 24.8 372.19 33.07 372.19 33.07 380.46 41.35 380.46 41.35 388.73 90.98 388.73 90.98 380.46 107.52 380.46"/>
  <rect class="cls-53" x="24.8" y="347.39" width="8.27" height="24.8"/>
  <polygon class="cls-11" points="90.98 355.66 90.98 363.93 41.35 363.93 41.35 347.39 49.62 347.39 49.62 355.66 90.98 355.66"/>
  <rect class="cls-11" x="90.98" y="347.39" width="8.27" height="8.27"/>
  <polygon class="cls-64" points="115.8 322.57 115.8 347.39 107.52 347.39 107.52 355.66 99.25 355.66 99.25 339.12 107.52 339.12 107.52 322.57 115.8 322.57"/>
  <rect class="cls-98" x="107.52" y="347.39" width="8.27" height="8.27"/>
  <polygon class="cls-50" points="132.33 330.84 132.33 347.39 124.07 347.39 124.07 355.66 115.8 355.66 115.8 339.12 124.07 339.12 124.07 330.84 132.33 330.84"/>
  <rect class="cls-121" x="124.07" y="347.39" width="8.26" height="8.27"/>
  <rect class="cls-5" x="132.33" y="347.39" width="8.27" height="8.27"/>
  <rect class="cls-53" x="16.53" y="339.12" width="8.27" height="8.27"/>
  <rect class="cls-126" x="24.8" y="339.12" width="8.27" height="8.27"/>
  <rect class="cls-11" x="33.07" y="339.12" width="8.27" height="8.27"/>
  <polygon class="cls-33" points="173.69 314.3 173.69 347.39 165.41 347.39 165.41 355.66 140.6 355.66 140.6 347.39 132.33 347.39 132.33 314.3 140.6 314.3 140.6 322.57 148.87 322.57 148.87 330.84 140.6 330.84 140.6 339.12 148.87 339.12 148.87 347.39 157.14 347.39 157.14 339.12 165.41 339.12 165.41 330.84 157.14 330.84 157.14 322.57 165.41 322.57 165.41 314.3 173.69 314.3"/>
  <rect class="cls-30" x="148.87" y="339.12" width="8.27" height="8.27"/>
  <rect class="cls-60" x="198.5" y="339.12" width="8.27" height="8.27"/>
  <polygon class="cls-126" points="33.07 322.57 33.07 339.12 16.53 339.12 16.53 330.84 24.8 330.84 24.8 322.57 33.07 322.57"/>
  <rect class="cls-51" x="115.8" y="330.84" width="8.27" height="8.27"/>
  <rect class="cls-30" x="140.6" y="330.84" width="8.27" height="8.27"/>
  <rect class="cls-33" x="148.87" y="330.84" width="8.27" height="8.27"/>
  <rect class="cls-30" x="157.14" y="330.84" width="8.27" height="8.27"/>
  <rect class="cls-60" x="206.78" y="322.57" width="8.27" height="16.54"/>
  <rect class="cls-31" x="33.07" y="322.57" width="8.27" height="16.54"/>
  <polygon class="cls-107" points="99.25 322.57 99.25 347.39 90.98 347.39 90.98 355.66 49.62 355.66 49.62 347.39 41.35 347.39 41.35 322.57 99.25 322.57"/>
  <rect class="cls-12" x="99.25" y="322.57" width="8.27" height="16.54"/>
  <rect class="cls-29" x="115.8" y="322.57" width="8.27" height="8.27"/>
  <rect class="cls-113" x="124.07" y="322.57" width="8.26" height="8.27"/>
  <rect class="cls-30" x="148.87" y="322.57" width="8.27" height="8.27"/>
  <rect class="cls-95" x="24.8" y="314.3" width="8.27" height="8.27"/>
  <rect class="cls-44" x="33.07" y="314.3" width="8.27" height="8.27"/>
  <polygon class="cls-31" points="57.89 306.03 57.89 322.57 41.35 322.57 41.35 314.3 49.62 314.3 49.62 306.03 57.89 306.03"/>
  <rect class="cls-1" x="66.16" y="314.3" width="16.54" height="8.27"/>
  <rect class="cls-81" x="99.25" y="314.3" width="8.27" height="8.27"/>
  <rect class="cls-75" x="107.52" y="314.3" width="8.27" height="8.27"/>
  <rect class="cls-113" x="115.8" y="314.3" width="8.27" height="8.27"/>
  <polygon class="cls-128" points="132.33 215.05 132.33 281.21 124.07 281.21 124.07 306.03 132.33 306.03 132.33 322.57 124.07 322.57 124.07 314.3 115.8 314.3 115.8 306.03 107.52 306.03 107.52 281.21 115.8 281.21 115.8 272.94 124.07 272.94 124.07 223.32 115.8 223.32 115.8 215.05 132.33 215.05"/>
  <rect class="cls-30" x="140.6" y="314.3" width="8.27" height="8.27"/>
  <rect class="cls-30" x="157.14" y="314.3" width="8.27" height="8.27"/>
  <rect class="cls-121" x="173.69" y="314.3" width="8.27" height="41.36"/>
  <rect class="cls-60" x="215.05" y="289.48" width="8.27" height="33.09"/>
  <rect class="cls-95" x="33.08" y="306.03" width="8.27" height="8.27"/>
  <rect class="cls-44" x="41.35" y="306.03" width="8.27" height="8.27"/>
  <rect class="cls-1" x="57.89" y="306.03" width="8.27" height="8.27"/>
  <polygon class="cls-13" points="82.71 297.75 82.71 314.3 66.16 314.3 66.16 306.03 74.43 306.03 74.43 297.75 82.71 297.75"/>
  <rect class="cls-1" x="82.71" y="297.75" width="8.27" height="16.54"/>
  <rect class="cls-116" x="90.98" y="306.03" width="8.27" height="16.54"/>
  <rect class="cls-75" x="99.25" y="306.03" width="8.27" height="8.27"/>
  <rect class="cls-113" x="107.52" y="306.03" width="8.27" height="8.27"/>
  <polygon class="cls-33" points="165.41 306.03 165.41 314.3 157.14 314.3 157.14 322.57 148.87 322.57 148.87 314.3 140.6 314.3 140.6 306.03 165.41 306.03"/>
  <polygon class="cls-128" points="198.5 330.84 198.5 355.66 181.96 355.66 181.96 314.3 165.41 314.3 165.41 306.03 190.23 306.03 190.23 330.84 198.5 330.84"/>
  <rect class="cls-95" x="41.35" y="297.75" width="16.54" height="8.27"/>
  <polygon class="cls-69" points="82.71 264.67 82.71 281.21 74.43 281.21 74.43 289.48 66.16 289.48 66.16 306.03 57.89 306.03 57.89 281.21 66.16 281.21 66.16 272.94 74.43 272.94 74.43 264.67 82.71 264.67"/>
  <rect class="cls-75" x="90.98" y="297.75" width="8.27" height="8.27"/>
  <rect class="cls-42" x="148.87" y="297.75" width="41.36" height="8.27"/>
  <polygon class="cls-109" points="206.78 289.48 206.78 339.12 198.5 339.12 198.5 330.84 190.23 330.84 190.23 297.75 198.5 297.75 198.5 289.48 206.78 289.48"/>
  <rect class="cls-13" x="82.71" y="289.48" width="8.27" height="8.27"/>
  <rect class="cls-62" x="90.98" y="289.48" width="8.27" height="8.27"/>
  <rect class="cls-42" x="140.6" y="289.48" width="8.27" height="8.27"/>
  <rect class="cls-90" x="181.96" y="289.48" width="8.27" height="8.27"/>
  <rect class="cls-42" x="190.23" y="289.48" width="8.27" height="8.27"/>
  <rect class="cls-13" x="90.98" y="281.21" width="8.27" height="8.27"/>
  <rect class="cls-97" x="99.25" y="281.21" width="8.27" height="24.82"/>
  <rect class="cls-28" x="140.6" y="272.94" width="8.27" height="16.54"/>
  <polygon class="cls-56" points="239.86 272.94 239.86 281.21 231.59 281.21 231.59 289.48 215.05 289.48 215.05 281.21 223.32 281.21 223.32 272.94 239.86 272.94"/>
  <rect class="cls-13" x="90.98" y="272.94" width="8.27" height="8.27"/>
  <rect class="cls-125" x="99.25" y="272.94" width="8.27" height="8.27"/>
  <rect class="cls-97" x="107.52" y="272.94" width="8.27" height="8.27"/>
  <polygon class="cls-109" points="181.96 281.21 181.96 297.75 148.87 297.75 148.87 272.94 165.41 272.94 165.41 281.21 181.96 281.21"/>
  <polygon class="cls-38" points="190.23 264.67 190.23 289.48 181.96 289.48 181.96 281.21 165.41 281.21 165.41 272.94 181.96 272.94 181.96 264.67 190.23 264.67"/>
  <polygon class="cls-40" points="90.98 264.67 90.98 289.48 82.71 289.48 82.71 297.75 74.43 297.75 74.43 306.03 66.16 306.03 66.16 289.48 74.43 289.48 74.43 281.21 82.71 281.21 82.71 264.67 90.98 264.67"/>
  <rect class="cls-102" x="107.52" y="264.67" width="8.27" height="8.27"/>
  <rect class="cls-97" x="115.8" y="264.67" width="8.27" height="8.27"/>
  <rect class="cls-28" x="148.87" y="264.67" width="33.09" height="8.27"/>
  <rect class="cls-24" x="206.78" y="264.67" width="8.27" height="57.91"/>
  <rect class="cls-108" x="215.05" y="264.67" width="8.27" height="16.54"/>
  <rect class="cls-16" x="74.43" y="256.39" width="8.27" height="8.27"/>
  <rect class="cls-102" x="107.52" y="256.39" width="8.27" height="8.27"/>
  <rect class="cls-97" x="115.8" y="256.39" width="8.27" height="8.27"/>
  <rect class="cls-28" x="181.96" y="256.39" width="8.27" height="8.27"/>
  <rect class="cls-90" x="190.23" y="256.39" width="8.27" height="33.09"/>
  <rect class="cls-6" x="231.59" y="256.39" width="8.27" height="16.54"/>
  <polygon class="cls-110" points="82.71 215.05 82.71 231.59 74.43 231.59 74.43 256.39 66.16 256.39 66.16 223.32 74.43 223.32 74.43 215.05 82.71 215.05"/>
  <polygon class="cls-85" points="107.52 190.23 107.52 248.14 99.25 248.14 99.25 256.39 82.71 256.39 82.71 248.14 90.98 248.14 90.98 231.59 99.25 231.59 99.25 190.23 107.52 190.23"/>
  <rect class="cls-102" x="115.8" y="248.14" width="8.27" height="8.26"/>
  <polygon class="cls-28" points="206.78 248.14 206.78 289.48 198.5 289.48 198.5 256.39 190.23 256.39 190.23 248.14 206.78 248.14"/>
  <polygon class="cls-115" points="231.59 256.39 231.59 272.94 223.32 272.94 223.32 264.67 215.05 264.67 215.05 248.14 223.32 248.14 223.32 256.39 231.59 256.39"/>
  <rect class="cls-93" x="223.32" y="248.14" width="8.27" height="8.26"/>
  <rect class="cls-102" x="115.8" y="239.86" width="8.27" height="8.27"/>
  <polygon class="cls-54" points="198.5 223.32 198.5 248.14 190.23 248.14 190.23 256.39 181.96 256.39 181.96 264.67 148.87 264.67 148.87 272.94 140.6 272.94 140.6 297.75 148.87 297.75 148.87 306.03 140.6 306.03 140.6 314.3 132.33 314.3 132.33 306.03 124.07 306.03 124.07 281.21 132.33 281.21 132.33 239.86 140.6 239.86 140.6 248.14 173.69 248.14 173.69 239.86 190.23 239.86 190.23 223.32 198.5 223.32"/>
  <rect class="cls-83" x="140.6" y="239.86" width="33.09" height="8.27"/>
  <rect class="cls-34" x="198.5" y="239.86" width="8.27" height="8.27"/>
  <rect class="cls-37" x="206.78" y="239.86" width="8.27" height="24.8"/>
  <rect class="cls-52" x="215.05" y="239.86" width="8.27" height="8.27"/>
  <rect class="cls-102" x="115.8" y="231.59" width="8.27" height="8.27"/>
  <rect class="cls-90" x="140.6" y="231.59" width="8.27" height="8.27"/>
  <rect class="cls-90" x="148.87" y="231.59" width="8.27" height="8.27"/>
  <polygon class="cls-101" points="198.5 190.23 198.5 223.32 190.23 223.32 190.23 239.86 157.14 239.86 157.14 231.59 173.69 231.59 173.69 223.32 181.96 223.32 181.96 215.05 190.23 215.05 190.23 198.5 181.96 198.5 181.96 190.23 198.5 190.23"/>
  <rect class="cls-34" x="198.5" y="231.59" width="8.27" height="8.27"/>
  <rect class="cls-102" x="115.8" y="223.32" width="8.27" height="8.27"/>
  <rect class="cls-34" x="132.33" y="223.32" width="8.27" height="16.54"/>
  <rect class="cls-34" x="198.5" y="223.32" width="8.27" height="8.27"/>
  <rect class="cls-90" x="132.33" y="215.05" width="8.27" height="8.27"/>
  <rect class="cls-34" x="198.5" y="215.05" width="8.27" height="8.27"/>
  <rect class="cls-121" x="115.8" y="206.78" width="8.27" height="8.27"/>
  <rect class="cls-109" x="124.07" y="206.78" width="8.26" height="8.27"/>
  <rect class="cls-90" x="132.33" y="206.78" width="8.27" height="8.27"/>
  <rect class="cls-16" x="157.14" y="206.78" width="24.82" height="8.27"/>
  <rect class="cls-34" x="198.5" y="206.78" width="8.27" height="8.27"/>
  <polygon class="cls-71" points="223.32 231.59 223.32 239.86 206.78 239.86 206.78 206.78 215.05 206.78 215.05 231.59 223.32 231.59"/>
  <rect class="cls-110" x="82.71" y="198.5" width="8.27" height="16.54"/>
  <polygon class="cls-47" points="99.25 198.5 99.25 231.59 90.98 231.59 90.98 248.14 82.71 248.14 82.71 256.39 74.43 256.39 74.43 231.59 82.71 231.59 82.71 215.05 90.98 215.05 90.98 198.5 99.25 198.5"/>
  <polygon class="cls-25" points="115.8 198.5 115.8 256.39 107.52 256.39 107.52 272.94 90.98 272.94 90.98 264.67 82.71 264.67 82.71 256.39 99.25 256.39 99.25 248.14 107.52 248.14 107.52 198.5 115.8 198.5"/>
  <rect class="cls-26" x="115.8" y="198.5" width="8.27" height="8.27"/>
  <rect class="cls-20" x="124.07" y="198.5" width="8.26" height="8.27"/>
  <rect class="cls-23" x="132.33" y="198.5" width="8.27" height="8.27"/>
  <polygon class="cls-71" points="173.69 223.32 173.69 231.59 140.6 231.59 140.6 198.5 148.87 198.5 148.87 223.32 173.69 223.32"/>
  <polygon class="cls-66" points="181.96 215.05 181.96 223.32 148.87 223.32 148.87 198.5 165.41 198.5 165.41 206.78 157.14 206.78 157.14 215.05 181.96 215.05"/>
  <polygon class="cls-117" points="190.23 198.5 190.23 215.05 181.96 215.05 181.96 206.78 165.41 206.78 165.41 198.5 173.69 198.5 173.69 190.23 181.96 190.23 181.96 198.5 190.23 198.5"/>
  <rect class="cls-86" x="206.78" y="198.5" width="8.27" height="8.27"/>
  <rect class="cls-110" x="90.98" y="190.23" width="8.27" height="8.27"/>
  <rect class="cls-119" x="107.52" y="190.23" width="8.27" height="8.27"/>
  <rect class="cls-20" x="115.8" y="190.23" width="8.27" height="8.27"/>
  <polygon class="cls-66" points="181.96 181.96 181.96 190.23 173.69 190.23 173.69 198.5 165.41 198.5 165.41 181.96 181.96 181.96"/>
  <rect class="cls-104" x="206.78" y="190.23" width="8.27" height="8.27"/>
</svg>