<?xml version="1.0" encoding="UTF-8"?>
<svg id="Calque_1" data-name="Calque 1" xmlns="http://www.w3.org/2000/svg" viewBox="0 0 269.55 404.32">
  <defs>
    <style>
      .cls-1 {
        fill: #69ad54;
      }

      .cls-2 {
        fill: #8a5334;
      }

      .cls-3 {
        fill: #296446;
      }

      .cls-4 {
        fill: #c9915e;
      }

      .cls-5 {
        fill: #abc755;
      }

      .cls-6 {
        fill: #a8c65a;
      }

      .cls-7 {
        fill: #a9c55a;
      }

      .cls-8 {
        fill: #bfd06b;
      }

      .cls-9 {
        fill: #195741;
      }

      .cls-10 {
        fill: #a57742;
      }

      .cls-11 {
        fill: #164537;
      }

      .cls-12 {
        fill: #6eac47;
      }

      .cls-13 {
        fill: #478e3d;
      }

      .cls-14 {
        fill: #76a846;
      }

      .cls-15 {
        fill: #2f6f46;
      }

      .cls-16 {
        fill: #0d4738;
      }

      .cls-17 {
        fill: #70aa48;
      }

      .cls-18 {
        fill: #73a947;
      }

      .cls-19 {
        fill: #ae7147;
      }

      .cls-20 {
        fill: #429143;
      }

      .cls-21 {
        fill: #a7c65d;
      }

      .cls-22 {
        fill: #438e41;
      }

      .cls-23 {
        fill: #c1d069;
      }

      .cls-24 {
        fill: #0f372e;
      }

      .cls-25 {
        fill: #428e49;
      }

      .cls-26 {
        fill: #1e5345;
      }

      .cls-27 {
        fill: #1b5644;
      }

      .cls-28 {
        fill: #a9c55e;
      }

      .cls-29 {
        fill: #aac559;
      }

      .cls-30 {
        fill: #70aa4a;
      }

      .cls-31 {
        fill: #103631;
      }

      .cls-32 {
        fill: #306f48;
      }

      .cls-33 {
        fill: #205846;
      }

      .cls-34 {
        fill: #448f3c;
      }

      .cls-35 {
        fill: #10372f;
      }

      .cls-36 {
        fill: #71a94c;
      }

      .cls-37 {
        fill: #60b154;
      }

      .cls-38 {
        fill: #c3cf67;
      }

      .cls-39 {
        fill: #70aa4b;
      }

      .cls-40 {
        fill: #70ab47;
      }

      .cls-41 {
        fill: #a6c65c;
      }

      .cls-42 {
        fill: #a4c567;
      }

      .cls-43 {
        fill: #256344;
      }

      .cls-44 {
        fill: #2f6f44;
      }

      .cls-45 {
        fill: #0d3633;
      }

      .cls-46 {
        fill: #6fab48;
      }

      .cls-47 {
        fill: #438f42;
      }

      .cls-48 {
        fill: #a6c75d;
      }

      .cls-49 {
        fill: #8e5036;
      }

      .cls-50 {
        fill: #c0d169;
      }

      .cls-51 {
        fill: #458d43;
      }

      .cls-52 {
        fill: #1a513a;
      }

      .cls-53 {
        fill: #10372c;
      }

      .cls-54 {
        fill: #60231d;
      }

      .cls-55 {
        fill: #a9c55c;
      }

      .cls-56 {
        fill: #2e7142;
      }

      .cls-57 {
        fill: #722f26;
      }

      .cls-58 {
        fill: #642523;
      }

      .cls-59 {
        fill: #6bac52;
      }

      .cls-60 {
        fill: #114837;
      }

      .cls-61 {
        fill: #c8925b;
      }

      .cls-62 {
        fill: #2f6f43;
      }

      .cls-63 {
        fill: #1d5342;
      }

      .cls-64 {
        fill: #438f40;
      }

      .cls-65 {
        fill: #246444;
      }
    </style>
  </defs>
  <rect class="cls-36" x="17.97" y="134.77" width="8.99" height="8.99"/>
  <rect class="cls-23" x="26.96" y="134.77" width="26.96" height="8.99"/>
  <polygon class="cls-35" points="71.87 125.79 71.87 152.75 62.9 152.75 62.9 143.76 53.92 143.76 53.92 134.77 62.9 134.77 62.9 125.79 71.87 125.79"/>
  <rect class="cls-65" x="71.87" y="134.77" width="8.99" height="8.99"/>
  <rect class="cls-6" x="170.72" y="134.77" width="17.97" height="8.99"/>
  <rect class="cls-31" x="188.69" y="134.77" width="8.97" height="8.99"/>
  <rect class="cls-21" x="233.6" y="134.77" width="8.99" height="26.96"/>
  <rect class="cls-21" x="224.62" y="125.79" width="8.99" height="8.99"/>
  <rect class="cls-50" x="233.6" y="125.79" width="8.99" height="8.99"/>
  <rect class="cls-30" x="242.59" y="125.79" width="8.99" height="35.94"/>
  <rect class="cls-25" x="53.92" y="116.8" width="17.96" height="8.99"/>
  <rect class="cls-60" x="71.87" y="116.8" width="8.99" height="17.97"/>
  <polygon class="cls-35" points="134.77 143.76 134.77 152.75 80.86 152.75 80.86 116.8 89.84 116.8 89.84 143.76 134.77 143.76"/>
  <polygon class="cls-6" points="170.72 125.79 170.72 134.77 134.77 134.77 134.77 116.8 143.76 116.8 143.76 125.79 170.72 125.79"/>
  <polygon class="cls-64" points="215.63 116.8 215.63 143.76 206.65 143.76 206.65 152.75 197.66 152.75 197.66 134.77 206.65 134.77 206.65 116.8 215.63 116.8"/>
  <rect class="cls-21" x="215.63" y="116.8" width="8.99" height="8.99"/>
  <rect class="cls-50" x="224.62" y="116.8" width="8.99" height="8.99"/>
  <rect class="cls-30" x="233.61" y="116.8" width="8.98" height="8.98"/>
  <rect class="cls-25" x="71.87" y="107.82" width="8.99" height="8.99"/>
  <rect class="cls-63" x="80.86" y="107.82" width="8.99" height="8.99"/>
  <polygon class="cls-18" points="188.69 98.83 188.69 134.77 170.72 134.77 170.72 125.79 143.76 125.79 143.76 116.8 152.75 116.8 152.75 107.82 161.73 107.82 161.73 98.83 152.75 98.83 152.75 107.82 143.76 107.82 143.76 116.8 134.77 116.8 134.77 98.83 143.76 98.83 143.76 80.86 170.72 80.86 170.72 98.83 188.69 98.83"/>
  <rect class="cls-62" x="143.76" y="107.82" width="8.99" height="8.99"/>
  <rect class="cls-22" x="188.69" y="107.82" width="8.97" height="26.96"/>
  <rect class="cls-30" x="215.63" y="107.82" width="17.97" height="8.99"/>
  <rect class="cls-36" x="8.99" y="98.83" width="8.99" height="35.94"/>
  <rect class="cls-23" x="17.97" y="98.83" width="8.99" height="35.94"/>
  <polygon class="cls-48" points="62.9 125.79 62.9 134.77 26.96 134.77 26.96 98.83 35.94 98.83 35.94 125.79 62.9 125.79"/>
  <polygon class="cls-62" points="53.92 98.83 53.92 107.82 44.93 107.82 44.93 125.79 35.94 125.79 35.94 98.83 53.92 98.83"/>
  <rect class="cls-62" x="152.75" y="98.83" width="8.99" height="8.99"/>
  <rect class="cls-46" x="116.8" y="89.84" width="8.99" height="53.92"/>
  <polygon class="cls-23" points="170.72 134.77 170.72 143.76 125.79 143.76 125.79 89.84 134.77 89.84 134.77 134.77 170.72 134.77"/>
  <rect class="cls-6" x="134.77" y="89.84" width="8.99" height="8.99"/>
  <rect class="cls-43" x="206.65" y="89.84" width="8.99" height="17.97"/>
  <rect class="cls-36" x="17.97" y="80.86" width="8.99" height="17.97"/>
  <rect class="cls-23" x="26.96" y="80.86" width="8.99" height="17.97"/>
  <rect class="cls-17" x="125.79" y="80.86" width="8.99" height="8.99"/>
  <rect class="cls-23" x="134.77" y="80.86" width="8.99" height="8.99"/>
  <polygon class="cls-22" points="188.69 89.84 188.69 98.83 170.72 98.83 170.72 80.86 179.7 80.86 179.7 89.84 188.69 89.84"/>
  <rect class="cls-36" x="26.96" y="71.87" width="8.99" height="8.99"/>
  <rect class="cls-23" x="35.94" y="71.87" width="8.99" height="8.99"/>
  <rect class="cls-51" x="80.86" y="71.87" width="8.99" height="35.94"/>
  <rect class="cls-35" x="89.84" y="71.87" width="8.99" height="44.93"/>
  <rect class="cls-17" x="134.77" y="71.87" width="8.99" height="8.99"/>
  <rect class="cls-6" x="143.76" y="71.87" width="17.97" height="8.99"/>
  <rect class="cls-22" x="161.73" y="71.87" width="8.99" height="8.99"/>
  <polygon class="cls-63" points="197.66 80.86 197.66 107.82 188.69 107.82 188.69 89.84 179.7 89.84 179.7 80.86 170.72 80.86 170.72 71.87 188.69 71.87 188.69 80.86 197.66 80.86"/>
  <polygon class="cls-35" points="215.63 107.82 215.63 116.8 206.65 116.8 206.65 134.77 197.66 134.77 197.66 80.86 188.69 80.86 188.69 71.87 197.66 71.87 197.66 62.89 206.65 62.89 206.65 107.82 215.63 107.82"/>
  <rect class="cls-11" x="206.65" y="71.87" width="8.99" height="17.97"/>
  <rect class="cls-35" x="215.63" y="71.87" width="8.99" height="35.94"/>
  <rect class="cls-36" x="35.94" y="62.89" width="8.98" height="8.98"/>
  <rect class="cls-35" x="44.93" y="62.89" width="8.99" height="8.99"/>
  <polygon class="cls-40" points="80.86 62.89 80.86 107.82 71.87 107.82 71.87 116.8 53.92 116.8 53.92 125.79 44.93 125.79 44.93 107.82 53.92 107.82 53.92 98.83 35.94 98.83 35.94 80.86 44.93 80.86 44.93 71.87 53.92 71.87 53.92 62.89 80.86 62.89"/>
  <rect class="cls-35" x="80.86" y="62.89" width="8.99" height="8.99"/>
  <rect class="cls-43" x="125.79" y="62.89" width="8.99" height="17.97"/>
  <rect class="cls-30" x="143.76" y="62.89" width="8.99" height="8.99"/>
  <rect class="cls-35" x="152.75" y="62.89" width="35.94" height="8.99"/>
  <rect class="cls-59" x="206.65" y="62.89" width="26.96" height="8.99"/>
  <rect class="cls-35" x="233.6" y="62.89" width="17.97" height="8.99"/>
  <rect class="cls-35" x="53.92" y="53.9" width="26.94" height="8.99"/>
  <polygon class="cls-35" points="125.79 53.9 125.79 89.84 116.8 89.84 116.8 62.89 98.83 62.89 98.83 53.9 125.79 53.9"/>
  <rect class="cls-6" x="224.62" y="53.9" width="26.96" height="8.99"/>
  <rect class="cls-35" x="251.58" y="53.9" width="8.99" height="8.99"/>
  <rect class="cls-29" x="98.83" y="44.93" width="8.99" height="8.97"/>
  <rect class="cls-64" x="107.82" y="44.93" width="17.97" height="8.97"/>
  <rect class="cls-16" x="125.79" y="44.93" width="8.99" height="17.96"/>
  <rect class="cls-59" x="197.66" y="44.93" width="8.99" height="17.96"/>
  <polygon class="cls-38" points="224.62 53.9 224.62 62.89 206.65 62.89 206.65 44.93 215.63 44.93 215.63 53.9 224.62 53.9"/>
  <rect class="cls-6" x="215.63" y="44.93" width="8.99" height="8.97"/>
  <polygon class="cls-13" points="251.58 17.97 251.58 53.9 224.62 53.9 224.62 44.93 242.59 44.93 242.59 26.96 233.6 26.96 233.6 17.97 251.58 17.97"/>
  <rect class="cls-30" x="89.84" y="35.94" width="8.99" height="17.96"/>
  <rect class="cls-50" x="98.83" y="35.94" width="8.99" height="8.99"/>
  <rect class="cls-29" x="107.82" y="26.96" width="8.99" height="17.97"/>
  <rect class="cls-64" x="125.79" y="35.94" width="8.99" height="8.99"/>
  <rect class="cls-35" x="134.77" y="35.94" width="8.99" height="35.93"/>
  <rect class="cls-30" x="98.83" y="26.96" width="8.99" height="8.99"/>
  <polygon class="cls-30" points="134.77 26.96 134.77 35.94 125.79 35.94 125.79 44.93 116.8 44.93 116.8 26.96 134.77 26.96"/>
  <rect class="cls-30" x="107.82" y="17.97" width="8.99" height="8.99"/>
  <rect class="cls-50" x="116.8" y="17.97" width="8.99" height="8.99"/>
  <rect class="cls-29" x="125.79" y="17.97" width="8.99" height="8.99"/>
  <rect class="cls-64" x="134.77" y="17.97" width="8.99" height="17.97"/>
  <rect class="cls-35" x="143.76" y="17.97" width="8.99" height="17.97"/>
  <rect class="cls-59" x="188.69" y="17.97" width="8.97" height="26.96"/>
  <rect class="cls-38" x="197.66" y="17.97" width="8.99" height="26.96"/>
  <rect class="cls-6" x="206.65" y="17.97" width="8.99" height="26.96"/>
  <polygon class="cls-1" points="242.59 26.96 242.59 44.93 215.63 44.93 215.63 17.97 233.6 17.97 233.6 26.96 242.59 26.96"/>
  <rect class="cls-27" x="251.58" y="17.97" width="8.99" height="35.93"/>
  <rect class="cls-35" x="260.56" y="17.97" width="8.99" height="35.93"/>
  <rect class="cls-30" x="116.8" y="8.99" width="17.97" height="8.99"/>
  <rect class="cls-35" x="134.77" y="8.99" width="8.99" height="8.99"/>
  <rect class="cls-59" x="197.66" y="8.99" width="8.99" height="8.99"/>
  <rect class="cls-38" x="206.65" y="8.99" width="8.99" height="8.99"/>
  <rect class="cls-6" x="215.63" y="8.99" width="26.96" height="8.99"/>
  <rect class="cls-27" x="242.59" y="8.99" width="8.99" height="8.99"/>
  <rect class="cls-35" x="251.58" y="8.99" width="8.99" height="8.99"/>
  <rect class="cls-59" x="206.65" width="26.96" height="8.99"/>
  <rect class="cls-35" x="233.6" width="17.97" height="8.99"/>
  <rect class="cls-58" x="44.93" y="395.34" width="152.73" height="8.99"/>
  <rect class="cls-58" x="35.94" y="386.35" width="8.99" height="8.99"/>
  <polygon class="cls-49" points="188.69 377.37 188.69 386.35 152.75 386.35 152.75 395.34 44.93 395.34 44.93 386.35 143.76 386.35 143.76 377.37 188.69 377.37"/>
  <rect class="cls-58" x="197.66" y="386.35" width="8.99" height="8.99"/>
  <rect class="cls-58" x="26.96" y="377.37" width="8.99" height="8.99"/>
  <rect class="cls-19" x="26.96" y="368.38" width="8.99" height="8.99"/>
  <rect class="cls-49" x="188.69" y="368.38" width="8.97" height="8.99"/>
  <rect class="cls-58" x="215.63" y="368.38" width="8.99" height="8.99"/>
  <rect class="cls-58" x="215.63" y="359.39" width="8.99" height="8.99"/>
  <rect class="cls-58" x="17.97" y="350.41" width="8.99" height="26.96"/>
  <rect class="cls-58" x="215.63" y="350.41" width="8.99" height="8.99"/>
  <polygon class="cls-4" points="134.77 350.41 134.77 368.38 98.83 368.38 98.83 377.37 35.94 377.37 35.94 368.38 26.96 368.38 26.96 350.41 17.97 350.41 17.97 323.45 26.96 323.45 26.96 332.44 89.84 332.44 89.84 341.42 125.79 341.42 125.79 350.41 134.77 350.41"/>
  <polygon class="cls-19" points="197.66 359.39 197.66 368.38 188.69 368.38 188.69 377.37 143.76 377.37 143.76 386.35 35.94 386.35 35.94 377.37 98.83 377.37 98.83 368.38 134.77 368.38 134.77 350.41 125.79 350.41 125.79 341.42 89.84 341.42 89.84 332.44 26.96 332.44 26.96 323.45 107.82 323.45 107.82 332.44 143.76 332.44 143.76 341.42 170.72 341.42 170.72 350.41 188.69 350.41 188.69 359.39 197.66 359.39"/>
  <rect class="cls-19" x="17.97" y="314.46" width="8.99" height="8.99"/>
  <polygon class="cls-49" points="206.65 341.42 206.65 368.38 197.66 368.38 197.66 359.39 188.69 359.39 188.69 350.41 170.72 350.41 170.72 341.42 143.76 341.42 143.76 332.44 107.82 332.44 107.82 323.45 26.96 323.45 26.96 314.46 125.79 314.46 125.79 323.45 161.73 323.45 161.73 332.44 179.7 332.44 179.7 341.42 206.65 341.42"/>
  <rect class="cls-54" x="8.99" y="305.48" width="8.99" height="44.93"/>
  <rect class="cls-49" x="17.97" y="305.48" width="8.99" height="8.99"/>
  <rect class="cls-54" x="26.96" y="305.48" width="188.67" height="8.99"/>
  <polygon class="cls-57" points="224.62 305.48 224.62 350.41 215.63 350.41 215.63 386.35 197.66 386.35 197.66 395.34 152.75 395.34 152.75 386.35 188.69 386.35 188.69 377.37 197.66 377.37 197.66 368.38 206.65 368.38 206.65 341.42 179.7 341.42 179.7 332.44 161.73 332.44 161.73 323.45 125.79 323.45 125.79 314.46 215.63 314.46 215.63 305.48 224.62 305.48"/>
  <rect class="cls-54" x="224.62" y="305.48" width="8.99" height="44.93"/>
  <rect class="cls-54" x="17.97" y="296.51" width="8.99" height="8.97"/>
  <rect class="cls-54" x="215.63" y="296.51" width="8.99" height="8.97"/>
  <polygon class="cls-61" points="215.63 296.51 215.63 305.48 26.96 305.48 26.96 296.51 17.97 296.51 17.97 278.53 26.96 278.53 26.96 287.52 80.86 287.52 80.86 296.51 215.63 296.51"/>
  <rect class="cls-2" x="143.76" y="278.53" width="17.97" height="8.99"/>
  <polygon class="cls-57" points="179.7 269.55 179.7 278.53 170.72 278.53 170.72 287.52 161.73 287.52 161.73 269.55 179.7 269.55"/>
  <rect class="cls-2" x="170.72" y="278.53" width="17.97" height="8.99"/>
  <polygon class="cls-10" points="215.63 269.55 215.63 296.51 80.86 296.51 80.86 287.52 26.96 287.52 26.96 278.53 17.97 278.53 17.97 269.55 53.92 269.55 53.92 260.56 125.79 260.56 125.79 269.55 134.77 269.55 134.77 278.53 143.76 278.53 143.76 287.52 188.69 287.52 188.69 278.53 197.66 278.53 197.66 269.55 215.63 269.55"/>
  <rect class="cls-2" x="134.77" y="269.55" width="8.99" height="8.99"/>
  <rect class="cls-30" x="143.76" y="269.55" width="17.97" height="8.99"/>
  <rect class="cls-31" x="179.7" y="269.55" width="8.99" height="8.99"/>
  <rect class="cls-2" x="188.69" y="269.55" width="8.97" height="8.99"/>
  <polygon class="cls-2" points="125.79 251.58 125.79 260.56 53.92 260.56 53.92 269.55 17.97 269.55 17.97 260.56 44.93 260.56 44.93 251.58 125.79 251.58"/>
  <rect class="cls-2" x="125.79" y="260.56" width="8.99" height="8.99"/>
  <rect class="cls-30" x="134.77" y="260.56" width="8.99" height="8.99"/>
  <rect class="cls-30" x="170.72" y="260.56" width="17.97" height="8.99"/>
  <rect class="cls-31" x="188.69" y="260.56" width="8.97" height="8.99"/>
  <polygon class="cls-2" points="224.62 260.56 224.62 296.51 215.63 296.51 215.63 269.55 197.66 269.55 197.66 260.56 224.62 260.56"/>
  <rect class="cls-54" x="8.99" y="251.58" width="8.99" height="44.93"/>
  <rect class="cls-30" x="17.97" y="251.58" width="26.96" height="8.99"/>
  <rect class="cls-30" x="125.79" y="251.58" width="8.99" height="8.99"/>
  <rect class="cls-23" x="134.77" y="251.58" width="8.99" height="8.99"/>
  <polygon class="cls-41" points="170.72 260.56 170.72 269.55 143.76 269.55 143.76 251.58 152.75 251.58 152.75 260.56 170.72 260.56"/>
  <rect class="cls-30" x="188.69" y="251.58" width="8.97" height="8.99"/>
  <rect class="cls-57" x="206.65" y="251.58" width="8.99" height="8.99"/>
  <rect class="cls-57" x="215.63" y="251.58" width="8.99" height="8.99"/>
  <rect class="cls-30" x="8.99" y="242.59" width="8.99" height="8.99"/>
  <rect class="cls-23" x="17.97" y="242.59" width="8.99" height="8.99"/>
  <rect class="cls-6" x="26.96" y="242.59" width="17.97" height="8.99"/>
  <rect class="cls-54" x="44.93" y="242.59" width="71.87" height="8.99"/>
  <polygon class="cls-62" points="188.69 251.58 188.69 260.56 170.72 260.56 170.72 242.59 179.7 242.59 179.7 251.58 188.69 251.58"/>
  <polygon class="cls-54" points="233.6 242.59 233.6 296.51 224.62 296.51 224.62 251.58 206.65 251.58 206.65 242.59 233.6 242.59"/>
  <rect class="cls-23" x="8.99" y="233.6" width="8.99" height="8.99"/>
  <rect class="cls-6" x="17.97" y="233.6" width="8.99" height="8.99"/>
  <polygon class="cls-39" points="53.92 224.62 53.92 242.59 26.96 242.59 26.96 233.6 35.94 233.6 35.94 224.62 53.92 224.62"/>
  <rect class="cls-35" x="53.92" y="233.6" width="8.99" height="8.99"/>
  <rect class="cls-43" x="62.9" y="233.6" width="8.97" height="8.99"/>
  <rect class="cls-43" x="80.86" y="233.6" width="8.99" height="8.99"/>
  <rect class="cls-43" x="98.83" y="233.6" width="8.99" height="8.99"/>
  <polygon class="cls-30" points="44.93 206.65 44.93 215.63 35.94 215.63 35.94 224.62 26.96 224.62 26.96 233.6 17.97 233.6 17.97 206.65 26.96 206.65 26.96 197.66 35.94 197.66 35.94 206.65 44.93 206.65"/>
  <rect class="cls-32" x="26.96" y="224.62" width="8.99" height="8.99"/>
  <rect class="cls-20" x="53.92" y="224.62" width="8.99" height="8.99"/>
  <rect class="cls-11" x="80.86" y="224.62" width="8.99" height="8.99"/>
  <rect class="cls-35" x="89.84" y="224.62" width="8.99" height="17.97"/>
  <rect class="cls-11" x="98.83" y="224.62" width="8.99" height="8.99"/>
  <rect class="cls-35" x="107.82" y="224.62" width="8.99" height="17.97"/>
  <rect class="cls-37" x="116.8" y="224.62" width="8.99" height="26.96"/>
  <polygon class="cls-31" points="233.6 233.6 233.6 242.59 206.65 242.59 206.65 260.56 197.66 260.56 197.66 224.62 206.65 224.62 206.65 233.6 233.6 233.6"/>
  <rect class="cls-52" x="206.65" y="224.62" width="8.99" height="8.99"/>
  <rect class="cls-34" x="215.63" y="224.62" width="8.99" height="8.99"/>
  <rect class="cls-28" x="224.62" y="224.62" width="8.99" height="8.99"/>
  <rect class="cls-12" x="233.6" y="224.62" width="8.99" height="8.99"/>
  <rect class="cls-32" x="35.94" y="215.63" width="8.99" height="8.99"/>
  <rect class="cls-63" x="53.92" y="215.63" width="8.99" height="8.99"/>
  <polygon class="cls-35" points="80.86 224.62 80.86 242.59 71.87 242.59 71.87 233.6 62.9 233.6 62.9 215.63 71.87 215.63 71.87 224.62 80.86 224.62"/>
  <rect class="cls-23" x="71.87" y="215.63" width="17.97" height="8.99"/>
  <rect class="cls-7" x="89.84" y="215.63" width="17.97" height="8.99"/>
  <polygon class="cls-7" points="125.79 206.65 125.79 215.63 116.8 215.63 116.8 224.62 107.82 224.62 107.82 206.65 125.79 206.65"/>
  <rect class="cls-53" x="116.8" y="215.63" width="8.99" height="8.99"/>
  <rect class="cls-8" x="125.79" y="215.63" width="8.99" height="35.94"/>
  <rect class="cls-5" x="134.77" y="215.63" width="8.99" height="35.94"/>
  <polygon class="cls-14" points="188.69 233.6 188.69 251.58 179.7 251.58 179.7 242.59 170.72 242.59 170.72 260.56 152.75 260.56 152.75 251.58 143.76 251.58 143.76 215.63 170.72 215.63 170.72 224.62 179.7 224.62 179.7 233.6 188.69 233.6"/>
  <rect class="cls-31" x="188.69" y="215.63" width="8.97" height="8.99"/>
  <rect class="cls-52" x="197.66" y="215.63" width="8.99" height="8.99"/>
  <rect class="cls-34" x="206.65" y="215.63" width="8.99" height="8.99"/>
  <rect class="cls-30" y="206.65" width="8.99" height="35.94"/>
  <rect class="cls-6" x="8.99" y="206.65" width="8.99" height="26.96"/>
  <rect class="cls-64" x="44.93" y="206.65" width="8.99" height="17.97"/>
  <rect class="cls-53" x="125.79" y="206.65" width="8.99" height="8.99"/>
  <rect class="cls-23" x="134.77" y="206.65" width="8.99" height="8.99"/>
  <rect class="cls-55" x="143.76" y="206.65" width="17.97" height="8.99"/>
  <polygon class="cls-64" points="197.66 224.62 197.66 251.58 188.69 251.58 188.69 233.6 179.7 233.6 179.7 224.62 170.72 224.62 170.72 215.63 161.73 215.63 161.73 206.65 179.7 206.65 179.7 215.63 188.69 215.63 188.69 224.62 197.66 224.62"/>
  <rect class="cls-30" x="206.65" y="206.65" width="8.99" height="8.99"/>
  <rect class="cls-56" x="215.63" y="206.65" width="8.99" height="8.99"/>
  <rect class="cls-30" x="8.99" y="197.66" width="8.99" height="8.99"/>
  <rect class="cls-6" x="17.97" y="197.66" width="8.99" height="8.99"/>
  <rect class="cls-64" x="35.94" y="197.66" width="8.99" height="8.99"/>
  <rect class="cls-9" x="44.93" y="197.66" width="8.99" height="8.99"/>
  <rect class="cls-23" x="62.9" y="197.66" width="8.97" height="17.97"/>
  <polygon class="cls-7" points="89.84 206.65 89.84 215.63 71.87 215.63 71.87 197.66 80.86 197.66 80.86 206.65 89.84 206.65"/>
  <rect class="cls-15" x="80.86" y="197.66" width="8.99" height="8.99"/>
  <rect class="cls-56" x="206.65" y="197.66" width="8.99" height="8.99"/>
  <rect class="cls-30" x="17.97" y="188.67" width="8.99" height="8.99"/>
  <polygon class="cls-35" points="62.9 170.72 62.9 215.63 53.92 215.63 53.92 197.66 26.96 197.66 26.96 188.67 53.92 188.67 53.92 170.72 62.9 170.72"/>
  <rect class="cls-15" x="89.84" y="188.67" width="8.99" height="8.99"/>
  <rect class="cls-3" x="161.73" y="188.67" width="8.99" height="17.97"/>
  <rect class="cls-28" x="233.6" y="188.67" width="8.99" height="35.94"/>
  <rect class="cls-12" x="242.59" y="188.67" width="8.99" height="35.94"/>
  <rect class="cls-63" x="188.69" y="179.69" width="8.97" height="35.94"/>
  <rect class="cls-6" x="224.62" y="179.69" width="8.99" height="8.99"/>
  <rect class="cls-12" x="233.6" y="179.69" width="8.99" height="8.99"/>
  <rect class="cls-7" x="62.9" y="170.72" width="8.97" height="26.94"/>
  <polygon class="cls-17" points="134.77 188.67 134.77 206.65 107.82 206.65 107.82 215.63 89.84 215.63 89.84 197.66 98.83 197.66 98.83 188.67 89.84 188.67 89.84 197.66 71.87 197.66 71.87 170.72 80.86 170.72 80.86 161.73 107.82 161.73 107.82 170.72 116.8 170.72 116.8 179.69 125.79 179.69 125.79 188.67 134.77 188.67"/>
  <rect class="cls-43" x="143.76" y="170.72" width="8.99" height="35.93"/>
  <rect class="cls-11" x="161.73" y="170.72" width="8.99" height="17.96"/>
  <polygon class="cls-24" points="188.69 179.69 188.69 215.63 179.7 215.63 179.7 206.65 170.72 206.65 170.72 170.72 179.7 170.72 179.7 179.69 188.69 179.69"/>
  <polygon class="cls-64" points="197.66 152.75 197.66 170.72 188.69 170.72 188.69 179.69 179.7 179.69 179.7 161.73 188.69 161.73 188.69 152.75 197.66 152.75"/>
  <rect class="cls-45" x="188.69" y="170.72" width="8.97" height="8.97"/>
  <rect class="cls-51" x="197.66" y="170.72" width="8.99" height="44.91"/>
  <polygon class="cls-30" points="233.6 188.67 233.6 224.62 215.63 224.62 215.63 215.63 224.62 215.63 224.62 206.65 215.63 206.65 215.63 197.66 206.65 197.66 206.65 170.72 224.62 170.72 224.62 188.67 233.6 188.67"/>
  <rect class="cls-31" x="224.62" y="170.72" width="8.99" height="8.97"/>
  <polygon class="cls-47" points="134.77 170.72 134.77 188.67 125.79 188.67 125.79 179.69 116.8 179.69 116.8 170.72 107.82 170.72 107.82 161.73 125.79 161.73 125.79 170.72 134.77 170.72"/>
  <rect class="cls-31" x="197.66" y="161.73" width="26.96" height="8.99"/>
  <rect class="cls-31" x="233.6" y="161.73" width="8.99" height="8.99"/>
  <rect class="cls-44" x="53.92" y="152.75" width="17.96" height="17.97"/>
  <polygon class="cls-42" points="89.84 152.75 89.84 161.73 80.86 161.73 80.86 170.72 71.87 170.72 71.87 152.75 89.84 152.75"/>
  <rect class="cls-47" x="89.84" y="152.75" width="17.97" height="8.99"/>
  <polygon class="cls-26" points="134.77 152.75 134.77 170.72 125.79 170.72 125.79 161.73 107.82 161.73 107.82 152.75 134.77 152.75"/>
  <rect class="cls-53" x="134.77" y="152.75" width="8.99" height="53.9"/>
  <polygon class="cls-33" points="188.69 152.75 188.69 161.73 179.7 161.73 179.7 170.72 170.72 170.72 170.72 152.75 188.69 152.75"/>
  <polygon class="cls-30" points="233.6 134.77 233.6 170.72 224.62 170.72 224.62 161.73 197.66 161.73 197.66 152.75 206.65 152.75 206.65 143.76 215.63 143.76 215.63 125.79 224.62 125.79 224.62 134.77 233.6 134.77"/>
  <rect class="cls-36" x="26.96" y="143.76" width="26.96" height="8.99"/>
  <rect class="cls-65" x="71.87" y="143.76" width="8.99" height="8.99"/>
  <polygon class="cls-11" points="152.75 143.76 152.75 170.72 143.76 170.72 143.76 152.75 134.77 152.75 134.77 143.76 152.75 143.76"/>
  <polygon class="cls-31" points="188.69 143.76 188.69 152.75 170.72 152.75 170.72 170.72 161.73 170.72 161.73 206.65 152.75 206.65 152.75 143.76 188.69 143.76"/>
  <rect class="cls-33" x="188.69" y="143.76" width="8.97" height="8.99"/>
</svg>