<?xml version="1.0" encoding="UTF-8"?>
<svg id="Calque_1" data-name="Calque 1" xmlns="http://www.w3.org/2000/svg" viewBox="0 0 572.53 198.18">
  <defs>
    <style>
      .cls-1 {
        fill: #ae7045;
      }

      .cls-2 {
        fill: #9d5f42;
      }

      .cls-3 {
        fill: #9d603e;
      }

      .cls-4 {
        fill: #e6b578;
      }

      .cls-5 {
        fill: #cb905c;
      }

      .cls-6 {
        fill: #823e33;
      }

      .cls-7 {
        fill: #9c603b;
      }

      .cls-8 {
        fill: #732f25;
      }

      .cls-9 {
        fill: #9d5f3e;
      }

      .cls-10 {
        fill: #c88e5d;
      }

      .cls-11 {
        fill: #e6b477;
      }

      .cls-12 {
        fill: #ae7047;
      }

      .cls-13 {
        fill: #9d603f;
      }

      .cls-14 {
        fill: #844132;
      }

      .cls-15 {
        fill: #e5b577;
      }

      .cls-16 {
        fill: #af7346;
      }

      .cls-17 {
        fill: #f3d093;
      }

      .cls-18 {
        fill: #ae6f49;
      }

      .cls-19 {
        fill: #c9915c;
      }

      .cls-20 {
        fill: #cb9060;
      }

      .cls-21 {
        fill: #a16342;
      }

      .cls-22 {
        fill: #ae704a;
      }

      .cls-23 {
        fill: #e6b47a;
      }

      .cls-24 {
        fill: #ac7244;
      }

      .cls-25 {
        fill: #9e5f3a;
      }
    </style>
  </defs>
  <rect class="cls-8" x="22" y="187.17" width="528.51" height="11.01"/>
  <rect class="cls-8" x="11.01" y="176.15" width="10.99" height="11.01"/>
  <rect class="cls-14" x="22" y="176.15" width="528.51" height="11.01"/>
  <rect class="cls-6" x="11.01" y="165.14" width="10.99" height="11.01"/>
  <rect class="cls-9" x="22" y="165.14" width="528.51" height="11.01"/>
  <rect class="cls-7" x="11.01" y="154.13" width="10.99" height="11.01"/>
  <rect class="cls-8" x="22" y="154.13" width="528.51" height="11.01"/>
  <rect class="cls-8" x="11.01" y="143.12" width="10.99" height="11.01"/>
  <rect class="cls-10" x="33.02" y="132.1" width="11.01" height="11.01"/>
  <rect class="cls-8" x="44.03" y="132.12" width="22.02" height="10.99"/>
  <polygon class="cls-10" points="99.09 132.12 99.09 143.11 66.05 143.11 66.05 132.12 77.06 132.12 77.06 110.1 88.07 110.1 88.07 132.12 99.09 132.12"/>
  <rect class="cls-8" x="99.09" y="132.12" width="22.02" height="10.99"/>
  <polygon class="cls-17" points="561.52 44.03 561.52 143.11 550.51 143.11 550.51 154.13 22 154.13 22 143.11 11.01 143.11 11.01 121.09 22 121.09 22 132.1 33.02 132.1 33.02 143.11 539.5 143.11 539.5 132.1 550.51 132.1 550.51 44.03 561.52 44.03"/>
  <polygon class="cls-8" points="99.09 99.09 99.09 132.1 88.07 132.1 88.07 110.1 77.06 110.1 77.06 132.1 66.05 132.1 66.05 99.09 99.09 99.09"/>
  <rect class="cls-8" x="198.17" y="121.11" width="11.01" height="11.01"/>
  <polygon class="cls-8" points="176.15 99.09 176.15 110.1 187.16 110.1 187.16 121.11 165.16 121.11 165.16 88.07 187.16 88.07 187.16 99.09 176.15 99.09"/>
  <rect class="cls-8" x="275.25" y="110.1" width="11.01" height="11.01"/>
  <rect class="cls-10" x="176.15" y="99.09" width="11.01" height="11.01"/>
  <rect class="cls-8" x="187.16" y="99.09" width="11.01" height="11.01"/>
  <polygon class="cls-12" points="209.18 88.07 209.18 121.11 198.17 121.11 198.17 99.09 187.16 99.09 187.16 88.07 209.18 88.07"/>
  <rect class="cls-23" x="209.18" y="88.07" width="11.01" height="33.04"/>
  <rect class="cls-12" x="176.15" y="77.06" width="11.01" height="11.01"/>
  <rect class="cls-23" x="187.16" y="77.06" width="22.02" height="11.01"/>
  <polygon class="cls-10" points="99.09 55.04 99.09 77.06 66.05 77.06 66.05 55.04 77.06 55.04 77.06 44.03 88.07 44.03 88.07 55.04 99.09 55.04"/>
  <rect class="cls-23" x="176.15" y="66.05" width="11.01" height="11.01"/>
  <polygon class="cls-19" points="253.23 132.12 253.23 143.11 198.17 143.11 198.17 132.12 209.18 132.12 209.18 121.11 220.2 121.11 220.2 88.07 209.18 88.07 209.18 77.06 187.16 77.06 187.16 66.05 209.18 66.05 209.18 55.04 220.2 55.04 220.2 33.02 242.22 33.02 242.22 132.12 253.23 132.12"/>
  <polygon class="cls-8" points="110.1 55.04 110.1 88.07 55.04 88.07 55.04 55.04 66.05 55.04 66.05 77.06 99.09 77.06 99.09 55.04 110.1 55.04"/>
  <rect class="cls-8" x="187.16" y="55.04" width="22.02" height="11.01"/>
  <rect class="cls-8" y="44.03" width="11.01" height="132.12"/>
  <rect class="cls-8" x="33.02" y="44.03" width="11.01" height="88.07"/>
  <polygon class="cls-8" points="99.09 33.02 99.09 55.04 88.07 55.04 88.07 44.03 77.06 44.03 77.06 55.04 66.05 55.04 66.05 33.02 99.09 33.02"/>
  <rect class="cls-1" x="110.1" y="44.03" width="11.01" height="88.07"/>
  <rect class="cls-11" x="121.11" y="44.03" width="11.01" height="88.07"/>
  <rect class="cls-3" x="187.16" y="44.03" width="11.01" height="11.01"/>
  <rect class="cls-8" x="11.01" y="33.02" width="10.99" height="11.01"/>
  <polygon class="cls-19" points="44.03 33.02 44.03 44.03 33.02 44.03 33.02 132.1 22 132.1 22 121.09 11.01 121.09 11.01 44.03 22 44.03 22 33.02 44.03 33.02"/>
  <rect class="cls-3" x="99.09" y="33.02" width="11.01" height="22.02"/>
  <polygon class="cls-5" points="143.13 33.02 143.13 143.11 121.11 143.11 121.11 132.12 132.12 132.12 132.12 44.03 121.11 44.03 121.11 33.02 143.13 33.02"/>
  <rect class="cls-10" x="176.15" y="33.02" width="11.01" height="11.01"/>
  <rect class="cls-8" x="187.16" y="33.02" width="11.01" height="11.01"/>
  <polygon class="cls-19" points="363.33 132.12 363.33 143.11 308.29 143.11 308.29 132.12 319.3 132.12 319.3 33.02 341.31 33.02 341.31 121.11 352.32 121.11 352.32 132.12 363.33 132.12"/>
  <polygon class="cls-9" points="110.1 88.07 110.1 132.1 99.09 132.1 99.09 99.09 66.05 99.09 66.05 132.1 44.03 132.1 44.03 44.03 55.04 44.03 55.04 22 99.09 22 99.09 33.02 66.05 33.02 66.05 55.04 55.04 55.04 55.04 88.07 110.1 88.07"/>
  <polygon class="cls-8" points="198.17 132.12 198.17 143.11 143.13 143.11 143.13 33.02 121.11 33.02 121.11 22 143.13 22 143.13 0 154.15 0 154.15 132.12 198.17 132.12"/>
  <polygon class="cls-3" points="198.17 110.1 198.17 132.1 154.15 132.1 154.15 22 165.16 22 165.16 55.04 187.16 55.04 187.16 66.05 176.15 66.05 176.15 88.07 165.16 88.07 165.16 121.11 187.16 121.11 187.16 110.1 198.17 110.1"/>
  <polygon class="cls-8" points="176.15 33.02 176.15 44.03 187.16 44.03 187.16 55.04 165.16 55.04 165.16 22 187.16 22 187.16 33.02 176.15 33.02"/>
  <rect class="cls-23" x="209.18" y="22" width="11.01" height="33.04"/>
  <polygon class="cls-8" points="319.3 110.1 319.3 132.1 308.29 132.1 308.29 143.11 253.23 143.11 253.23 132.1 242.22 132.1 242.22 33.02 220.2 33.02 220.2 22 242.22 22 242.22 10.99 253.23 10.99 253.23 121.11 264.24 121.11 264.24 132.12 297.28 132.12 297.28 121.11 308.29 121.11 308.29 110.1 319.3 110.1"/>
  <polygon class="cls-3" points="308.29 77.06 308.29 121.11 297.28 121.11 297.28 132.1 264.24 132.1 264.24 121.11 253.23 121.11 253.23 22 264.24 22 264.24 110.1 275.25 110.1 275.25 121.11 286.27 121.11 286.27 110.1 297.28 110.1 297.28 77.06 308.29 77.06"/>
  <rect class="cls-8" x="264.24" y="22" width="11.01" height="88.09"/>
  <rect class="cls-20" x="275.25" y="22" width="11.01" height="88.09"/>
  <rect class="cls-8" x="286.27" y="22" width="11.01" height="88.09"/>
  <polygon class="cls-8" points="352.32 0 352.32 121.11 341.31 121.11 341.31 33.02 319.3 33.02 319.3 22 341.31 22 341.31 0 352.32 0"/>
  <polygon class="cls-8" points="55.04 10.99 55.04 44.03 44.03 44.03 44.03 33.02 22 33.02 22 22 44.03 22 44.03 10.99 55.04 10.99"/>
  <polygon class="cls-1" points="110.1 10.99 110.1 33.02 99.09 33.02 99.09 22 55.04 22 55.04 10.99 110.1 10.99"/>
  <rect class="cls-11" x="110.1" y="10.99" width="11.01" height="33.04"/>
  <rect class="cls-23" x="198.17" y="10.99" width="11.01" height="11.01"/>
  <rect class="cls-22" x="253.23" y="10.99" width="22.02" height="11.01"/>
  <rect class="cls-8" x="275.25" y="10.99" width="11.01" height="11.01"/>
  <polygon class="cls-1" points="308.29 10.99 308.29 77.06 297.28 77.06 297.28 22 286.27 22 286.27 10.99 308.29 10.99"/>
  <rect class="cls-4" x="308.29" y="10.99" width="11.01" height="99.11"/>
  <rect class="cls-11" x="55.04" width="55.06" height="10.99"/>
  <polygon class="cls-1" points="209.18 22 209.18 55.04 198.17 55.04 198.17 33.02 187.16 33.02 187.16 22 154.15 22 154.15 0 165.16 0 165.16 10.99 198.17 10.99 198.17 22 209.18 22"/>
  <rect class="cls-23" x="165.16" width="33.02" height="10.99"/>
  <rect class="cls-4" x="253.23" width="55.06" height="10.99"/>
  <rect class="cls-8" x="550.51" y="176.15" width="11.01" height="11.01"/>
  <rect class="cls-14" x="550.51" y="165.14" width="11.01" height="11.01"/>
  <rect class="cls-8" x="561.52" y="165.14" width="11.01" height="11.01"/>
  <rect class="cls-21" x="550.51" y="154.13" width="11.01" height="11.01"/>
  <rect class="cls-8" x="561.52" y="44.03" width="11.01" height="121.11"/>
  <rect class="cls-8" x="550.51" y="143.12" width="11.01" height="11.01"/>
  <rect class="cls-8" x="363.33" y="132.12" width="44.05" height="10.99"/>
  <rect class="cls-8" x="473.45" y="132.12" width="22" height="10.99"/>
  <rect class="cls-8" x="352.32" y="121.11" width="11.01" height="11.01"/>
  <rect class="cls-13" x="363.33" y="121.11" width="33.04" height="10.99"/>
  <rect class="cls-18" x="396.36" y="121.11" width="11.01" height="11.01"/>
  <rect class="cls-8" x="407.38" y="121.11" width="11.01" height="11.01"/>
  <rect class="cls-16" x="363.33" y="110.1" width="11.01" height="11.01"/>
  <rect class="cls-15" x="374.34" y="110.1" width="11.01" height="11.01"/>
  <rect class="cls-8" x="385.35" y="110.1" width="11.01" height="11.01"/>
  <rect class="cls-2" x="396.36" y="110.1" width="11.01" height="11.01"/>
  <rect class="cls-8" x="418.39" y="110.1" width="11.01" height="11.01"/>
  <rect class="cls-15" x="484.44" y="44.03" width="11.01" height="88.07"/>
  <rect class="cls-19" x="374.34" y="33.02" width="22.02" height="77.08"/>
  <polygon class="cls-19" points="473.45 132.12 473.45 143.11 407.38 143.11 407.38 132.12 418.39 132.12 418.39 121.11 429.4 121.11 429.4 33.02 451.42 33.02 451.42 44.03 462.44 44.03 462.44 132.12 473.45 132.12"/>
  <polygon class="cls-8" points="473.45 33.02 473.45 132.1 462.44 132.1 462.44 44.03 451.42 44.03 451.42 33.02 473.45 33.02"/>
  <polygon class="cls-8" points="517.47 33.02 517.47 44.03 506.46 44.03 506.46 121.11 495.45 121.11 495.45 33.02 517.47 33.02"/>
  <polygon class="cls-19" points="550.51 33.02 550.51 132.1 539.5 132.1 539.5 143.11 495.45 143.11 495.45 121.11 506.46 121.11 506.46 44.03 517.47 44.03 517.47 33.02 550.51 33.02"/>
  <rect class="cls-8" x="550.51" y="33.02" width="11.01" height="11.01"/>
  <polygon class="cls-8" points="407.38 0 407.38 110.1 396.36 110.1 396.36 33.02 374.34 33.02 374.34 22 396.36 22 396.36 0 407.38 0"/>
  <polygon class="cls-8" points="451.42 10.99 451.42 33.02 429.4 33.02 429.4 22 440.41 22 440.41 10.99 451.42 10.99"/>
  <polygon class="cls-3" points="506.46 22 506.46 33.02 495.45 33.02 495.45 44.03 484.44 44.03 484.44 132.1 473.45 132.1 473.45 33.02 451.42 33.02 451.42 22 506.46 22"/>
  <rect class="cls-8" x="517.47" y="22" width="33.04" height="11.01"/>
  <polygon class="cls-1" points="517.47 10.99 517.47 33.02 506.46 33.02 506.46 22 451.42 22 451.42 10.99 517.47 10.99"/>
  <rect class="cls-15" x="517.47" y="10.99" width="11.01" height="11.01"/>
  <rect class="cls-25" x="352.32" width="11.01" height="121.11"/>
  <rect class="cls-4" x="363.33" width="11.01" height="110.1"/>
  <rect class="cls-24" x="407.38" width="11.01" height="121.11"/>
  <rect class="cls-15" x="418.39" width="11.01" height="110.1"/>
  <rect class="cls-15" x="451.42" width="66.05" height="10.99"/>
</svg>