<?xml version="1.0" encoding="UTF-8"?>
<svg id="Calque_1" data-name="Calque 1" xmlns="http://www.w3.org/2000/svg" viewBox="0 0 294.8 102.05">
  <defs>
    <style>
      .cls-1 {
        fill: #9d5f42;
      }

      .cls-2 {
        fill: #9d603e;
      }

      .cls-3 {
        fill: #ae6f48;
      }

      .cls-4 {
        fill: #ae7144;
      }

      .cls-5 {
        fill: #824030;
      }

      .cls-6 {
        fill: #723023;
      }

      .cls-7 {
        fill: #9e5e3d;
      }

      .cls-8 {
        fill: #804030;
      }

      .cls-9 {
        fill: #e9b276;
      }

      .cls-10 {
        fill: #af7048;
      }

      .cls-11 {
        fill: #f3cf94;
      }

      .cls-12 {
        fill: #c9915c;
      }

      .cls-13 {
        fill: #823f32;
      }

      .cls-14 {
        fill: #722f26;
      }

      .cls-15 {
        fill: #e6b47a;
      }

      .cls-16 {
        fill: #ac7244;
      }
    </style>
  </defs>
  <g>
    <rect class="cls-14" x="11.34" y="96.38" width="272.13" height="5.67"/>
    <rect class="cls-14" x="5.67" y="90.71" width="5.67" height="5.67"/>
    <rect class="cls-5" x="11.34" y="90.71" width="272.13" height="5.67"/>
    <rect class="cls-5" x="5.67" y="85.04" width="5.67" height="5.67"/>
    <rect class="cls-2" x="11.34" y="85.04" width="272.13" height="5.67"/>
    <rect class="cls-2" x="5.67" y="79.37" width="5.67" height="5.67"/>
    <rect class="cls-14" x="11.34" y="79.37" width="272.13" height="5.67"/>
    <rect class="cls-14" x="5.67" y="73.7" width="5.67" height="5.67"/>
    <polygon class="cls-14" points="56.69 68.03 56.69 73.7 28.35 73.7 28.35 68.03 22.68 68.03 22.68 56.69 28.35 56.69 28.35 62.36 34.02 62.36 34.02 68.03 56.69 68.03"/>
    <rect class="cls-14" x="90.71" y="68.03" width="11.34" height="5.67"/>
    <polygon class="cls-11" points="289.14 22.68 289.14 73.7 283.47 73.7 283.47 79.37 11.34 79.37 11.34 73.7 5.67 73.7 5.67 62.36 11.34 62.36 11.34 68.03 17.01 68.03 17.01 73.7 277.8 73.7 277.8 68.03 283.47 68.03 283.47 22.68 289.14 22.68"/>
    <rect class="cls-14" x="56.69" y="62.36" width="5.67" height="5.67"/>
    <polygon class="cls-7" points="51.02 22.68 51.02 17.01 39.69 17.01 39.69 28.35 45.36 28.35 45.36 34.02 51.02 34.02 51.02 39.69 56.69 39.69 56.69 56.69 62.36 56.69 62.36 62.36 56.69 62.36 56.69 68.03 34.02 68.03 34.02 62.36 28.35 62.36 28.35 56.69 45.36 56.69 45.36 45.35 39.69 45.35 39.69 39.69 34.02 39.69 34.02 34.02 28.35 34.02 28.35 11.34 56.69 11.34 56.69 17.01 62.36 17.01 62.36 22.68 51.02 22.68"/>
    <rect class="cls-14" x="62.36" y="56.69" width="5.67" height="5.67"/>
    <polygon class="cls-14" points="45.36 45.35 45.36 56.69 28.35 56.69 28.35 51.02 39.69 51.02 39.69 45.35 45.36 45.35"/>
    <rect class="cls-14" x="34.02" y="39.69" width="5.67" height="5.66"/>
    <rect class="cls-15" x="56.69" y="39.69" width="5.67" height="17"/>
    <rect class="cls-8" x="62.36" y="39.69" width="5.67" height="17"/>
    <rect class="cls-14" x="28.35" y="34.02" width="5.67" height="5.67"/>
    <rect class="cls-15" x="51.02" y="34.02" width="5.67" height="5.67"/>
    <rect class="cls-8" x="56.69" y="34.02" width="5.67" height="5.67"/>
    <rect class="cls-15" x="45.36" y="28.35" width="5.66" height="5.67"/>
    <rect class="cls-8" x="51.02" y="28.35" width="5.67" height="5.67"/>
    <rect class="cls-14" y="22.68" width="5.67" height="68.03"/>
    <rect class="cls-15" x="39.69" y="22.68" width="5.67" height="5.67"/>
    <rect class="cls-8" x="45.36" y="22.68" width="5.66" height="5.67"/>
    <rect class="cls-14" x="51.02" y="22.68" width="11.34" height="5.67"/>
    <rect class="cls-8" x="62.36" y="22.68" width="5.67" height="5.67"/>
    <rect class="cls-4" x="96.38" y="22.68" width="5.67" height="45.35"/>
    <rect class="cls-15" x="102.05" y="22.68" width="5.67" height="45.35"/>
    <polygon class="cls-12" points="119.06 22.68 119.06 68.03 124.73 68.03 124.73 73.7 102.05 73.7 102.05 68.03 107.72 68.03 107.72 22.68 113.39 22.68 113.39 17.01 124.73 17.01 124.73 22.68 119.06 22.68"/>
    <rect class="cls-14" x="119.06" y="22.68" width="5.67" height="45.35"/>
    <rect class="cls-14" x="5.67" y="17.01" width="5.67" height="5.67"/>
    <polygon class="cls-12" points="39.69 45.35 39.69 51.02 28.35 51.02 28.35 56.69 22.68 56.69 22.68 68.03 28.35 68.03 28.35 73.7 17.01 73.7 17.01 68.03 11.34 68.03 11.34 62.36 5.67 62.36 5.67 22.68 11.34 22.68 11.34 17.01 22.68 17.01 22.68 34.02 28.35 34.02 28.35 39.69 34.02 39.69 34.02 45.35 39.69 45.35"/>
    <rect class="cls-13" x="39.69" y="17.01" width="5.67" height="5.67"/>
    <rect class="cls-14" x="45.36" y="17.01" width="5.66" height="5.67"/>
    <polygon class="cls-12" points="90.71 68.03 90.71 73.7 56.69 73.7 56.69 68.03 62.36 68.03 62.36 62.36 68.03 62.36 68.03 39.69 62.36 39.69 62.36 34.02 56.69 34.02 56.69 28.35 68.03 28.35 68.03 17.01 79.37 17.01 79.37 22.68 85.04 22.68 85.04 68.03 90.71 68.03"/>
    <polygon class="cls-14" points="90.71 17.01 90.71 68.03 85.04 68.03 85.04 22.68 79.37 22.68 79.37 17.01 90.71 17.01"/>
    <rect class="cls-14" x="102.05" y="17.01" width="5.67" height="5.67"/>
    <rect class="cls-14" x="107.72" y="17.01" width="5.67" height="5.67"/>
    <polygon class="cls-14" points="28.35 11.34 28.35 34.02 22.68 34.02 22.68 17.01 11.34 17.01 11.34 11.34 28.35 11.34"/>
    <rect class="cls-4" x="56.69" y="11.34" width="5.67" height="5.67"/>
    <rect class="cls-15" x="62.36" y="11.34" width="5.67" height="11.34"/>
    <polygon class="cls-14" points="79.37 5.67 79.37 17.01 68.03 17.01 68.03 11.34 73.7 11.34 73.7 5.67 79.37 5.67"/>
    <polygon class="cls-7" points="107.72 11.34 107.72 17.01 102.05 17.01 102.05 22.68 96.38 22.68 96.38 68.03 90.71 68.03 90.71 17.01 79.37 17.01 79.37 11.34 107.72 11.34"/>
    <polygon class="cls-14" points="130.39 5.67 130.39 22.68 124.73 22.68 124.73 17.01 113.39 17.01 113.39 11.34 124.73 11.34 124.73 5.67 130.39 5.67"/>
    <rect class="cls-6" x="28.35" y="5.67" width="5.67" height="5.67"/>
    <rect class="cls-4" x="34.02" y="5.67" width="22.67" height="5.67"/>
    <rect class="cls-15" x="56.69" y="5.67" width="5.67" height="5.67"/>
    <polygon class="cls-4" points="113.39 5.67 113.39 17.01 107.72 17.01 107.72 11.34 79.37 11.34 79.37 5.67 113.39 5.67"/>
    <rect class="cls-15" x="113.39" y="5.67" width="5.67" height="5.67"/>
    <rect class="cls-15" x="34.02" width="22.67" height="5.67"/>
    <rect class="cls-15" x="79.37" width="34.02" height="5.67"/>
  </g>
  <g>
    <rect class="cls-14" x="283.47" y="90.71" width="5.67" height="5.67"/>
    <rect class="cls-5" x="283.47" y="85.04" width="5.67" height="5.67"/>
    <rect class="cls-14" x="289.14" y="85.04" width="5.66" height="5.67"/>
    <rect class="cls-2" x="283.47" y="79.37" width="5.67" height="5.67"/>
    <rect class="cls-14" x="124.73" y="68.03" width="11.33" height="5.67"/>
    <polygon class="cls-12" points="153.07 68.03 153.07 73.7 136.06 73.7 136.06 68.03 141.73 68.03 141.73 56.69 147.4 56.69 147.4 68.03 153.07 68.03"/>
    <rect class="cls-14" x="153.07" y="68.03" width="11.34" height="5.67"/>
    <rect class="cls-14" x="204.1" y="68.03" width="17" height="5.67"/>
    <rect class="cls-14" x="243.78" y="68.03" width="11.34" height="5.67"/>
    <polygon class="cls-14" points="153.07 51.02 153.07 68.03 147.4 68.03 147.4 56.69 141.73 56.69 141.73 68.03 136.06 68.03 136.06 51.02 153.07 51.02"/>
    <polygon class="cls-12" points="204.1 68.03 204.1 73.7 192.76 73.7 192.76 62.36 198.43 62.36 198.43 68.03 204.1 68.03"/>
    <rect class="cls-14" x="198.43" y="62.36" width="5.67" height="5.67"/>
    <rect class="cls-7" x="204.1" y="62.36" width="5.67" height="5.67"/>
    <rect class="cls-16" x="209.77" y="62.36" width="5.66" height="5.67"/>
    <rect class="cls-15" x="215.43" y="62.36" width="5.67" height="5.67"/>
    <rect class="cls-14" x="192.76" y="56.69" width="5.67" height="5.67"/>
    <rect class="cls-7" x="198.43" y="56.69" width="5.67" height="5.67"/>
    <rect class="cls-16" x="204.1" y="56.69" width="5.67" height="5.67"/>
    <rect class="cls-15" x="209.77" y="56.69" width="5.66" height="5.67"/>
    <rect class="cls-16" x="198.43" y="51.02" width="5.67" height="5.67"/>
    <rect class="cls-15" x="204.1" y="51.02" width="5.67" height="5.67"/>
    <rect class="cls-16" x="192.76" y="45.35" width="5.67" height="5.67"/>
    <rect class="cls-15" x="198.43" y="45.35" width="5.67" height="5.67"/>
    <polygon class="cls-12" points="243.78 68.03 243.78 73.7 221.1 73.7 221.1 62.36 215.43 62.36 215.43 56.69 209.77 56.69 209.77 51.02 204.1 51.02 204.1 45.35 209.77 45.35 209.77 39.69 215.43 39.69 215.43 34.02 221.1 34.02 221.1 17.01 232.44 17.01 232.44 22.68 238.11 22.68 238.11 68.03 243.78 68.03"/>
    <rect class="cls-14" x="192.76" y="39.69" width="17.01" height="5.66"/>
    <rect class="cls-14" x="209.77" y="34.02" width="5.66" height="5.67"/>
    <polygon class="cls-14" points="158.74 28.35 158.74 45.35 130.39 45.35 130.39 28.35 136.06 28.35 136.06 39.69 153.07 39.69 153.07 28.35 158.74 28.35"/>
    <polygon class="cls-12" points="153.07 28.35 153.07 39.69 136.06 39.69 136.06 28.35 141.73 28.35 141.73 22.68 147.4 22.68 147.4 28.35 153.07 28.35"/>
    <rect class="cls-14" x="192.76" y="28.35" width="11.34" height="5.67"/>
    <polygon class="cls-14" points="153.07 17.01 153.07 28.35 147.4 28.35 147.4 22.68 141.73 22.68 141.73 28.35 136.06 28.35 136.06 17.01 153.07 17.01"/>
    <rect class="cls-4" x="158.74" y="22.68" width="5.67" height="45.35"/>
    <rect class="cls-15" x="164.41" y="22.68" width="5.67" height="45.35"/>
    <rect class="cls-15" x="249.45" y="22.68" width="5.67" height="45.35"/>
    <polygon class="cls-14" points="294.8 22.68 294.8 85.04 289.14 85.04 289.14 79.37 283.47 79.37 283.47 73.7 289.14 73.7 289.14 22.68 294.8 22.68"/>
    <rect class="cls-2" x="153.07" y="17.01" width="5.67" height="11.34"/>
    <polygon class="cls-12" points="175.75 17.01 175.75 73.7 164.41 73.7 164.41 68.03 170.08 68.03 170.08 22.68 164.41 22.68 164.41 17.01 175.75 17.01"/>
    <rect class="cls-14" x="187.09" y="17.01" width="5.67" height="11.34"/>
    <rect class="cls-12" x="192.76" y="17.01" width="11.34" height="11.34"/>
    <rect class="cls-14" x="204.1" y="17.01" width="5.67" height="11.34"/>
    <rect class="cls-14" x="215.43" y="17.01" width="5.67" height="17.01"/>
    <polygon class="cls-14" points="243.78 17.01 243.78 68.03 238.11 68.03 238.11 22.68 232.44 22.68 232.44 17.01 243.78 17.01"/>
    <polygon class="cls-14" points="266.46 17.01 266.46 22.68 260.79 22.68 260.79 62.36 255.12 62.36 255.12 17.01 266.46 17.01"/>
    <polygon class="cls-12" points="283.47 17.01 283.47 68.03 277.8 68.03 277.8 73.7 255.12 73.7 255.12 62.36 260.79 62.36 260.79 22.68 266.46 22.68 266.46 17.01 283.47 17.01"/>
    <rect class="cls-14" x="283.47" y="17.01" width="5.67" height="5.67"/>
    <polygon class="cls-7" points="158.74 45.35 158.74 68.03 153.07 68.03 153.07 51.02 136.06 51.02 136.06 68.03 124.73 68.03 124.73 22.68 130.39 22.68 130.39 11.34 153.07 11.34 153.07 17.01 136.06 17.01 136.06 28.35 130.39 28.35 130.39 45.35 158.74 45.35"/>
    <polygon class="cls-14" points="192.76 68.03 192.76 73.7 175.75 73.7 175.75 17.01 164.41 17.01 164.41 11.34 175.75 11.34 175.75 0 181.42 0 181.42 68.03 192.76 68.03"/>
    <polygon class="cls-7" points="215.43 17.01 215.43 34.02 209.77 34.02 209.77 39.69 192.76 39.69 192.76 51.02 198.43 51.02 198.43 56.69 192.76 56.69 192.76 68.03 181.42 68.03 181.42 5.67 187.09 5.67 187.09 11.34 192.76 11.34 192.76 17.01 187.09 17.01 187.09 28.35 192.76 28.35 192.76 34.02 204.1 34.02 204.1 28.35 209.77 28.35 209.77 17.01 215.43 17.01"/>
    <rect class="cls-14" x="192.76" y="11.34" width="11.34" height="5.67"/>
    <rect class="cls-1" x="204.1" y="11.34" width="5.67" height="5.67"/>
    <rect class="cls-3" x="209.77" y="11.34" width="5.66" height="5.67"/>
    <rect class="cls-15" x="215.43" y="11.34" width="5.67" height="5.67"/>
    <polygon class="cls-14" points="232.44 5.67 232.44 17.01 221.1 17.01 221.1 11.34 226.77 11.34 226.77 5.67 232.44 5.67"/>
    <polygon class="cls-7" points="260.79 11.34 260.79 17.01 255.12 17.01 255.12 22.68 249.45 22.68 249.45 68.03 243.78 68.03 243.78 17.01 232.44 17.01 232.44 11.34 260.79 11.34"/>
    <rect class="cls-14" x="266.46" y="11.34" width="17.01" height="5.67"/>
    <polygon class="cls-4" points="158.74 5.67 158.74 17.01 153.07 17.01 153.07 11.34 130.39 11.34 130.39 5.67 158.74 5.67"/>
    <rect class="cls-15" x="158.74" y="5.67" width="5.67" height="17.01"/>
    <rect class="cls-4" x="187.09" y="5.67" width="22.68" height="5.67"/>
    <rect class="cls-15" x="209.77" y="5.67" width="5.66" height="5.67"/>
    <polygon class="cls-10" points="266.46 5.67 266.46 17.01 260.79 17.01 260.79 11.34 232.44 11.34 232.44 5.67 266.46 5.67"/>
    <rect class="cls-15" x="266.46" y="5.67" width="5.67" height="5.67"/>
    <rect class="cls-15" x="130.39" width="28.35" height="5.67"/>
    <rect class="cls-4" x="181.42" width="5.67" height="5.67"/>
    <rect class="cls-9" x="187.09" width="22.68" height="5.67"/>
    <rect class="cls-15" x="232.44" width="34.02" height="5.67"/>
  </g>
</svg>