<?xml version="1.0" encoding="UTF-8"?>
<svg id="Calque_1" data-name="Calque 1" xmlns="http://www.w3.org/2000/svg" viewBox="0 0 332.92 346.24">
  <defs>
    <style>
      .cls-1 {
        fill: #7a392b;
      }

      .cls-2 {
        fill: #c5d16b;
      }

      .cls-3 {
        fill: #ca8e58;
      }

      .cls-4 {
        fill: #2e7243;
      }

      .cls-5 {
        fill: #5d1f1a;
      }

      .cls-6 {
        fill: #77ae4b;
      }

      .cls-7 {
        fill: #7aac4f;
      }

      .cls-8 {
        fill: #a96e44;
      }

      .cls-9 {
        fill: #589c44;
      }

      .cls-10 {
        fill: #5f1f1a;
      }

      .cls-11 {
        fill: #398140;
      }

      .cls-12 {
        fill: #1f5441;
      }

      .cls-13 {
        fill: #c98d5a;
      }

      .cls-14 {
        fill: #397f43;
      }
    </style>
  </defs>
  <polygon class="cls-10" points="332.92 319.6 332.92 346.24 0 346.24 0 319.6 13.32 319.6 13.32 332.92 319.6 332.92 319.6 319.6 332.92 319.6"/>
  <polygon class="cls-1" points="319.6 306.28 319.6 332.92 13.32 332.92 13.32 306.28 26.64 306.28 26.64 319.6 53.27 319.6 53.27 306.28 66.59 306.28 66.59 319.6 106.53 319.6 106.53 306.28 119.84 306.28 119.84 319.6 159.8 319.6 159.8 292.96 173.12 292.96 173.12 319.6 213.08 319.6 213.08 226.39 226.39 226.39 226.39 319.6 266.35 319.6 266.35 279.67 279.65 279.67 279.65 319.6 306.28 319.6 306.28 306.28 319.6 306.28"/>
  <rect class="cls-13" x="26.64" y="306.28" width="26.64" height="13.32"/>
  <rect class="cls-13" x="66.59" y="306.28" width="39.93" height="13.32"/>
  <rect class="cls-13" x="119.84" y="306.28" width="39.96" height="13.32"/>
  <rect class="cls-13" x="173.12" y="306.28" width="39.96" height="13.32"/>
  <rect class="cls-13" x="226.39" y="306.28" width="39.96" height="13.32"/>
  <rect class="cls-13" x="279.65" y="306.28" width="26.64" height="13.32"/>
  <rect class="cls-10" x="26.64" y="292.96" width="13.32" height="13.32"/>
  <rect class="cls-2" x="53.27" y="292.96" width="26.64" height="13.32"/>
  <rect class="cls-2" x="173.12" y="292.96" width="26.64" height="13.32"/>
  <rect class="cls-8" x="199.76" y="292.96" width="13.32" height="13.32"/>
  <rect class="cls-10" x="26.64" y="279.67" width="13.32" height="13.3"/>
  <rect class="cls-1" x="53.27" y="279.67" width="13.32" height="13.3"/>
  <rect class="cls-8" x="66.59" y="279.67" width="13.32" height="13.3"/>
  <rect class="cls-8" x="119.84" y="279.67" width="13.32" height="26.61"/>
  <rect class="cls-8" x="239.71" y="279.67" width="26.64" height="26.61"/>
  <rect class="cls-10" x="26.64" y="266.35" width="13.32" height="13.32"/>
  <rect class="cls-10" x="26.64" y="253.03" width="13.32" height="13.32"/>
  <polygon class="cls-2" points="93.21 266.35 93.21 292.96 79.91 292.96 79.91 279.67 53.27 279.67 53.27 253.03 66.59 253.03 66.59 266.35 93.21 266.35"/>
  <rect class="cls-2" x="159.8" y="253.03" width="13.32" height="39.93"/>
  <rect class="cls-8" x="173.12" y="253.03" width="26.64" height="39.93"/>
  <rect class="cls-2" x="199.76" y="253.03" width="13.32" height="39.93"/>
  <rect class="cls-8" x="239.71" y="253.03" width="26.64" height="13.32"/>
  <rect class="cls-10" x="292.96" y="253.03" width="13.32" height="53.25"/>
  <rect class="cls-10" x="13.32" y="239.71" width="13.32" height="13.32"/>
  <rect class="cls-1" x="53.27" y="226.39" width="13.32" height="26.64"/>
  <rect class="cls-2" x="66.59" y="239.71" width="26.61" height="13.32"/>
  <polygon class="cls-2" points="146.48 239.71 146.48 306.28 133.16 306.28 133.16 279.67 119.84 279.67 119.84 306.28 106.53 306.28 106.53 239.71 119.84 239.71 119.84 266.35 133.16 266.35 133.16 239.71 146.48 239.71"/>
  <rect class="cls-2" x="173.12" y="239.71" width="26.64" height="13.32"/>
  <path class="cls-2" d="M226.39,239.71v66.57h13.32v-26.61h39.93v-39.96h-53.25ZM266.35,266.35h-26.64v-13.32h26.64v13.32Z"/>
  <rect class="cls-10" x="306.28" y="239.71" width="13.32" height="13.32"/>
  <rect class="cls-10" y="226.39" width="13.32" height="13.32"/>
  <polygon class="cls-8" points="53.27 226.39 53.27 306.28 39.96 306.28 39.96 253.03 26.64 253.03 26.64 239.71 13.32 239.71 13.32 226.39 53.27 226.39"/>
  <polygon class="cls-8" points="106.53 226.39 106.53 306.28 79.91 306.28 79.91 292.96 93.21 292.96 93.21 266.35 66.59 266.35 66.59 253.03 93.21 253.03 93.21 239.71 66.59 239.71 66.59 226.39 106.53 226.39"/>
  <rect class="cls-1" x="106.53" y="226.39" width="13.32" height="13.32"/>
  <polygon class="cls-8" points="159.8 226.39 159.8 306.28 146.48 306.28 146.48 239.71 133.16 239.71 133.16 266.35 119.84 266.35 119.84 226.39 159.8 226.39"/>
  <rect class="cls-1" x="159.8" y="226.39" width="13.32" height="26.64"/>
  <polygon class="cls-8" points="213.08 226.39 213.08 253.03 199.76 253.03 199.76 239.71 173.12 239.71 173.12 226.39 213.08 226.39"/>
  <rect class="cls-8" x="226.39" y="226.39" width="39.96" height="13.32"/>
  <rect class="cls-1" x="266.35" y="226.39" width="13.3" height="13.32"/>
  <polygon class="cls-8" points="319.6 226.39 319.6 239.71 306.28 239.71 306.28 253.03 292.96 253.03 292.96 306.28 279.65 306.28 279.65 226.39 319.6 226.39"/>
  <rect class="cls-10" x="319.6" y="226.39" width="13.32" height="13.32"/>
  <rect class="cls-10" y="213.08" width="332.92" height="13.32"/>
  <rect class="cls-8" x="13.32" y="199.76" width="306.28" height="13.32"/>
  <rect class="cls-1" y="186.44" width="13.32" height="26.64"/>
  <rect class="cls-13" x="13.32" y="186.44" width="39.96" height="13.32"/>
  <rect class="cls-13" x="93.21" y="186.44" width="146.51" height="13.32"/>
  <rect class="cls-3" x="279.65" y="186.44" width="39.96" height="13.32"/>
  <rect class="cls-1" x="319.6" y="186.44" width="13.32" height="26.64"/>
  <rect class="cls-1" x="79.91" y="133.16" width="13.3" height="66.59"/>
  <rect class="cls-5" x="239.71" y="133.16" width="13.32" height="66.59"/>
  <rect class="cls-12" x="26.64" y="119.84" width="26.64" height="13.32"/>
  <rect class="cls-10" x="53.27" y="119.84" width="13.32" height="79.91"/>
  <rect class="cls-8" x="66.59" y="119.84" width="13.32" height="79.91"/>
  <rect class="cls-4" x="79.91" y="119.84" width="26.61" height="13.32"/>
  <rect class="cls-12" x="133.16" y="119.84" width="66.59" height="13.32"/>
  <rect class="cls-4" x="226.39" y="119.84" width="26.64" height="13.32"/>
  <rect class="cls-8" x="253.03" y="119.84" width="13.32" height="79.91"/>
  <rect class="cls-1" x="266.35" y="119.84" width="13.3" height="79.91"/>
  <rect class="cls-12" x="279.65" y="119.84" width="26.64" height="13.32"/>
  <rect class="cls-12" x="13.32" y="106.53" width="13.32" height="13.32"/>
  <rect class="cls-12" x="53.27" y="106.53" width="13.32" height="13.32"/>
  <rect class="cls-4" x="66.59" y="106.53" width="13.32" height="13.32"/>
  <rect class="cls-4" x="106.53" y="106.53" width="13.32" height="13.32"/>
  <rect class="cls-12" x="119.84" y="106.53" width="13.32" height="13.32"/>
  <rect class="cls-12" x="199.76" y="106.53" width="13.32" height="13.32"/>
  <rect class="cls-4" x="213.08" y="106.53" width="13.32" height="13.32"/>
  <rect class="cls-4" x="253.03" y="106.53" width="13.32" height="13.32"/>
  <rect class="cls-12" x="266.35" y="106.53" width="13.3" height="13.32"/>
  <rect class="cls-12" x="306.28" y="106.53" width="13.32" height="13.32"/>
  <rect class="cls-12" x="319.6" y="79.91" width="13.32" height="26.61"/>
  <rect class="cls-12" y="79.91" width="13.32" height="26.61"/>
  <polygon class="cls-4" points="66.59 79.91 66.59 106.53 53.27 106.53 53.27 119.84 26.64 119.84 26.64 106.53 13.32 106.53 13.32 79.91 66.59 79.91"/>
  <polygon class="cls-6" points="119.84 79.91 119.84 106.53 106.53 106.53 106.53 119.84 79.91 119.84 79.91 106.53 66.59 106.53 66.59 79.91 119.84 79.91"/>
  <polygon class="cls-4" points="213.08 79.91 213.08 106.53 199.76 106.53 199.76 119.84 133.16 119.84 133.16 106.53 119.84 106.53 119.84 79.91 213.08 79.91"/>
  <polygon class="cls-6" points="266.35 79.91 266.35 106.53 253.03 106.53 253.03 119.84 226.39 119.84 226.39 106.53 213.08 106.53 213.08 79.91 266.35 79.91"/>
  <polygon class="cls-4" points="319.6 79.91 319.6 106.53 306.28 106.53 306.28 119.84 279.65 119.84 279.65 106.53 266.35 106.53 266.35 79.91 319.6 79.91"/>
  <rect class="cls-11" x="319.6" y="53.27" width="13.32" height="26.64"/>
  <rect class="cls-11" y="53.27" width="13.32" height="26.64"/>
  <rect class="cls-11" x="13.32" y="39.96" width="13.32" height="13.32"/>
  <rect class="cls-14" x="306.28" y="39.96" width="13.32" height="13.32"/>
  <rect class="cls-11" x="26.64" y="26.64" width="13.32" height="13.32"/>
  <rect class="cls-14" x="292.96" y="26.64" width="13.32" height="13.32"/>
  <rect class="cls-11" x="39.96" y="13.32" width="13.32" height="13.32"/>
  <polygon class="cls-9" points="93.21 13.32 93.21 39.96 79.91 39.96 79.91 66.59 66.59 66.59 66.59 79.91 13.32 79.91 13.32 53.27 26.64 53.27 26.64 39.96 39.96 39.96 39.96 26.64 53.27 26.64 53.27 13.32 93.21 13.32"/>
  <polygon class="cls-2" points="146.48 13.32 146.48 26.64 133.16 26.64 133.16 66.59 119.84 66.59 119.84 79.91 66.59 79.91 66.59 66.59 79.91 66.59 79.91 39.96 93.21 39.96 93.21 13.32 146.48 13.32"/>
  <polygon class="cls-9" points="213.08 66.59 213.08 79.91 119.84 79.91 119.84 66.59 133.16 66.59 133.16 26.64 146.48 26.64 146.48 13.32 186.44 13.32 186.44 26.64 199.76 26.64 199.76 66.59 213.08 66.59"/>
  <polygon class="cls-2" points="266.35 66.59 266.35 79.91 213.08 79.91 213.08 66.59 199.76 66.59 199.76 26.64 186.44 26.64 186.44 13.32 239.71 13.32 239.71 39.96 253.03 39.96 253.03 66.59 266.35 66.59"/>
  <polygon class="cls-9" points="319.6 53.27 319.6 79.91 266.35 79.91 266.35 66.59 253.03 66.59 253.03 39.96 239.71 39.96 239.71 13.32 279.65 13.32 279.65 26.64 292.96 26.64 292.96 39.96 306.28 39.96 306.28 53.27 319.6 53.27"/>
  <rect class="cls-14" x="279.65" y="13.32" width="13.32" height="13.32"/>
  <rect class="cls-14" x="53.27" width="39.93" height="13.32"/>
  <rect class="cls-6" x="93.21" width="53.27" height="13.32"/>
  <rect class="cls-14" x="146.48" width="39.96" height="13.32"/>
  <rect class="cls-7" x="186.44" width="53.27" height="13.32"/>
  <rect class="cls-14" x="239.71" width="39.93" height="13.32"/>
</svg>