<?xml version="1.0" encoding="UTF-8"?>
<svg id="Warstwa_1" data-name="Warstwa 1" xmlns="http://www.w3.org/2000/svg" viewBox="0 0 198.42 260.78">
  <defs>
    <style>
      .cls-1 {
        fill: #702f26;
      }

      .cls-2 {
        fill: #71a94a;
      }

      .cls-3 {
        fill: #3c7944;
      }

      .cls-4 {
        fill: #20523d;
      }

      .cls-5 {
        fill: #8f5234;
      }

      .cls-6 {
        fill: #6eab48;
      }

      .cls-7 {
        fill: #71a949;
      }

      .cls-8 {
        fill: #22513e;
      }

      .cls-9 {
        fill: #c7cb6b;
      }

      .cls-10 {
        fill: #1c543e;
      }

      .cls-11 {
        fill: #71aa49;
      }

      .cls-12 {
        fill: #1e523e;
      }

      .cls-13 {
        fill: #cacb68;
      }

      .cls-14 {
        fill: #173437;
      }

      .cls-15 {
        fill: #193529;
      }

      .cls-16 {
        fill: #1e523f;
      }

      .cls-17 {
        fill: #6cac4e;
      }

      .cls-18 {
        fill: #6daa46;
      }

      .cls-19 {
        fill: #c6cd65;
      }

      .cls-20 {
        fill: #bfd065;
      }

      .cls-21 {
        fill: #113a30;
      }

      .cls-22 {
        fill: #205340;
      }

      .cls-23 {
        fill: #307d44;
      }

      .cls-24 {
        fill: #327d42;
      }

      .cls-25 {
        fill: #ae7047;
      }

      .cls-26 {
        fill: #c0d069;
      }

      .cls-27 {
        fill: #bdd064;
      }

      .cls-28 {
        fill: #70ab48;
      }

      .cls-29 {
        fill: #70ab47;
      }

      .cls-30 {
        fill: #632b25;
      }

      .cls-31 {
        fill: #183334;
      }

      .cls-32 {
        fill: #c1cf67;
      }

      .cls-33 {
        fill: #1b543f;
      }

      .cls-34 {
        fill: #377b44;
      }

      .cls-35 {
        fill: #1d543f;
      }

      .cls-36 {
        fill: #62231d;
      }

      .cls-37 {
        fill: #1b543e;
      }

      .cls-38 {
        fill: #1e5145;
      }

      .cls-39 {
        fill: #ca915f;
      }

      .cls-40 {
        fill: #6eab47;
      }

      .cls-41 {
        fill: #3a7b44;
      }

      .cls-42 {
        fill: #214f43;
      }

      .cls-43 {
        fill: #bdd15d;
      }

      .cls-44 {
        fill: #6caa48;
      }

      .cls-45 {
        fill: #327d45;
      }

      .cls-46 {
        fill: #143434;
      }

      .cls-47 {
        fill: #4a7343;
      }

      .cls-48 {
        fill: #347c42;
      }

      .cls-49 {
        fill: #19543e;
      }

      .cls-50 {
        fill: #143830;
      }

      .cls-51 {
        fill: #307e42;
      }
    </style>
  </defs>
  <rect class="cls-46" x="0" y="90.7" width="5.67" height="5.67"/>
  <rect class="cls-46" x="0" y="73.7" width="5.67" height="5.67"/>
  <rect class="cls-46" x="0" y="62.36" width="5.67" height="5.67"/>
  <rect class="cls-46" x="5.67" y="56.69" width="5.67" height="51.02"/>
  <polygon class="cls-35" points="39.68 113.38 39.68 119.05 22.68 119.05 22.68 113.38 17.01 113.38 17.01 107.71 11.34 107.71 11.34 56.69 5.67 56.69 5.67 51.02 17.01 51.02 17.01 102.04 22.68 102.04 22.68 107.71 28.34 107.71 28.34 113.38 39.68 113.38"/>
  <rect class="cls-16" y="45.35" width="5.67" height="5.67"/>
  <polygon class="cls-41" points="22.68 45.35 22.68 102.04 17.01 102.04 17.01 51.02 11.34 51.02 11.34 45.35 22.68 45.35"/>
  <polygon class="cls-29" points="45.35 102.04 45.35 107.71 28.34 107.71 28.34 102.04 22.68 102.04 22.68 45.35 28.34 45.35 28.34 51.02 34.01 51.02 34.01 96.37 39.68 96.37 39.68 102.04 45.35 102.04"/>
  <rect class="cls-13" x="17.01" y="39.68" width="5.67" height="5.67"/>
  <rect class="cls-13" x="22.68" y="39.68" width="5.66" height="5.67"/>
  <rect class="cls-28" x="85.04" y="90.7" width="5.67" height="17.01"/>
  <rect class="cls-14" x="119.05" y="90.7" width="5.67" height="5.67"/>
  <rect class="cls-7" x="141.73" y="90.7" width="5.67" height="22.68"/>
  <rect class="cls-16" x="34.01" y="85.03" width="5.67" height="11.34"/>
  <rect class="cls-50" x="85.04" y="85.03" width="5.67" height="5.67"/>
  <rect class="cls-15" x="192.75" y="85.03" width="5.67" height="5.67"/>
  <rect class="cls-32" x="62.36" y="79.37" width="5.67" height="22.67"/>
  <rect class="cls-8" x="73.7" y="79.37" width="5.67" height="17"/>
  <rect class="cls-6" x="107.71" y="79.37" width="5.67" height="22.67"/>
  <rect class="cls-20" x="130.39" y="79.37" width="5.67" height="22.67"/>
  <rect class="cls-10" x="158.74" y="79.37" width="5.67" height="17"/>
  <rect class="cls-34" x="34.01" y="73.7" width="5.67" height="11.33"/>
  <rect class="cls-50" x="73.7" y="73.7" width="5.67" height="5.67"/>
  <rect class="cls-14" x="107.71" y="73.7" width="5.67" height="5.67"/>
  <rect class="cls-18" x="51.02" y="68.03" width="5.67" height="22.67"/>
  <rect class="cls-28" x="85.04" y="68.03" width="5.67" height="17"/>
  <rect class="cls-51" x="158.74" y="68.03" width="5.67" height="11.34"/>
  <rect class="cls-15" x="192.75" y="68.03" width="5.67" height="5.67"/>
  <rect class="cls-50" x="85.04" y="62.36" width="5.67" height="5.67"/>
  <rect class="cls-4" x="119.05" y="62.36" width="5.67" height="28.34"/>
  <rect class="cls-7" x="141.73" y="62.36" width="5.67" height="22.67"/>
  <rect class="cls-8" x="73.7" y="56.69" width="5.67" height="17.01"/>
  <rect class="cls-14" x="119.05" y="56.69" width="5.67" height="5.67"/>
  <rect class="cls-15" x="192.75" y="56.69" width="5.67" height="5.67"/>
  <rect class="cls-13" x="34.01" y="51.02" width="5.67" height="22.68"/>
  <rect class="cls-32" x="62.36" y="51.02" width="5.67" height="22.68"/>
  <rect class="cls-50" x="73.7" y="51.02" width="5.67" height="5.67"/>
  <rect class="cls-43" x="158.74" y="51.02" width="5.67" height="17.01"/>
  <rect class="cls-15" x="187.08" y="51.02" width="5.67" height="56.69"/>
  <rect class="cls-13" x="28.34" y="45.35" width="5.67" height="5.67"/>
  <rect class="cls-47" x="39.68" y="45.35" width="5.67" height="5.67"/>
  <rect class="cls-28" x="85.04" y="45.35" width="5.67" height="17.01"/>
  <rect class="cls-6" x="107.71" y="45.35" width="5.67" height="28.35"/>
  <rect class="cls-20" x="130.39" y="45.35" width="5.67" height="28.35"/>
  <rect class="cls-15" x="153.07" y="45.35" width="5.67" height="5.67"/>
  <rect class="cls-43" x="164.41" y="45.35" width="5.67" height="5.67"/>
  <rect class="cls-48" x="175.75" y="45.35" width="5.67" height="56.69"/>
  <rect class="cls-15" x="181.42" y="45.35" width="5.66" height="5.67"/>
  <rect class="cls-18" x="51.02" y="39.68" width="5.67" height="22.68"/>
  <rect class="cls-8" x="73.7" y="39.68" width="5.67" height="11.34"/>
  <rect class="cls-50" x="85.04" y="39.68" width="5.67" height="5.67"/>
  <rect class="cls-14" x="107.71" y="39.68" width="5.67" height="5.67"/>
  <rect class="cls-43" x="170.08" y="39.68" width="5.67" height="5.67"/>
  <rect class="cls-15" x="175.75" y="39.68" width="5.67" height="5.67"/>
  <rect class="cls-15" x="187.09" y="39.69" width="5.67" height="5.67"/>
  <rect class="cls-50" x="73.7" y="34.01" width="5.67" height="5.67"/>
  <rect class="cls-4" x="119.05" y="34.01" width="5.67" height="22.68"/>
  <rect class="cls-7" x="141.73" y="34.01" width="5.67" height="22.68"/>
  <rect class="cls-47" x="39.68" y="28.34" width="5.67" height="5.67"/>
  <rect class="cls-18" x="51.02" y="28.34" width="5.67" height="5.67"/>
  <rect class="cls-28" x="85.04" y="28.34" width="5.67" height="11.34"/>
  <rect class="cls-14" x="119.05" y="28.34" width="5.67" height="5.67"/>
  <rect class="cls-15" x="153.07" y="28.34" width="5.67" height="5.67"/>
  <rect class="cls-26" x="45.35" y="22.67" width="5.67" height="141.73"/>
  <rect class="cls-18" x="51.02" y="22.67" width="5.67" height="5.67"/>
  <polygon class="cls-49" points="62.36 51.02 62.36 73.7 68.03 73.7 68.03 79.37 62.36 79.37 62.36 102.04 68.03 102.04 68.03 107.71 62.36 107.71 62.36 136.06 68.03 136.06 68.03 141.73 62.36 141.73 62.36 164.4 56.69 164.4 56.69 158.74 51.02 158.74 51.02 153.07 56.69 153.07 56.69 124.72 51.02 124.72 51.02 119.05 56.69 119.05 56.69 96.37 51.02 96.37 51.02 90.7 56.69 90.7 56.69 68.03 51.02 68.03 51.02 62.36 56.69 62.36 56.69 39.68 51.02 39.68 51.02 34.01 56.69 34.01 56.69 22.67 62.36 22.67 62.36 45.35 68.03 45.35 68.03 51.02 62.36 51.02"/>
  <rect class="cls-50" x="85.04" y="22.67" width="5.67" height="5.67"/>
  <rect class="cls-6" x="107.71" y="22.67" width="5.67" height="17.01"/>
  <rect class="cls-4" x="119.05" y="22.67" width="5.67" height="5.67"/>
  <polygon class="cls-33" points="141.73 56.69 147.4 56.69 147.4 62.36 141.73 62.36 141.73 85.03 147.4 85.03 147.4 90.7 141.73 90.7 141.73 113.38 147.4 113.38 147.4 119.05 141.73 119.05 141.73 136.06 147.4 136.06 147.4 141.73 141.73 141.73 141.73 164.4 136.06 164.4 136.06 158.74 130.39 158.74 130.39 147.4 136.06 147.4 136.06 130.39 130.39 130.39 130.39 124.72 136.06 124.72 136.06 107.71 130.39 107.71 130.39 102.04 136.06 102.04 136.06 79.37 130.39 79.37 130.39 73.7 136.06 73.7 136.06 45.35 130.39 45.35 130.39 39.68 136.06 39.68 136.06 22.67 141.73 22.67 141.73 28.34 147.4 28.34 147.4 34.01 141.73 34.01 141.73 56.69"/>
  <rect class="cls-7" x="141.73" y="22.67" width="5.67" height="5.67"/>
  <polygon class="cls-15" points="175.75 119.05 175.75 124.72 153.07 124.72 153.07 164.4 147.4 164.4 147.4 22.67 153.07 22.67 153.07 119.05 175.75 119.05"/>
  <rect class="cls-26" x="51.02" y="17.01" width="5.67" height="5.67"/>
  <rect class="cls-51" x="56.69" y="17" width="5.67" height="5.67"/>
  <rect class="cls-32" x="62.36" y="17" width="5.67" height="28.35"/>
  <rect class="cls-17" x="68.03" y="17" width="5.67" height="147.4"/>
  <rect class="cls-8" x="73.7" y="17" width="5.67" height="17.01"/>
  <rect class="cls-14" x="107.71" y="17" width="5.67" height="5.67"/>
  <rect class="cls-14" x="119.05" y="17" width="5.67" height="5.67"/>
  <rect class="cls-11" x="124.72" y="17" width="5.67" height="147.4"/>
  <rect class="cls-20" x="130.39" y="17" width="5.67" height="22.68"/>
  <rect class="cls-3" x="136.06" y="17" width="5.67" height="5.67"/>
  <rect class="cls-15" x="141.73" y="17.01" width="5.67" height="5.67"/>
  <polygon class="cls-19" points="73.7 5.66 73.7 17 68.03 17 68.03 11.33 62.36 11.33 62.36 17 56.69 17 56.69 5.66 73.7 5.66"/>
  <rect class="cls-51" x="62.36" y="11.33" width="5.67" height="5.67"/>
  <rect class="cls-45" x="73.7" y="11.33" width="5.67" height="5.67"/>
  <rect class="cls-50" x="79.37" y="11.33" width="5.67" height="153.07"/>
  <rect class="cls-24" x="90.71" y="11.33" width="5.67" height="153.07"/>
  <rect class="cls-24" x="102.05" y="11.33" width="5.66" height="153.07"/>
  <rect class="cls-31" x="113.38" y="11.33" width="5.67" height="153.07"/>
  <rect class="cls-24" x="119.05" y="11.33" width="5.67" height="5.67"/>
  <rect class="cls-19" x="124.72" y="11.33" width="5.67" height="5.67"/>
  <rect class="cls-3" x="130.39" y="11.33" width="5.67" height="5.67"/>
  <rect class="cls-15" x="136.06" y="11.34" width="5.67" height="5.67"/>
  <rect class="cls-40" x="73.7" y="5.66" width="5.67" height="5.67"/>
  <rect class="cls-38" x="79.37" y="5.66" width="5.67" height="5.67"/>
  <rect class="cls-38" x="113.38" y="5.66" width="5.67" height="5.67"/>
  <rect class="cls-40" x="119.06" y="5.67" width="5.67" height="5.67"/>
  <rect class="cls-19" x="124.72" y="5.67" width="5.67" height="5.67"/>
  <rect class="cls-15" x="130.39" y="5.67" width="5.67" height="5.67"/>
  <rect class="cls-9" x="73.7" width="5.67" height="5.67"/>
  <rect class="cls-27" x="79.37" width="5.67" height="5.67"/>
  <rect class="cls-42" x="85.04" y="0" width="5.67" height="5.66"/>
  <polygon class="cls-44" points="96.38 0 96.38 11.33 90.71 11.33 90.71 22.67 85.04 22.67 85.04 5.66 90.71 5.66 90.71 0 96.38 0"/>
  <rect class="cls-12" x="96.38" y="0" width="5.67" height="164.4"/>
  <polygon class="cls-44" points="113.38 5.66 113.38 17 107.71 17 107.71 11.33 102.05 11.33 102.05 0 107.71 0 107.71 5.66 113.38 5.66"/>
  <rect class="cls-42" x="107.71" y="0" width="5.67" height="5.66"/>
  <rect class="cls-27" x="113.39" width="5.67" height="5.67"/>
  <rect class="cls-27" x="119.06" width="5.67" height="5.67"/>
  <rect class="cls-46" x="22.68" y="119.05" width="22.67" height="5.67"/>
  <rect class="cls-46" x="17.01" y="113.38" width="5.67" height="5.67"/>
  <rect class="cls-46" x="11.34" y="107.71" width="5.67" height="5.67"/>
  <rect class="cls-41" x="22.68" y="102.04" width="5.66" height="5.67"/>
  <rect class="cls-36" x="51.02" y="255.11" width="96.38" height="5.67"/>
  <rect class="cls-36" x="45.35" y="249.44" width="5.67" height="5.67"/>
  <polygon class="cls-5" points="141.73 243.77 141.73 249.44 119.05 249.44 119.05 255.11 51.02 255.11 51.02 249.44 113.38 249.44 113.38 243.77 141.73 243.77"/>
  <rect class="cls-36" x="147.4" y="249.44" width="5.67" height="5.67"/>
  <rect class="cls-36" x="39.68" y="243.77" width="5.67" height="5.67"/>
  <rect class="cls-36" x="153.07" y="243.77" width="5.67" height="5.67"/>
  <rect class="cls-25" x="39.68" y="238.11" width="5.67" height="5.66"/>
  <rect class="cls-5" x="141.73" y="238.11" width="5.67" height="5.66"/>
  <rect class="cls-36" x="34.01" y="226.77" width="5.67" height="17"/>
  <rect class="cls-36" x="158.74" y="226.77" width="5.67" height="17"/>
  <polygon class="cls-39" points="107.71 226.77 107.71 238.11 90.71 238.11 90.71 243.77 45.35 243.77 45.35 238.11 39.68 238.11 39.68 226.77 34.01 226.77 34.01 209.76 39.68 209.76 39.68 215.43 79.37 215.43 79.37 221.1 102.05 221.1 102.05 226.77 107.71 226.77"/>
  <polygon class="cls-25" points="147.4 232.44 147.4 238.11 141.73 238.11 141.73 243.77 113.38 243.77 113.38 249.44 45.35 249.44 45.35 243.77 90.71 243.77 90.71 238.11 107.71 238.11 107.71 226.77 102.05 226.77 102.05 221.1 79.37 221.1 79.37 215.43 39.68 215.43 39.68 209.76 90.71 209.76 90.71 215.43 113.38 215.43 113.38 221.1 130.39 221.1 130.39 226.77 141.73 226.77 141.73 232.44 147.4 232.44"/>
  <rect class="cls-25" x="34.01" y="204.09" width="5.67" height="5.67"/>
  <polygon class="cls-5" points="153.07 221.1 153.07 238.11 147.4 238.11 147.4 232.44 141.73 232.44 141.73 226.77 130.39 226.77 130.39 221.1 113.38 221.1 113.38 215.43 90.71 215.43 90.71 209.76 39.68 209.76 39.68 204.09 102.05 204.09 102.05 209.76 124.72 209.76 124.72 215.43 136.06 215.43 136.06 221.1 153.07 221.1"/>
  <rect class="cls-36" x="28.34" y="198.42" width="5.67" height="28.35"/>
  <rect class="cls-5" x="34.01" y="198.42" width="5.67" height="5.67"/>
  <rect class="cls-36" x="39.68" y="198.42" width="119.06" height="5.67"/>
  <polygon class="cls-1" points="164.41 198.42 164.41 226.77 158.74 226.77 158.74 243.77 153.07 243.77 153.07 249.44 147.4 249.44 147.4 255.11 119.05 255.11 119.05 249.44 141.73 249.44 141.73 243.77 147.4 243.77 147.4 238.11 153.07 238.11 153.07 221.1 136.06 221.1 136.06 215.43 124.72 215.43 124.72 209.76 102.05 209.76 102.05 204.09 158.74 204.09 158.74 198.42 164.41 198.42"/>
  <rect class="cls-36" x="164.41" y="198.42" width="5.67" height="28.35"/>
  <rect class="cls-36" x="34.01" y="192.75" width="5.67" height="5.67"/>
  <rect class="cls-36" x="158.74" y="192.75" width="5.67" height="5.67"/>
  <polygon class="cls-36" points="164.41 164.4 164.41 170.07 34.01 170.07 34.01 192.75 28.34 192.75 28.34 164.4 164.41 164.4"/>
  <polygon class="cls-39" points="158.74 192.75 158.74 198.42 39.68 198.42 39.68 192.75 34.01 192.75 34.01 181.41 45.35 181.41 45.35 187.08 51.02 187.08 51.02 192.75 158.74 192.75"/>
  <polygon class="cls-25" points="158.74 175.74 158.74 192.75 51.02 192.75 51.02 187.08 45.35 187.08 45.35 181.41 34.01 181.41 34.01 175.74 158.74 175.74"/>
  <polygon class="cls-5" points="164.41 170.07 164.41 192.75 158.74 192.75 158.74 175.74 34.01 175.74 34.01 170.07 164.41 170.07"/>
  <rect class="cls-36" x="164.41" y="170.07" width="5.67" height="22.68"/>
  <rect class="cls-30" x="164.41" y="164.4" width="5.67" height="5.67"/>
  <rect class="cls-18" x="51.02" y="158.74" width="5.67" height="5.66"/>
  <rect class="cls-20" x="130.39" y="158.74" width="5.67" height="5.66"/>
  <rect class="cls-4" x="119.05" y="153.07" width="5.67" height="11.33"/>
  <rect class="cls-15" x="153.07" y="153.07" width="5.67" height="5.67"/>
  <rect class="cls-47" x="39.68" y="147.4" width="5.67" height="5.67"/>
  <rect class="cls-8" x="73.7" y="147.4" width="5.67" height="17"/>
  <rect class="cls-14" x="119.05" y="147.4" width="5.67" height="5.67"/>
  <rect class="cls-32" x="62.36" y="141.73" width="5.67" height="22.67"/>
  <rect class="cls-50" x="73.7" y="141.73" width="5.67" height="5.67"/>
  <rect class="cls-6" x="107.71" y="141.73" width="5.67" height="22.67"/>
  <rect class="cls-7" x="141.73" y="141.73" width="5.67" height="22.67"/>
  <rect class="cls-28" x="85.04" y="136.06" width="5.67" height="28.34"/>
  <rect class="cls-14" x="107.71" y="136.06" width="5.67" height="5.67"/>
  <rect class="cls-15" x="153.07" y="136.06" width="5.67" height="5.67"/>
  <rect class="cls-47" x="39.68" y="130.39" width="5.67" height="5.67"/>
  <rect class="cls-50" x="85.04" y="130.39" width="5.67" height="5.67"/>
  <rect class="cls-20" x="130.39" y="130.39" width="5.67" height="17.01"/>
  <rect class="cls-18" x="51.02" y="124.72" width="5.67" height="28.35"/>
  <rect class="cls-8" x="73.7" y="124.72" width="5.67" height="17.01"/>
  <rect class="cls-4" x="119.05" y="124.72" width="5.67" height="22.68"/>
  <rect class="cls-50" x="73.7" y="119.05" width="5.67" height="5.67"/>
  <rect class="cls-14" x="119.05" y="119.05" width="5.67" height="5.67"/>
  <rect class="cls-7" x="141.73" y="119.05" width="5.67" height="17.01"/>
  <rect class="cls-22" x="39.68" y="113.38" width="5.67" height="5.67"/>
  <rect class="cls-28" x="85.04" y="113.38" width="5.67" height="17.01"/>
  <polygon class="cls-37" points="187.08 51.02 187.08 107.71 181.42 107.71 181.42 113.38 175.75 113.38 175.75 119.05 153.07 119.05 153.07 113.38 170.08 113.38 170.08 107.71 175.75 107.71 175.75 102.04 181.42 102.04 181.42 51.02 187.08 51.02"/>
  <rect class="cls-15" x="175.75" y="113.38" width="5.67" height="5.67"/>
  <rect class="cls-23" x="28.34" y="107.71" width="5.67" height="5.67"/>
  <rect class="cls-23" x="34.01" y="107.71" width="5.67" height="5.67"/>
  <rect class="cls-23" x="39.68" y="107.71" width="5.67" height="5.67"/>
  <rect class="cls-32" x="62.36" y="107.71" width="5.67" height="28.35"/>
  <rect class="cls-50" x="85.04" y="107.71" width="5.67" height="5.67"/>
  <rect class="cls-6" x="107.71" y="107.71" width="5.67" height="28.35"/>
  <rect class="cls-20" x="130.39" y="107.71" width="5.67" height="17.01"/>
  <rect class="cls-48" x="153.07" y="107.71" width="17.01" height="5.67"/>
  <rect class="cls-15" x="181.42" y="107.71" width="5.66" height="5.67"/>
  <rect class="cls-8" x="73.7" y="102.04" width="5.67" height="17.01"/>
  <rect class="cls-14" x="107.71" y="102.04" width="5.67" height="5.67"/>
  <polygon class="cls-2" points="175.75 45.35 175.75 102.04 170.08 102.04 170.08 107.71 153.07 107.71 153.07 102.04 158.74 102.04 158.74 96.37 164.41 96.37 164.41 51.02 170.08 51.02 170.08 45.35 175.75 45.35"/>
  <rect class="cls-48" x="170.08" y="102.04" width="5.67" height="5.67"/>
  <rect class="cls-21" x="39.68" y="96.37" width="5.67" height="5.67"/>
  <rect class="cls-18" x="51.02" y="96.37" width="5.67" height="22.68"/>
  <rect class="cls-50" x="73.7" y="96.37" width="5.67" height="5.67"/>
  <rect class="cls-4" x="119.05" y="96.37" width="5.67" height="22.68"/>
  <rect class="cls-15" x="153.07" y="96.37" width="5.67" height="5.67"/>
  <rect class="cls-15" x="192.75" y="96.37" width="5.67" height="5.67"/>
</svg>