<?xml version="1.0" encoding="UTF-8"?>
<svg id="Calque_1" data-name="Calque 1" xmlns="http://www.w3.org/2000/svg" viewBox="0 0 288.51 365.43">
  <defs>
    <style>
      .cls-1 {
        fill: #6cac47;
      }

      .cls-2 {
        fill: #a8c65a;
      }

      .cls-3 {
        fill: #13352e;
      }

      .cls-4 {
        fill: #71a94f;
      }

      .cls-5 {
        fill: #a7c559;
      }

      .cls-6 {
        fill: #1c5343;
      }

      .cls-7 {
        fill: #ae7145;
      }

      .cls-8 {
        fill: #71aa49;
      }

      .cls-9 {
        fill: #6aad4e;
      }

      .cls-10 {
        fill: #70aa48;
      }

      .cls-11 {
        fill: #bfd061;
      }

      .cls-12 {
        fill: #1d5440;
      }

      .cls-13 {
        fill: #103a2d;
      }

      .cls-14 {
        fill: #5c231f;
      }

      .cls-15 {
        fill: #408f40;
      }

      .cls-16 {
        fill: #1e5243;
      }

      .cls-17 {
        fill: #418f41;
      }

      .cls-18 {
        fill: #c0d064;
      }

      .cls-19 {
        fill: #6eaa4a;
      }

      .cls-20 {
        fill: #cb925e;
      }

      .cls-21 {
        fill: #c1d064;
      }

      .cls-22 {
        fill: #458e41;
      }

      .cls-23 {
        fill: #cb915a;
      }

      .cls-24 {
        fill: #12372f;
      }

      .cls-25 {
        fill: #8f5136;
      }

      .cls-26 {
        fill: #6dab49;
      }

      .cls-27 {
        fill: #713026;
      }

      .cls-28 {
        fill: #6eaa4c;
      }

      .cls-29 {
        fill: #70ab48;
      }

      .cls-30 {
        fill: #c3cf67;
      }

      .cls-31 {
        fill: #0e3a30;
      }

      .cls-32 {
        fill: #c1cf67;
      }

      .cls-33 {
        fill: #c3cf68;
      }

      .cls-34 {
        fill: #c0cf67;
      }

      .cls-35 {
        fill: #1a5441;
      }

      .cls-36 {
        fill: #1b5341;
      }

      .cls-37 {
        fill: #3d9041;
      }

      .cls-38 {
        fill: #71aa4b;
      }

      .cls-39 {
        fill: #a9c458;
      }

      .cls-40 {
        fill: #a3c85b;
      }

      .cls-41 {
        fill: #c3cf66;
      }

      .cls-42 {
        fill: #aac456;
      }

      .cls-43 {
        fill: #1c553f;
      }

      .cls-44 {
        fill: #70ab46;
      }

      .cls-45 {
        fill: #428f3c;
      }

      .cls-46 {
        fill: #438e40;
      }
    </style>
  </defs>
  <rect class="cls-24" x="57.69" y="76.93" width="9.62" height="9.62"/>
  <rect class="cls-42" x="67.31" y="76.93" width="19.24" height="9.62"/>
  <polygon class="cls-24" points="115.4 125.02 115.4 134.63 96.16 134.63 96.16 125.02 76.93 125.02 76.93 115.4 86.54 115.4 86.54 76.93 96.16 76.93 96.16 115.4 105.78 115.4 105.78 125.02 115.4 125.02"/>
  <rect class="cls-11" x="96.16" y="76.93" width="9.62" height="38.47"/>
  <polygon class="cls-2" points="125.02 96.16 125.02 125.02 115.4 125.02 115.4 115.4 105.78 115.4 105.78 76.93 115.4 76.93 115.4 96.16 125.02 96.16"/>
  <polygon class="cls-1" points="144.25 86.54 144.25 144.25 134.63 144.25 134.63 125.02 125.02 125.02 125.02 96.16 115.4 96.16 115.4 76.93 125.02 76.93 125.02 48.07 134.63 48.07 134.63 86.54 144.25 86.54"/>
  <rect class="cls-13" x="153.87" y="76.93" width="9.62" height="9.62"/>
  <rect class="cls-46" x="201.94" y="76.93" width="9.62" height="9.62"/>
  <rect class="cls-12" x="211.56" y="76.93" width="9.62" height="9.62"/>
  <rect class="cls-24" x="221.18" y="76.93" width="9.62" height="9.62"/>
  <rect class="cls-19" x="230.8" y="76.93" width="19.24" height="9.62"/>
  <rect class="cls-21" x="250.03" y="76.93" width="9.62" height="9.62"/>
  <rect class="cls-31" x="259.65" y="76.93" width="9.62" height="9.62"/>
  <polygon class="cls-41" points="57.69 134.63 57.69 144.25 38.47 144.25 38.47 134.63 28.85 134.63 28.85 67.31 38.47 67.31 38.47 115.4 48.09 115.4 48.09 134.63 57.69 134.63"/>
  <rect class="cls-24" x="38.47" y="67.31" width="9.62" height="19.24"/>
  <rect class="cls-3" x="76.93" y="67.31" width="9.62" height="9.62"/>
  <rect class="cls-8" x="96.16" y="67.31" width="9.62" height="9.62"/>
  <rect class="cls-32" x="105.78" y="67.31" width="9.62" height="9.62"/>
  <polygon class="cls-15" points="163.49 96.16 163.49 134.63 153.87 134.63 153.87 144.25 144.25 144.25 144.25 86.54 134.63 86.54 134.63 67.31 144.25 67.31 144.25 76.93 153.87 76.93 153.87 96.16 163.49 96.16"/>
  <rect class="cls-13" x="144.25" y="67.31" width="9.62" height="9.62"/>
  <rect class="cls-26" x="163.49" y="67.31" width="9.62" height="19.24"/>
  <rect class="cls-32" x="173.11" y="67.31" width="9.62" height="9.62"/>
  <polygon class="cls-5" points="192.33 67.31 192.33 96.16 173.11 96.16 173.11 76.93 182.72 76.93 182.72 67.31 192.33 67.31"/>
  <rect class="cls-19" x="250.03" y="67.31" width="19.24" height="9.62"/>
  <rect class="cls-18" x="67.31" y="57.69" width="9.62" height="19.24"/>
  <rect class="cls-3" x="76.93" y="57.69" width="9.62" height="9.62"/>
  <rect class="cls-40" x="115.4" y="57.69" width="9.62" height="19.24"/>
  <rect class="cls-13" x="134.63" y="57.69" width="9.62" height="9.62"/>
  <rect class="cls-8" x="192.33" y="57.69" width="9.62" height="38.47"/>
  <polygon class="cls-24" points="221.18 67.31 221.18 76.93 201.94 76.93 201.94 57.69 211.56 57.69 211.56 67.31 221.18 67.31"/>
  <polygon class="cls-8" points="76.93 48.07 76.93 57.69 67.31 57.69 67.31 76.93 57.69 76.93 57.69 48.07 76.93 48.07"/>
  <rect class="cls-13" x="134.63" y="48.07" width="9.62" height="9.62"/>
  <rect class="cls-26" x="173.11" y="48.07" width="9.62" height="19.24"/>
  <rect class="cls-32" x="182.72" y="48.07" width="9.6" height="19.24"/>
  <rect class="cls-24" x="192.33" y="48.07" width="9.62" height="9.62"/>
  <polygon class="cls-8" points="38.47 38.45 38.47 67.31 28.85 67.31 28.85 115.4 19.24 115.4 19.24 57.69 28.85 57.69 28.85 38.45 38.47 38.45"/>
  <rect class="cls-8" x="105.78" y="38.45" width="9.62" height="28.85"/>
  <rect class="cls-32" x="115.4" y="38.45" width="9.62" height="19.24"/>
  <rect class="cls-26" x="182.72" y="38.45" width="9.6" height="9.62"/>
  <rect class="cls-8" x="115.4" y="9.62" width="9.62" height="28.84"/>
  <rect class="cls-13" x="125.02" y="9.62" width="9.62" height="38.45"/>
  <rect class="cls-8" x="125.02" width="9.62" height="9.62"/>
  <rect class="cls-14" x="38.47" y="355.81" width="163.47" height="9.62"/>
  <rect class="cls-14" x="28.85" y="346.2" width="9.62" height="9.62"/>
  <polygon class="cls-25" points="192.33 336.58 192.33 346.2 153.87 346.2 153.87 355.81 38.47 355.81 38.47 346.2 144.25 346.2 144.25 336.58 192.33 336.58"/>
  <rect class="cls-14" x="201.94" y="346.2" width="9.62" height="9.62"/>
  <rect class="cls-14" x="19.24" y="336.58" width="9.62" height="9.62"/>
  <rect class="cls-14" x="211.56" y="336.58" width="9.62" height="9.62"/>
  <rect class="cls-7" x="19.24" y="326.96" width="9.62" height="9.62"/>
  <rect class="cls-25" x="192.33" y="326.96" width="9.62" height="9.62"/>
  <rect class="cls-14" x="9.62" y="307.72" width="9.62" height="28.85"/>
  <rect class="cls-14" x="221.18" y="307.72" width="9.62" height="28.85"/>
  <polygon class="cls-20" points="134.63 307.72 134.63 326.96 105.78 326.96 105.78 336.58 28.85 336.58 28.85 326.96 19.24 326.96 19.24 307.72 9.62 307.72 9.62 278.89 19.24 278.89 19.24 288.51 86.54 288.51 86.54 298.12 125.02 298.12 125.02 307.72 134.63 307.72"/>
  <polygon class="cls-7" points="201.94 317.34 201.94 326.96 192.33 326.96 192.33 336.58 144.25 336.58 144.25 346.2 28.85 346.2 28.85 336.58 105.78 336.58 105.78 326.96 134.63 326.96 134.63 307.72 125.02 307.72 125.02 298.12 86.54 298.12 86.54 288.51 19.24 288.51 19.24 278.89 105.78 278.89 105.78 288.51 144.25 288.51 144.25 298.12 173.11 298.12 173.11 307.72 192.33 307.72 192.33 317.34 201.94 317.34"/>
  <rect class="cls-7" x="9.62" y="269.27" width="9.62" height="9.62"/>
  <polygon class="cls-25" points="211.56 298.12 211.56 326.96 201.94 326.96 201.94 317.34 192.33 317.34 192.33 307.72 173.11 307.72 173.11 298.12 144.25 298.12 144.25 288.51 105.78 288.51 105.78 278.89 19.24 278.89 19.24 269.27 125.02 269.27 125.02 278.89 163.49 278.89 163.49 288.51 182.72 288.51 182.72 298.12 211.56 298.12"/>
  <polygon class="cls-27" points="230.8 259.65 230.8 307.72 221.18 307.72 221.18 336.58 211.56 336.58 211.56 346.2 201.94 346.2 201.94 355.81 153.87 355.81 153.87 346.2 192.33 346.2 192.33 336.58 201.94 336.58 201.94 326.96 211.56 326.96 211.56 298.12 182.72 298.12 182.72 288.51 163.49 288.51 163.49 278.89 125.02 278.89 125.02 269.27 221.18 269.27 221.18 259.65 230.8 259.65"/>
  <rect class="cls-14" y="259.65" width="9.62" height="48.07"/>
  <rect class="cls-25" x="9.62" y="259.65" width="9.62" height="9.62"/>
  <rect class="cls-14" x="19.24" y="259.65" width="201.94" height="9.62"/>
  <rect class="cls-14" x="230.8" y="259.65" width="9.62" height="48.07"/>
  <rect class="cls-14" x="9.62" y="250.03" width="9.62" height="9.62"/>
  <rect class="cls-14" x="221.18" y="250.03" width="9.62" height="9.62"/>
  <polygon class="cls-23" points="221.18 250.03 221.18 259.65 19.24 259.65 19.24 250.03 9.62 250.03 9.62 230.8 19.24 230.8 19.24 240.42 28.85 240.42 28.85 250.03 221.18 250.03"/>
  <rect class="cls-25" x="38.47" y="230.8" width="67.31" height="9.62"/>
  <polygon class="cls-7" points="221.18 221.18 221.18 250.03 28.85 250.03 28.85 240.42 19.24 240.42 19.24 230.8 9.62 230.8 9.62 221.18 28.85 221.18 28.85 230.8 38.47 230.8 38.47 240.42 105.78 240.42 105.78 230.8 125.02 230.8 125.02 221.18 221.18 221.18"/>
  <rect class="cls-25" x="28.85" y="221.18" width="9.62" height="9.62"/>
  <rect class="cls-14" x="38.47" y="221.18" width="9.62" height="9.62"/>
  <rect class="cls-28" x="48.09" y="221.18" width="19.22" height="9.62"/>
  <rect class="cls-24" x="67.31" y="221.18" width="28.85" height="9.62"/>
  <rect class="cls-14" x="96.16" y="221.18" width="9.62" height="9.62"/>
  <polygon class="cls-25" points="230.8 211.56 230.8 250.03 221.18 250.03 221.18 221.18 125.02 221.18 125.02 230.8 105.78 230.8 105.78 221.18 115.4 221.18 115.4 211.56 230.8 211.56"/>
  <rect class="cls-25" x="9.62" y="211.56" width="19.24" height="9.62"/>
  <rect class="cls-14" x="28.85" y="211.56" width="9.62" height="9.62"/>
  <rect class="cls-28" x="38.47" y="211.56" width="9.62" height="9.62"/>
  <polygon class="cls-35" points="105.78 192.33 105.78 221.18 86.54 221.18 86.54 201.94 96.16 201.94 96.16 192.33 105.78 192.33"/>
  <rect class="cls-14" x="105.78" y="211.56" width="9.62" height="9.62"/>
  <polygon class="cls-14" points="28.85 201.94 28.85 211.56 9.62 211.56 9.62 250.03 0 250.03 0 201.94 28.85 201.94"/>
  <rect class="cls-28" x="28.85" y="201.94" width="9.62" height="9.62"/>
  <rect class="cls-37" x="76.93" y="201.94" width="9.62" height="19.24"/>
  <polygon class="cls-24" points="125.02 182.71 125.02 201.94 115.4 201.94 115.4 211.56 105.78 211.56 105.78 192.33 115.4 192.33 115.4 182.71 125.02 182.71"/>
  <polygon class="cls-14" points="240.42 201.94 240.42 250.03 230.8 250.03 230.8 211.56 115.4 211.56 115.4 201.94 240.42 201.94"/>
  <rect class="cls-30" x="125.02" y="192.33" width="9.62" height="9.62"/>
  <polygon class="cls-39" points="182.72 163.49 182.72 182.71 163.49 182.71 163.49 192.33 144.25 192.33 144.25 201.94 134.63 201.94 134.63 182.71 144.25 182.71 144.25 173.09 163.49 173.09 163.49 163.49 182.72 163.49"/>
  <rect class="cls-44" x="144.25" y="192.33" width="9.62" height="9.62"/>
  <rect class="cls-15" x="153.87" y="192.33" width="19.24" height="9.62"/>
  <polygon class="cls-36" points="221.18 182.71 221.18 192.33 211.56 192.33 211.56 201.94 173.11 201.94 173.11 192.33 201.94 192.33 201.94 182.71 221.18 182.71"/>
  <rect class="cls-28" x="19.24" y="182.71" width="9.62" height="19.24"/>
  <rect class="cls-37" x="86.54" y="182.71" width="9.62" height="19.24"/>
  <rect class="cls-35" x="105.78" y="182.71" width="9.62" height="9.62"/>
  <rect class="cls-30" x="125.02" y="182.71" width="9.62" height="9.62"/>
  <polygon class="cls-44" points="259.65 153.87 259.65 163.49 221.18 163.49 221.18 173.09 211.56 173.09 211.56 182.71 192.33 182.71 192.33 192.33 163.49 192.33 163.49 182.71 182.72 182.71 182.72 163.49 201.94 163.49 201.94 153.87 230.8 153.87 230.8 144.25 250.03 144.25 250.03 153.87 259.65 153.87"/>
  <rect class="cls-46" x="192.33" y="182.71" width="9.62" height="9.62"/>
  <polygon class="cls-5" points="76.93 211.56 76.93 221.18 57.69 221.18 57.69 201.94 48.09 201.94 48.09 192.33 38.47 192.33 38.47 173.09 48.09 173.09 48.09 182.71 57.69 182.71 57.69 192.33 67.31 192.33 67.31 211.56 76.93 211.56"/>
  <rect class="cls-36" x="86.54" y="173.09" width="9.62" height="9.62"/>
  <rect class="cls-24" x="96.16" y="173.09" width="9.62" height="19.24"/>
  <rect class="cls-24" x="125.02" y="173.09" width="9.62" height="9.62"/>
  <rect class="cls-30" x="134.63" y="173.09" width="9.62" height="9.62"/>
  <rect class="cls-45" x="211.56" y="173.09" width="9.62" height="9.62"/>
  <rect class="cls-45" x="221.18" y="173.09" width="9.62" height="9.62"/>
  <rect class="cls-43" x="230.8" y="173.09" width="9.62" height="9.62"/>
  <polygon class="cls-31" points="259.65 173.09 259.65 182.71 250.03 182.71 250.03 192.33 230.8 192.33 230.8 201.94 211.56 201.94 211.56 192.33 221.18 192.33 221.18 182.71 240.42 182.71 240.42 173.09 259.65 173.09"/>
  <rect class="cls-5" x="28.85" y="163.49" width="9.62" height="9.6"/>
  <polygon class="cls-9" points="86.54 182.71 86.54 201.94 76.93 201.94 76.93 211.56 67.31 211.56 67.31 192.33 57.69 192.33 57.69 182.71 48.09 182.71 48.09 173.09 38.47 173.09 38.47 163.49 67.31 163.49 67.31 173.09 76.93 173.09 76.93 182.71 86.54 182.71"/>
  <polygon class="cls-37" points="86.54 163.49 86.54 182.71 76.93 182.71 76.93 173.09 67.31 173.09 67.31 163.49 86.54 163.49"/>
  <rect class="cls-24" x="86.54" y="163.49" width="9.62" height="9.6"/>
  <rect class="cls-24" x="125.02" y="163.49" width="9.62" height="9.6"/>
  <rect class="cls-24" x="134.63" y="163.48" width="9.62" height="9.62"/>
  <rect class="cls-10" x="144.25" y="163.49" width="9.62" height="9.6"/>
  <polygon class="cls-32" points="182.72 144.25 182.72 163.49 163.49 163.49 163.49 173.09 153.87 173.09 153.87 153.87 163.49 153.87 163.49 144.25 182.72 144.25"/>
  <rect class="cls-45" x="221.18" y="163.49" width="9.62" height="9.6"/>
  <rect class="cls-45" x="230.8" y="163.49" width="9.62" height="9.6"/>
  <rect class="cls-43" x="240.42" y="163.49" width="19.24" height="9.6"/>
  <rect class="cls-28" x="9.62" y="153.87" width="9.62" height="28.84"/>
  <polygon class="cls-33" points="57.69 201.94 57.69 221.18 48.09 221.18 48.09 211.56 38.47 211.56 38.47 201.94 28.85 201.94 28.85 182.71 19.24 182.71 19.24 153.87 28.85 153.87 28.85 173.09 38.47 173.09 38.47 192.33 48.09 192.33 48.09 201.94 57.69 201.94"/>
  <rect class="cls-24" x="67.31" y="153.87" width="9.62" height="9.62"/>
  <rect class="cls-24" x="76.93" y="153.87" width="9.62" height="9.62"/>
  <rect class="cls-24" x="125.02" y="153.87" width="9.62" height="9.62"/>
  <rect class="cls-36" x="134.63" y="153.86" width="9.62" height="9.62"/>
  <rect class="cls-13" x="144.25" y="153.87" width="9.62" height="9.62"/>
  <rect class="cls-45" x="259.65" y="153.87" width="9.62" height="9.62"/>
  <polygon class="cls-31" points="288.51 153.87 288.51 163.49 278.89 163.49 278.89 173.09 259.65 173.09 259.65 163.49 269.27 163.49 269.27 153.87 288.51 153.87"/>
  <rect class="cls-29" x="28.85" y="144.25" width="9.62" height="19.24"/>
  <polygon class="cls-37" points="67.31 153.87 67.31 163.49 38.47 163.49 38.47 144.25 48.09 144.25 48.09 153.87 67.31 153.87"/>
  <rect class="cls-24" x="48.09" y="144.25" width="9.6" height="9.62"/>
  <rect class="cls-24" x="57.69" y="144.25" width="9.62" height="9.62"/>
  <rect class="cls-24" x="125.02" y="144.25" width="9.62" height="9.62"/>
  <rect class="cls-15" x="134.63" y="144.25" width="9.62" height="9.62"/>
  <rect class="cls-36" x="144.25" y="144.25" width="9.62" height="9.62"/>
  <rect class="cls-8" x="153.87" y="144.25" width="9.62" height="9.62"/>
  <rect class="cls-31" x="250.03" y="144.25" width="19.24" height="9.62"/>
  <rect class="cls-5" x="19.24" y="134.63" width="9.62" height="19.24"/>
  <rect class="cls-24" x="28.85" y="134.63" width="9.62" height="9.62"/>
  <polygon class="cls-5" points="76.93 134.63 76.93 153.87 67.31 153.87 67.31 144.25 57.69 144.25 57.69 134.63 76.93 134.63"/>
  <polygon class="cls-8" points="115.4 153.87 115.4 173.09 96.16 173.09 96.16 163.49 86.54 163.49 86.54 153.87 76.93 153.87 76.93 134.63 96.16 134.63 96.16 144.25 105.78 144.25 105.78 153.87 115.4 153.87"/>
  <polygon class="cls-22" points="125.02 144.25 125.02 182.71 105.78 182.71 105.78 173.09 115.4 173.09 115.4 153.87 105.78 153.87 105.78 144.25 96.16 144.25 96.16 134.63 115.4 134.63 115.4 144.25 125.02 144.25"/>
  <rect class="cls-24" x="115.4" y="134.63" width="9.62" height="9.62"/>
  <rect class="cls-11" x="125.02" y="134.63" width="9.62" height="9.62"/>
  <rect class="cls-6" x="153.87" y="134.63" width="9.62" height="9.62"/>
  <rect class="cls-13" x="163.49" y="134.63" width="9.62" height="9.62"/>
  <rect class="cls-8" x="173.11" y="134.63" width="9.62" height="9.62"/>
  <polygon class="cls-34" points="221.18 125.02 221.18 144.25 182.72 144.25 182.72 134.63 201.94 134.63 201.94 125.02 221.18 125.02"/>
  <polygon class="cls-39" points="230.8 134.63 230.8 153.87 201.94 153.87 201.94 163.49 182.72 163.49 182.72 144.25 221.18 144.25 221.18 134.63 230.8 134.63"/>
  <rect class="cls-32" x="230.8" y="134.63" width="9.62" height="9.62"/>
  <rect class="cls-33" x="9.62" y="125.02" width="9.62" height="28.85"/>
  <rect class="cls-5" x="48.09" y="125.02" width="9.6" height="9.62"/>
  <rect class="cls-22" x="76.93" y="125.02" width="9.62" height="9.62"/>
  <rect class="cls-22" x="86.54" y="125.02" width="9.62" height="9.62"/>
  <rect class="cls-11" x="115.4" y="125.02" width="9.62" height="9.62"/>
  <rect class="cls-2" x="125.02" y="125.02" width="9.62" height="9.62"/>
  <rect class="cls-8" x="182.72" y="125.02" width="9.6" height="9.62"/>
  <rect class="cls-8" x="192.33" y="125.02" width="9.62" height="9.62"/>
  <polygon class="cls-31" points="250.03 125.02 250.03 144.25 240.42 144.25 240.42 134.63 221.18 134.63 221.18 125.02 250.03 125.02"/>
  <rect class="cls-28" y="115.4" width="9.62" height="38.47"/>
  <polygon class="cls-24" points="28.85 115.4 28.85 134.63 19.24 134.63 19.24 125.02 9.62 125.02 9.62 115.4 28.85 115.4"/>
  <rect class="cls-22" x="67.31" y="115.4" width="9.62" height="9.62"/>
  <rect class="cls-11" x="105.78" y="115.4" width="9.62" height="9.62"/>
  <polygon class="cls-12" points="201.94 105.78 201.94 115.4 192.33 115.4 192.33 125.02 182.72 125.02 182.72 105.78 201.94 105.78"/>
  <rect class="cls-24" x="192.33" y="115.4" width="28.85" height="9.62"/>
  <polygon class="cls-8" points="240.42 105.78 240.42 115.4 230.8 115.4 230.8 125.02 221.18 125.02 221.18 105.78 240.42 105.78"/>
  <rect class="cls-17" x="230.8" y="115.4" width="9.62" height="9.62"/>
  <rect class="cls-36" x="240.42" y="115.4" width="9.62" height="9.62"/>
  <rect class="cls-22" x="57.69" y="105.78" width="9.62" height="9.62"/>
  <rect class="cls-24" x="67.31" y="105.78" width="9.62" height="9.62"/>
  <rect class="cls-16" x="76.93" y="105.78" width="9.62" height="9.62"/>
  <rect class="cls-19" x="201.94" y="105.78" width="9.62" height="9.62"/>
  <rect class="cls-21" x="211.56" y="105.78" width="9.62" height="9.62"/>
  <rect class="cls-17" x="240.42" y="105.78" width="9.62" height="9.62"/>
  <rect class="cls-5" x="38.47" y="96.16" width="9.62" height="19.24"/>
  <polygon class="cls-8" points="76.93 125.02 76.93 134.63 57.69 134.63 57.69 125.02 48.09 125.02 48.09 96.16 57.69 96.16 57.69 115.4 67.31 115.4 67.31 125.02 76.93 125.02"/>
  <rect class="cls-24" x="57.69" y="96.16" width="9.62" height="9.62"/>
  <rect class="cls-15" x="76.93" y="96.16" width="9.62" height="9.62"/>
  <rect class="cls-36" x="163.49" y="96.16" width="9.62" height="38.47"/>
  <rect class="cls-13" x="173.11" y="96.16" width="9.62" height="38.47"/>
  <rect class="cls-26" x="182.72" y="96.16" width="9.6" height="9.62"/>
  <rect class="cls-46" x="192.33" y="96.16" width="9.62" height="9.62"/>
  <rect class="cls-12" x="201.95" y="96.16" width="9.62" height="9.62"/>
  <rect class="cls-19" x="211.57" y="96.16" width="9.62" height="9.62"/>
  <rect class="cls-21" x="221.18" y="96.16" width="9.62" height="9.62"/>
  <rect class="cls-5" x="230.8" y="96.16" width="9.62" height="9.62"/>
  <rect class="cls-38" x="240.42" y="96.16" width="9.62" height="9.62"/>
  <rect class="cls-8" x="38.47" y="86.54" width="9.62" height="9.62"/>
  <rect class="cls-24" x="48.09" y="86.54" width="9.6" height="9.62"/>
  <rect class="cls-24" x="57.69" y="86.54" width="9.62" height="9.62"/>
  <rect class="cls-18" x="67.31" y="86.54" width="9.62" height="19.24"/>
  <rect class="cls-4" x="76.93" y="86.54" width="9.62" height="9.62"/>
  <rect class="cls-36" x="153.87" y="86.54" width="9.62" height="9.62"/>
  <rect class="cls-13" x="163.49" y="86.54" width="9.62" height="9.62"/>
  <rect class="cls-12" x="201.94" y="86.54" width="9.62" height="9.62"/>
  <rect class="cls-24" x="211.57" y="86.55" width="9.62" height="9.62"/>
  <rect class="cls-19" x="221.18" y="86.54" width="9.62" height="9.62"/>
  <rect class="cls-21" x="230.8" y="86.54" width="19.24" height="9.62"/>
  <rect class="cls-31" x="250.03" y="86.54" width="9.62" height="38.47"/>
</svg>