<?xml version="1.0" encoding="UTF-8"?>
<svg id="Calque_1" data-name="Calque 1" xmlns="http://www.w3.org/2000/svg" viewBox="0 0 364.66 546.98">
  <defs>
    <style>
      .cls-1 {
        fill: #cde9ed;
      }

      .cls-2 {
        fill: #51aaca;
      }

      .cls-3 {
        fill: #f8e360;
      }

      .cls-4 {
        fill: #5b9c43;
      }

      .cls-5 {
        fill: #fff;
      }

      .cls-6 {
        fill: #479140;
      }

      .cls-7 {
        fill: #afca5d;
      }

      .cls-8 {
        fill: #94bb55;
      }

      .cls-9 {
        fill: #f3c453;
      }

      .cls-10 {
        fill: #c5d06c;
      }

      .cls-11 {
        fill: #c5d06f;
      }

      .cls-12 {
        fill: #e1ad75;
      }

      .cls-13 {
        fill: #5b9c44;
      }

      .cls-14 {
        fill: #76ae4c;
      }

      .cls-15 {
        fill: #acca5d;
      }

      .cls-16 {
        fill: #215441;
      }

      .cls-17 {
        fill: #96ba4d;
      }

      .cls-18 {
        fill: #f4d7a3;
      }

      .cls-19 {
        fill: #94bb54;
      }

      .cls-20 {
        fill: #e68e3d;
      }

      .cls-21 {
        fill: #3f7db2;
      }

      .cls-22 {
        fill: #1f5441;
      }

      .cls-23 {
        fill: #96d2da;
      }
    </style>
  </defs>
  <rect class="cls-1" x="263.36" y="526.72" width="40.52" height="20.26"/>
  <rect class="cls-16" x="20.26" y="506.46" width="20.26" height="20.26"/>
  <rect class="cls-13" x="40.52" y="506.46" width="20.26" height="20.26"/>
  <rect class="cls-22" x="60.78" y="506.46" width="202.57" height="20.26"/>
  <rect class="cls-23" x="263.36" y="506.46" width="40.52" height="20.26"/>
  <rect class="cls-22" x="303.88" y="506.46" width="60.78" height="20.26"/>
  <rect class="cls-12" x="60.78" y="486.2" width="202.57" height="20.26"/>
  <rect class="cls-2" x="263.36" y="486.2" width="40.52" height="20.26"/>
  <rect class="cls-12" x="303.88" y="486.2" width="40.52" height="20.26"/>
  <rect class="cls-18" x="60.78" y="465.94" width="202.57" height="20.26"/>
  <rect class="cls-21" x="263.36" y="465.94" width="40.52" height="20.26"/>
  <rect class="cls-18" x="303.88" y="465.94" width="40.52" height="20.26"/>
  <rect class="cls-16" x="40.52" y="445.68" width="20.26" height="60.78"/>
  <rect class="cls-12" x="60.78" y="445.68" width="283.62" height="20.26"/>
  <rect class="cls-5" x="344.4" y="445.68" width="20.26" height="60.78"/>
  <rect class="cls-3" x="81.04" y="425.42" width="20.26" height="20.26"/>
  <rect class="cls-9" x="101.31" y="425.42" width="20.26" height="20.26"/>
  <rect class="cls-20" x="121.57" y="425.42" width="20.23" height="20.26"/>
  <rect class="cls-22" x="141.79" y="425.42" width="162.09" height="20.26"/>
  <rect class="cls-20" x="303.88" y="425.42" width="20.26" height="20.26"/>
  <rect class="cls-9" x="324.14" y="425.42" width="20.26" height="20.26"/>
  <rect class="cls-3" x="344.4" y="425.42" width="20.26" height="20.26"/>
  <rect class="cls-9" x="81.04" y="405.15" width="20.26" height="20.26"/>
  <rect class="cls-9" x="344.4" y="405.15" width="20.26" height="20.26"/>
  <rect class="cls-20" x="81.04" y="384.93" width="20.26" height="20.23"/>
  <rect class="cls-20" x="344.4" y="384.93" width="20.26" height="20.23"/>
  <polygon class="cls-22" points="243.1 263.36 243.1 283.62 222.84 283.62 222.84 303.88 162.05 303.88 162.05 324.15 141.79 324.15 141.79 344.41 121.57 344.41 121.57 364.67 101.31 364.67 101.31 324.15 121.57 324.15 121.57 303.88 141.79 303.88 141.79 283.62 121.57 283.62 121.57 202.58 141.79 202.58 141.79 263.36 162.05 263.36 162.05 283.62 202.57 283.62 202.57 263.36 243.1 263.36"/>
  <rect class="cls-19" x="162.05" y="263.36" width="20.26" height="20.26"/>
  <rect class="cls-13" x="182.31" y="263.36" width="20.26" height="20.26"/>
  <rect class="cls-13" x="141.79" y="243.1" width="20.26" height="20.26"/>
  <rect class="cls-22" x="162.07" y="243.1" width="20.26" height="20.26"/>
  <rect class="cls-19" x="182.31" y="243.1" width="20.26" height="20.26"/>
  <polygon class="cls-13" points="243.1 222.84 243.1 263.36 202.57 263.36 202.57 243.1 222.84 243.1 222.84 222.84 243.1 222.84"/>
  <rect class="cls-19" x="141.79" y="222.84" width="20.26" height="20.26"/>
  <rect class="cls-13" x="162.07" y="222.84" width="20.26" height="20.26"/>
  <rect class="cls-22" x="182.32" y="222.84" width="20.26" height="20.26"/>
  <rect class="cls-19" x="202.57" y="222.84" width="20.26" height="20.26"/>
  <rect class="cls-22" x="243.1" y="222.84" width="20.26" height="40.52"/>
  <rect class="cls-10" x="141.79" y="202.58" width="20.26" height="20.26"/>
  <rect class="cls-19" x="162.07" y="202.58" width="20.26" height="20.26"/>
  <rect class="cls-13" x="182.32" y="202.58" width="20.26" height="20.26"/>
  <rect class="cls-22" x="202.58" y="202.58" width="20.26" height="20.26"/>
  <rect class="cls-19" x="222.84" y="202.58" width="20.26" height="20.26"/>
  <rect class="cls-13" x="243.1" y="202.58" width="20.26" height="20.26"/>
  <rect class="cls-22" x="263.36" y="202.58" width="20.26" height="20.26"/>
  <rect class="cls-22" x="141.79" y="182.32" width="20.26" height="20.26"/>
  <rect class="cls-10" x="162.07" y="182.33" width="20.26" height="20.26"/>
  <rect class="cls-8" x="182.32" y="182.33" width="20.26" height="20.26"/>
  <rect class="cls-13" x="202.57" y="182.32" width="20.26" height="20.26"/>
  <rect class="cls-22" x="222.84" y="182.32" width="20.26" height="20.26"/>
  <rect class="cls-11" x="243.1" y="182.32" width="20.26" height="20.26"/>
  <rect class="cls-22" x="162.05" y="162.06" width="20.26" height="20.26"/>
  <rect class="cls-10" x="182.31" y="162.06" width="20.26" height="20.26"/>
  <rect class="cls-17" x="202.57" y="162.06" width="40.52" height="20.26"/>
  <rect class="cls-22" x="182.31" y="141.8" width="40.52" height="20.26"/>
  <rect class="cls-10" x="222.84" y="141.8" width="20.26" height="20.26"/>
  <rect class="cls-22" x="243.1" y="141.8" width="20.26" height="40.52"/>
  <rect class="cls-13" x="263.36" y="141.8" width="20.26" height="60.78"/>
  <rect class="cls-22" x="222.84" y="121.54" width="20.26" height="20.26"/>
  <rect class="cls-10" x="243.1" y="121.54" width="20.26" height="20.26"/>
  <rect class="cls-17" x="263.36" y="121.54" width="20.26" height="20.26"/>
  <rect class="cls-22" x="283.62" y="121.54" width="20.26" height="81.04"/>
  <polygon class="cls-13" points="364.66 263.36 364.66 384.93 344.4 384.93 344.4 425.42 324.14 425.42 324.14 405.15 303.88 405.15 303.88 384.93 222.84 384.93 222.84 364.67 202.57 364.67 202.57 344.41 162.05 344.41 162.05 303.88 222.84 303.88 222.84 283.62 243.1 283.62 243.1 263.36 263.36 263.36 263.36 222.84 283.62 222.84 283.62 202.58 303.88 202.58 303.88 121.54 324.14 121.54 324.14 243.1 344.4 243.1 344.4 263.36 364.66 263.36"/>
  <rect class="cls-22" x="243.1" y="101.27" width="40.52" height="20.26"/>
  <rect class="cls-13" x="283.62" y="101.27" width="20.26" height="20.26"/>
  <polygon class="cls-6" points="324.14 405.15 324.14 425.42 101.31 425.42 101.31 384.93 81.04 384.93 81.04 60.79 101.31 60.79 101.31 182.32 121.57 182.32 121.57 283.62 141.79 283.62 141.79 303.88 121.57 303.88 121.57 324.15 101.31 324.15 101.31 364.67 121.57 364.67 121.57 344.41 141.79 344.41 141.79 324.15 162.05 324.15 162.05 344.41 202.57 344.41 202.57 364.67 222.84 364.67 222.84 384.93 303.88 384.93 303.88 405.15 324.14 405.15"/>
  <rect class="cls-20" x="81.04" y="40.53" width="20.26" height="20.26"/>
  <rect class="cls-20" x="344.4" y="40.53" width="20.26" height="20.26"/>
  <rect class="cls-16" y="20.27" width="20.26" height="486.19"/>
  <rect class="cls-4" x="20.26" y="20.27" width="20.26" height="486.19"/>
  <rect class="cls-9" x="81.04" y="20.27" width="20.26" height="20.26"/>
  <polygon class="cls-13" points="283.62 81.05 283.62 101.27 243.1 101.27 243.1 121.54 222.84 121.54 222.84 141.8 182.31 141.8 182.31 162.06 162.05 162.06 162.05 182.32 141.79 182.32 141.79 202.58 121.57 202.58 121.57 182.32 101.31 182.32 101.31 20.27 121.57 20.27 121.57 40.53 162.05 40.53 162.05 60.79 243.1 60.79 243.1 81.05 283.62 81.05"/>
  <polygon class="cls-14" points="344.4 81.05 344.4 243.1 324.14 243.1 324.14 121.54 303.88 121.54 303.88 101.27 283.62 101.27 283.62 81.05 243.1 81.05 243.1 60.79 162.05 60.79 162.05 40.53 121.57 40.53 121.57 20.27 283.62 20.27 283.62 40.53 324.14 40.53 324.14 81.05 344.4 81.05"/>
  <rect class="cls-9" x="344.4" y="20.27" width="20.26" height="20.26"/>
  <polygon class="cls-7" points="60.78 0 60.78 445.68 40.52 445.68 40.52 20.27 20.26 20.27 20.26 0 60.78 0"/>
  <rect class="cls-22" x="60.78" y="0" width="20.26" height="445.67"/>
  <rect class="cls-3" x="81.04" y="0" width="20.26" height="20.26"/>
  <rect class="cls-9" x="101.31" y="0" width="20.26" height="20.26"/>
  <rect class="cls-20" x="121.57" y="0" width="20.23" height="20.26"/>
  <polygon class="cls-15" points="364.66 60.79 364.66 263.36 344.4 263.36 344.4 81.05 324.14 81.05 324.14 40.53 283.62 40.53 283.62 20.27 141.79 20.27 141.79 0 303.88 0 303.88 20.27 344.4 20.27 344.4 60.79 364.66 60.79"/>
  <rect class="cls-20" x="303.88" y="0" width="20.26" height="20.26"/>
  <rect class="cls-9" x="324.14" y="0" width="20.26" height="20.26"/>
  <rect class="cls-3" x="344.39" width="20.26" height="20.26"/>
</svg>