<?xml version="1.0" encoding="UTF-8"?>
<svg id="Calque_1" data-name="Calque 1" xmlns="http://www.w3.org/2000/svg" viewBox="0 0 718.24 175.57">
  <defs>
    <style>
      .cls-1 {
        fill: #c4cf67;
      }

      .cls-2 {
        fill: #c2ce6f;
      }

      .cls-3 {
        fill: #34784f;
      }

      .cls-4 {
        fill: #2a3536;
      }

      .cls-5 {
        fill: #32784c;
      }

      .cls-6 {
        fill: #539945;
      }

      .cls-7 {
        fill: #133726;
      }

      .cls-8 {
        fill: #386c45;
      }

      .cls-9 {
        fill: #0e392d;
      }

      .cls-10 {
        fill: #579943;
      }

      .cls-11 {
        fill: #c5d270;
      }

      .cls-12 {
        fill: #366e44;
      }

      .cls-13 {
        fill: #579944;
      }

      .cls-14 {
        fill: #599743;
      }

      .cls-15 {
        fill: #93b74c;
      }

      .cls-16 {
        fill: #2b7344;
      }

      .cls-17 {
        fill: #c2d069;
      }

      .cls-18 {
        fill: #5e9548;
      }

      .cls-19 {
        fill: #1b4538;
      }

      .cls-20 {
        fill: #2c743f;
      }

      .cls-21 {
        fill: #164537;
      }

      .cls-22 {
        fill: #174839;
      }

      .cls-23 {
        fill: #13352e;
      }

      .cls-24 {
        fill: #173230;
      }

      .cls-25 {
        fill: #364743;
      }

      .cls-26 {
        fill: #99b755;
      }

      .cls-27 {
        fill: #c3cb69;
      }

      .cls-28 {
        fill: #284643;
      }

      .cls-29 {
        fill: #1a4436;
      }

      .cls-30 {
        fill: #8dba54;
      }

      .cls-31 {
        fill: #c4cf6b;
      }

      .cls-32 {
        fill: #12342f;
      }

      .cls-33 {
        fill: #99b350;
      }

      .cls-34 {
        fill: #569a44;
      }

      .cls-35 {
        fill: #c2cf69;
      }

      .cls-36 {
        fill: #144737;
      }

      .cls-37 {
        fill: #2e7045;
      }

      .cls-38 {
        fill: #91c04f;
      }

      .cls-39 {
        fill: #599749;
      }

      .cls-40 {
        fill: #99b550;
      }

      .cls-41 {
        fill: #144435;
      }

      .cls-42 {
        fill: #c1d069;
      }

      .cls-43 {
        fill: #317142;
      }

      .cls-44 {
        fill: #0f372e;
      }

      .cls-45 {
        fill: #5f9445;
      }

      .cls-46 {
        fill: #2a3335;
      }

      .cls-47 {
        fill: #569a43;
      }

      .cls-48 {
        fill: #396c44;
      }

      .cls-49 {
        fill: #367f50;
      }

      .cls-50 {
        fill: #194437;
      }

      .cls-51 {
        fill: #90a94f;
      }

      .cls-52 {
        fill: #2f733d;
      }

      .cls-53 {
        fill: #c1cf6e;
      }

      .cls-54 {
        fill: #193934;
      }

      .cls-55 {
        fill: #336b42;
      }

      .cls-56 {
        fill: #0b342c;
      }

      .cls-57 {
        fill: #316f45;
      }

      .cls-58 {
        fill: #103631;
      }

      .cls-59 {
        fill: #11372f;
      }

      .cls-60 {
        fill: #13342e;
      }

      .cls-61 {
        fill: #2b7341;
      }

      .cls-62 {
        fill: #10372f;
      }

      .cls-63 {
        fill: #33794b;
      }

      .cls-64 {
        fill: #12362f;
      }

      .cls-65 {
        fill: #488840;
      }

      .cls-66 {
        fill: #1c3f35;
      }

      .cls-67 {
        fill: #91b950;
      }

      .cls-68 {
        fill: #91ba51;
      }

      .cls-69 {
        fill: #5d8147;
      }

      .cls-70 {
        fill: #c0d067;
      }

      .cls-71 {
        fill: #227745;
      }

      .cls-72 {
        fill: #39764e;
      }

      .cls-73 {
        fill: #91b450;
      }

      .cls-74 {
        fill: #2d7d4c;
      }

      .cls-75 {
        fill: #396f47;
      }

      .cls-76 {
        fill: #549a44;
      }

      .cls-77 {
        fill: #083b2d;
      }

      .cls-78 {
        fill: #10372e;
      }

      .cls-79 {
        fill: #2c7245;
      }

      .cls-80 {
        fill: #367850;
      }

      .cls-81 {
        fill: #90ba4f;
      }

      .cls-82 {
        fill: #90b951;
      }

      .cls-83 {
        fill: #327748;
      }

      .cls-84 {
        fill: #12352e;
      }

      .cls-85 {
        fill: #609448;
      }

      .cls-86 {
        fill: #509c41;
      }

      .cls-87 {
        fill: #8dbb50;
      }

      .cls-88 {
        fill: #c1cf70;
      }

      .cls-89 {
        fill: #609442;
      }

      .cls-90 {
        fill: #11372e;
      }

      .cls-91 {
        fill: #10352d;
      }

      .cls-92 {
        fill: #2f6f4d;
      }

      .cls-93 {
        fill: #37784f;
      }

      .cls-94 {
        fill: #173430;
      }

      .cls-95 {
        fill: #539b43;
      }

      .cls-96 {
        fill: #36794b;
      }

      .cls-97 {
        fill: #184536;
      }

      .cls-98 {
        fill: #2e7242;
      }

      .cls-99 {
        fill: #307c4e;
      }

      .cls-100 {
        fill: #bcce67;
      }

      .cls-101 {
        fill: #93ba4e;
      }

      .cls-102 {
        fill: #307043;
      }

      .cls-103 {
        fill: #589941;
      }

      .cls-104 {
        fill: #34784b;
      }

      .cls-105 {
        fill: #2e7143;
      }

      .cls-106 {
        fill: #34784c;
      }

      .cls-107 {
        fill: #33754b;
      }

      .cls-108 {
        fill: #247546;
      }

      .cls-109 {
        fill: #12342e;
      }

      .cls-110 {
        fill: #91b757;
      }

      .cls-111 {
        fill: #91bb4f;
      }

      .cls-112 {
        fill: #2e7144;
      }
    </style>
  </defs>
  <rect class="cls-59" x="15.95" y="159.62" width="71.83" height="7.98"/>
  <rect class="cls-84" x="135.66" y="159.62" width="15.96" height="7.98"/>
  <rect class="cls-16" x="151.62" y="159.62" width="7.98" height="7.98"/>
  <rect class="cls-62" x="215.47" y="159.61" width="7.98" height="7.98"/>
  <rect class="cls-62" x="223.45" y="159.62" width="7.97" height="7.98"/>
  <rect class="cls-5" x="231.42" y="159.62" width="7.98" height="7.98"/>
  <rect class="cls-59" x="7.97" y="151.63" width="7.98" height="7.98"/>
  <rect class="cls-45" x="15.95" y="151.63" width="7.98" height="7.98"/>
  <rect class="cls-98" x="23.93" y="151.63" width="15.96" height="7.98"/>
  <polygon class="cls-22" points="95.76 135.67 95.76 151.63 87.78 151.63 87.78 159.62 39.89 159.62 39.89 151.63 71.82 151.63 71.82 143.65 87.78 143.65 87.78 135.67 95.76 135.67"/>
  <rect class="cls-62" x="87.78" y="151.63" width="7.98" height="7.98"/>
  <rect class="cls-84" x="127.68" y="151.63" width="7.98" height="7.98"/>
  <rect class="cls-50" x="135.66" y="151.63" width="7.98" height="7.98"/>
  <rect class="cls-16" x="143.64" y="151.63" width="7.98" height="7.98"/>
  <rect class="cls-16" x="159.6" y="135.67" width="7.98" height="23.94"/>
  <rect class="cls-102" x="215.47" y="151.63" width="7.98" height="7.98"/>
  <rect class="cls-59" y="143.65" width="7.97" height="7.98"/>
  <polygon class="cls-67" points="39.89 111.73 39.89 127.69 31.91 127.69 31.91 135.67 23.93 135.67 23.93 151.63 7.97 151.63 7.97 135.67 15.95 135.67 15.95 119.71 31.91 119.71 31.91 111.73 39.89 111.73"/>
  <polygon class="cls-65" points="79.8 111.73 79.8 135.67 63.84 135.67 63.84 143.65 47.87 143.65 47.87 151.63 31.91 151.63 31.91 135.67 55.86 135.67 55.86 127.69 63.84 127.69 63.84 111.73 79.8 111.73"/>
  <polygon class="cls-79" points="87.78 135.67 87.78 143.65 71.82 143.65 71.82 151.63 47.87 151.63 47.87 143.65 63.84 143.65 63.84 135.67 87.78 135.67"/>
  <rect class="cls-62" x="95.76" y="143.65" width="7.98" height="7.98"/>
  <polygon class="cls-111" points="159.6 127.69 159.6 143.65 151.62 143.65 151.62 151.63 143.64 151.63 143.64 135.67 151.62 135.67 151.62 127.69 159.6 127.69"/>
  <rect class="cls-17" x="151.62" y="143.65" width="7.98" height="15.96"/>
  <rect class="cls-62" x="207.49" y="143.65" width="7.98" height="15.96"/>
  <rect class="cls-102" x="215.47" y="143.65" width="7.98" height="7.98"/>
  <rect class="cls-45" x="23.93" y="135.67" width="7.98" height="15.96"/>
  <rect class="cls-16" x="135.66" y="135.67" width="7.98" height="15.96"/>
  <rect class="cls-102" x="215.47" y="135.67" width="7.98" height="7.98"/>
  <rect class="cls-50" x="127.68" y="127.69" width="7.98" height="23.94"/>
  <rect class="cls-4" x="159.6" y="127.69" width="23.94" height="7.98"/>
  <rect class="cls-102" x="215.47" y="127.69" width="7.98" height="7.98"/>
  <rect class="cls-82" x="223.45" y="127.69" width="7.97" height="31.93"/>
  <rect class="cls-1" x="231.42" y="127.69" width="7.98" height="31.93"/>
  <rect class="cls-37" x="167.58" y="119.71" width="15.96" height="7.98"/>
  <rect class="cls-4" x="183.55" y="119.71" width="7.98" height="7.98"/>
  <rect class="cls-102" x="215.47" y="119.71" width="7.98" height="7.98"/>
  <polygon class="cls-13" points="247.38 95.76 247.38 103.75 239.4 103.75 239.4 111.73 231.42 111.73 231.42 127.69 223.45 127.69 223.45 95.76 231.42 95.76 231.42 87.78 239.4 87.78 239.4 95.76 247.38 95.76"/>
  <rect class="cls-107" y="111.73" width="7.97" height="31.93"/>
  <polygon class="cls-42" points="31.91 111.73 31.91 119.71 15.95 119.71 15.95 135.67 7.97 135.67 7.97 111.73 31.91 111.73"/>
  <rect class="cls-62" x="151.62" y="111.73" width="15.96" height="7.98"/>
  <rect class="cls-34" x="167.58" y="111.73" width="7.98" height="7.98"/>
  <rect class="cls-37" x="183.55" y="111.73" width="7.98" height="7.98"/>
  <rect class="cls-4" x="191.53" y="111.73" width="7.98" height="7.98"/>
  <rect class="cls-102" x="215.47" y="111.73" width="7.98" height="7.98"/>
  <rect class="cls-101" x="231.42" y="111.73" width="7.98" height="15.96"/>
  <rect class="cls-104" x="7.97" y="103.75" width="31.93" height="7.98"/>
  <rect class="cls-54" x="39.89" y="103.75" width="15.96" height="7.98"/>
  <rect class="cls-21" x="207.49" y="103.75" width="7.98" height="39.91"/>
  <rect class="cls-102" x="215.47" y="103.75" width="7.98" height="7.98"/>
  <rect class="cls-78" x="31.91" y="95.76" width="7.98" height="7.98"/>
  <rect class="cls-12" x="55.86" y="95.76" width="7.98" height="7.98"/>
  <polygon class="cls-103" points="71.82 95.76 71.82 111.73 63.84 111.73 63.84 127.69 55.86 127.69 55.86 135.67 31.91 135.67 31.91 127.69 39.89 127.69 39.89 111.73 55.86 111.73 55.86 103.75 63.84 103.75 63.84 95.76 71.82 95.76"/>
  <polygon class="cls-81" points="87.78 103.75 87.78 135.67 79.8 135.67 79.8 111.73 71.82 111.73 71.82 95.76 79.8 95.76 79.8 103.75 87.78 103.75"/>
  <rect class="cls-72" x="95.76" y="95.76" width="7.98" height="47.89"/>
  <rect class="cls-52" x="127.68" y="95.76" width="7.98" height="31.93"/>
  <polygon class="cls-85" points="167.58 119.71 167.58 127.69 151.62 127.69 151.62 135.67 135.66 135.67 135.66 95.76 143.64 95.76 143.64 111.73 151.62 111.73 151.62 119.71 167.58 119.71"/>
  <rect class="cls-62" x="143.64" y="95.76" width="7.98" height="15.96"/>
  <rect class="cls-62" x="167.58" y="95.76" width="7.98" height="15.96"/>
  <rect class="cls-110" x="175.56" y="95.76" width="7.98" height="23.94"/>
  <rect class="cls-62" x="207.49" y="87.78" width="7.98" height="15.96"/>
  <rect class="cls-78" x="15.95" y="87.78" width="7.98" height="7.98"/>
  <rect class="cls-12" x="47.87" y="87.78" width="7.98" height="15.96"/>
  <rect class="cls-73" x="55.86" y="87.78" width="15.96" height="7.98"/>
  <polygon class="cls-31" points="95.76 95.76 95.76 135.67 87.78 135.67 87.78 103.75 79.8 103.75 79.8 95.76 71.82 95.76 71.82 87.78 87.78 87.78 87.78 95.76 95.76 95.76"/>
  <rect class="cls-83" x="87.78" y="87.78" width="7.98" height="7.98"/>
  <rect class="cls-84" x="119.69" y="87.78" width="7.98" height="63.85"/>
  <rect class="cls-21" x="127.68" y="87.78" width="7.98" height="7.98"/>
  <rect class="cls-112" x="135.66" y="87.78" width="7.98" height="7.98"/>
  <polygon class="cls-85" points="159.6 79.8 159.6 87.78 151.62 87.78 151.62 95.76 143.64 95.76 143.64 79.8 159.6 79.8"/>
  <rect class="cls-62" x="151.62" y="87.78" width="15.96" height="7.98"/>
  <rect class="cls-110" x="167.58" y="87.78" width="7.98" height="7.98"/>
  <rect class="cls-74" x="191.53" y="87.78" width="7.98" height="23.94"/>
  <rect class="cls-21" x="215.47" y="87.78" width="7.98" height="15.96"/>
  <rect class="cls-102" x="223.45" y="87.78" width="7.97" height="7.98"/>
  <rect class="cls-78" x="7.97" y="79.8" width="7.98" height="7.98"/>
  <rect class="cls-7" x="55.86" y="79.8" width="23.94" height="7.98"/>
  <rect class="cls-106" x="79.8" y="79.8" width="7.98" height="7.98"/>
  <rect class="cls-91" x="127.68" y="79.81" width="7.98" height="7.98"/>
  <rect class="cls-112" x="135.66" y="79.8" width="7.98" height="7.98"/>
  <rect class="cls-110" x="159.6" y="79.8" width="7.98" height="7.98"/>
  <polygon class="cls-27" points="191.53 87.78 191.53 111.73 183.55 111.73 183.55 95.76 175.56 95.76 175.56 87.78 167.58 87.78 167.58 79.8 183.55 79.8 183.55 87.78 191.53 87.78"/>
  <rect class="cls-74" x="183.55" y="79.8" width="7.98" height="7.98"/>
  <rect class="cls-62" x="215.47" y="79.8" width="7.98" height="7.98"/>
  <rect class="cls-29" x="223.45" y="79.81" width="7.98" height="7.98"/>
  <rect class="cls-38" x="231.42" y="79.8" width="7.98" height="7.98"/>
  <rect class="cls-108" x="55.86" y="71.82" width="15.96" height="7.98"/>
  <rect class="cls-66" x="71.82" y="71.82" width="15.96" height="7.98"/>
  <rect class="cls-77" x="87.78" y="71.82" width="7.98" height="7.98"/>
  <rect class="cls-91" x="135.66" y="71.82" width="31.93" height="7.98"/>
  <rect class="cls-74" x="167.58" y="71.82" width="7.98" height="7.98"/>
  <rect class="cls-74" x="175.56" y="71.82" width="7.98" height="7.98"/>
  <rect class="cls-62" x="223.45" y="71.83" width="7.98" height="7.98"/>
  <rect class="cls-62" x="231.42" y="71.82" width="7.98" height="7.98"/>
  <polygon class="cls-79" points="95.76 55.87 95.76 63.84 87.78 63.84 87.78 71.82 71.82 71.82 71.82 63.84 79.8 63.84 79.8 55.87 95.76 55.87"/>
  <rect class="cls-36" x="87.78" y="63.84" width="7.98" height="7.98"/>
  <rect class="cls-56" x="95.76" y="55.87" width="7.98" height="15.95"/>
  <polygon class="cls-25" points="47.87 87.78 47.87 103.75 39.89 103.75 39.89 95.76 23.93 95.76 23.93 87.78 15.95 87.78 15.95 79.8 7.97 79.8 7.97 39.91 15.95 39.91 15.95 71.82 23.93 71.82 23.93 79.8 31.91 79.8 31.91 87.78 47.87 87.78"/>
  <polygon class="cls-18" points="79.8 39.91 79.8 63.84 71.82 63.84 71.82 71.82 55.86 71.82 55.86 87.78 47.87 87.78 47.87 63.84 39.89 63.84 39.89 55.87 31.91 55.87 31.91 23.94 47.87 23.94 47.87 31.93 63.84 31.93 63.84 39.91 79.8 39.91"/>
  <rect class="cls-109" y="15.96" width="7.97" height="63.84"/>
  <polygon class="cls-55" points="47.87 79.8 47.87 87.78 31.91 87.78 31.91 79.8 23.93 79.8 23.93 71.82 15.95 71.82 15.95 39.91 7.97 39.91 7.97 15.96 15.95 15.96 15.95 31.93 23.93 31.93 23.93 63.84 31.91 63.84 31.91 71.82 39.89 71.82 39.89 79.8 47.87 79.8"/>
  <polygon class="cls-26" points="87.78 23.94 87.78 55.87 79.8 55.87 79.8 39.91 63.84 39.91 63.84 31.93 47.87 31.93 47.87 23.94 31.91 23.94 31.91 15.96 79.8 15.96 79.8 23.94 87.78 23.94"/>
  <rect class="cls-3" x="95.76" y="15.96" width="7.98" height="39.91"/>
  <rect class="cls-109" x="7.97" y="7.98" width="7.98" height="7.98"/>
  <polygon class="cls-69" points="47.87 63.84 47.87 79.8 39.89 79.8 39.89 71.82 31.91 71.82 31.91 63.84 23.93 63.84 23.93 31.93 15.95 31.93 15.95 7.98 23.93 7.98 23.93 15.96 31.91 15.96 31.91 55.87 39.89 55.87 39.89 63.84 47.87 63.84"/>
  <rect class="cls-26" x="23.93" y="7.98" width="7.98" height="7.98"/>
  <polygon class="cls-11" points="95.76 15.96 95.76 55.87 87.78 55.87 87.78 23.94 79.8 23.94 79.8 15.96 31.91 15.96 31.91 7.98 87.78 7.98 87.78 15.96 95.76 15.96"/>
  <rect class="cls-3" x="87.78" y="7.98" width="7.98" height="7.98"/>
  <rect class="cls-49" x="15.95" width="71.83" height="7.98"/>
  <rect class="cls-46" x="311.24" y="159.62" width="47.87" height="7.98"/>
  <rect class="cls-46" x="303.25" y="151.63" width="7.98" height="7.98"/>
  <rect class="cls-75" x="327.2" y="151.63" width="7.98" height="7.98"/>
  <rect class="cls-75" x="335.18" y="151.63" width="7.97" height="7.98"/>
  <rect class="cls-75" x="343.15" y="151.63" width="7.98" height="7.98"/>
  <rect class="cls-44" x="359.11" y="151.63" width="7.98" height="7.98"/>
  <rect class="cls-75" x="319.22" y="143.65" width="7.98" height="7.98"/>
  <rect class="cls-75" x="327.2" y="143.65" width="7.98" height="7.98"/>
  <polygon class="cls-95" points="367.09 127.69 367.09 151.63 359.11 151.63 359.11 159.62 351.13 159.62 351.13 151.63 335.18 151.63 335.18 143.65 351.13 143.65 351.13 135.67 359.11 135.67 359.11 127.69 367.09 127.69"/>
  <rect class="cls-23" x="335.18" y="135.67" width="15.95" height="7.98"/>
  <rect class="cls-94" x="263.35" y="127.69" width="15.96" height="7.98"/>
  <rect class="cls-80" x="239.4" y="119.71" width="7.98" height="39.91"/>
  <rect class="cls-61" x="263.35" y="119.71" width="7.98" height="7.98"/>
  <rect class="cls-39" x="271.33" y="119.71" width="7.98" height="7.98"/>
  <rect class="cls-94" x="279.31" y="119.71" width="7.98" height="7.98"/>
  <rect class="cls-32" x="367.09" y="119.71" width="7.98" height="31.93"/>
  <polygon class="cls-94" points="263.35 111.73 263.35 127.69 255.37 127.69 255.37 119.71 239.4 119.71 239.4 111.73 263.35 111.73"/>
  <rect class="cls-39" x="263.35" y="111.73" width="7.98" height="7.98"/>
  <rect class="cls-23" x="327.2" y="111.73" width="7.98" height="23.94"/>
  <rect class="cls-23" x="351.13" y="111.73" width="7.98" height="23.94"/>
  <rect class="cls-15" x="359.11" y="111.73" width="7.98" height="15.96"/>
  <rect class="cls-105" x="239.4" y="103.75" width="7.98" height="7.98"/>
  <rect class="cls-21" x="247.38" y="103.75" width="7.98" height="7.98"/>
  <rect class="cls-98" x="255.37" y="103.75" width="7.98" height="7.98"/>
  <polygon class="cls-41" points="327.2 151.63 327.2 159.62 311.24 159.62 311.24 151.63 303.25 151.63 303.25 103.75 311.24 103.75 311.24 143.65 319.22 143.65 319.22 151.63 327.2 151.63"/>
  <rect class="cls-75" x="311.24" y="103.75" width="7.98" height="39.91"/>
  <rect class="cls-23" x="335.18" y="103.75" width="15.95" height="7.98"/>
  <rect class="cls-86" x="351.13" y="103.75" width="7.98" height="7.98"/>
  <rect class="cls-98" x="247.38" y="95.76" width="7.98" height="7.98"/>
  <rect class="cls-39" x="255.37" y="95.76" width="7.98" height="7.98"/>
  <rect class="cls-33" x="263.35" y="95.76" width="7.98" height="15.96"/>
  <rect class="cls-87" x="351.13" y="95.76" width="7.98" height="7.98"/>
  <rect class="cls-33" x="239.4" y="87.78" width="23.94" height="7.98"/>
  <rect class="cls-106" x="279.31" y="87.78" width="7.98" height="31.93"/>
  <rect class="cls-46" x="295.27" y="87.78" width="7.98" height="63.85"/>
  <rect class="cls-98" x="303.25" y="87.78" width="7.98" height="15.96"/>
  <rect class="cls-87" x="335.18" y="87.78" width="15.95" height="7.98"/>
  <rect class="cls-99" x="367.09" y="87.78" width="7.98" height="31.93"/>
  <polygon class="cls-42" points="279.31 87.78 279.31 119.71 271.33 119.71 271.33 95.76 263.35 95.76 263.35 87.78 239.4 87.78 239.4 79.8 271.33 79.8 271.33 87.78 279.31 87.78"/>
  <rect class="cls-104" x="271.33" y="79.8" width="7.98" height="7.98"/>
  <rect class="cls-64" x="303.25" y="79.8" width="7.98" height="7.98"/>
  <polygon class="cls-95" points="351.13 95.76 351.13 103.75 335.18 103.75 335.18 111.73 327.2 111.73 327.2 135.67 335.18 135.67 335.18 143.65 319.22 143.65 319.22 103.75 311.24 103.75 311.24 79.8 319.22 79.8 319.22 87.78 335.18 87.78 335.18 95.76 351.13 95.76"/>
  <rect class="cls-87" x="319.22" y="79.8" width="15.96" height="7.98"/>
  <polygon class="cls-2" points="367.09 87.78 367.09 111.73 359.11 111.73 359.11 95.76 351.13 95.76 351.13 87.78 335.18 87.78 335.18 79.8 359.11 79.8 359.11 87.78 367.09 87.78"/>
  <rect class="cls-99" x="359.11" y="79.8" width="7.98" height="7.98"/>
  <rect class="cls-99" x="239.4" y="71.82" width="31.93" height="7.98"/>
  <rect class="cls-64" x="311.24" y="71.82" width="15.96" height="7.98"/>
  <rect class="cls-99" x="327.2" y="71.82" width="31.91" height="7.98"/>
  <g>
    <g>
      <rect class="cls-24" x="638.43" y="167.59" width="55.86" height="7.98"/>
      <rect class="cls-89" x="638.43" y="159.61" width="15.96" height="7.98"/>
      <rect class="cls-57" x="654.4" y="159.61" width="31.91" height="7.98"/>
      <rect class="cls-21" x="686.31" y="159.61" width="7.98" height="7.98"/>
      <rect class="cls-62" x="694.3" y="159.61" width="7.98" height="7.98"/>
      <rect class="cls-21" x="694.29" y="151.63" width="7.98" height="7.98"/>
      <rect class="cls-62" x="702.28" y="151.63" width="7.98" height="7.98"/>
      <rect class="cls-98" x="694.29" y="143.65" width="7.98" height="7.98"/>
      <rect class="cls-21" x="702.27" y="143.65" width="7.98" height="7.98"/>
      <rect class="cls-62" x="710.25" y="143.65" width="7.98" height="7.98"/>
      <polygon class="cls-64" points="686.31 135.67 686.31 159.61 638.43 159.61 638.43 167.59 630.45 167.59 630.45 151.63 678.34 151.63 678.34 143.65 646.42 143.65 646.42 135.67 686.31 135.67"/>
      <rect class="cls-64" x="638.43" y="127.68" width="7.98" height="7.98"/>
      <rect class="cls-50" x="646.42" y="127.68" width="39.89" height="7.98"/>
      <rect class="cls-98" x="646.42" y="119.7" width="7.98" height="7.98"/>
      <polygon class="cls-45" points="702.27 127.68 702.27 143.65 694.29 143.65 694.29 159.61 686.31 159.61 686.31 127.68 654.4 127.68 654.4 119.7 686.31 119.7 686.31 111.72 694.29 111.72 694.29 127.68 702.27 127.68"/>
      <rect class="cls-64" x="630.45" y="111.72" width="7.98" height="15.96"/>
      <rect class="cls-10" x="646.42" y="111.72" width="7.98" height="7.98"/>
      <rect class="cls-70" x="654.4" y="111.72" width="7.98" height="7.98"/>
      <rect class="cls-96" x="662.38" y="111.72" width="7.98" height="7.98"/>
      <rect class="cls-84" x="670.36" y="111.72" width="7.98" height="7.98"/>
      <rect class="cls-21" x="678.34" y="111.72" width="7.97" height="7.98"/>
      <polygon class="cls-19" points="646.42 103.74 646.42 127.68 638.43 127.68 638.43 111.72 630.45 111.72 630.45 103.74 646.42 103.74"/>
      <rect class="cls-84" x="678.34" y="87.79" width="7.97" height="23.93"/>
      <rect class="cls-97" x="686.31" y="87.79" width="7.98" height="23.93"/>
      <rect class="cls-51" x="694.29" y="87.79" width="7.98" height="39.89"/>
      <rect class="cls-62" x="630.45" y="79.81" width="7.98" height="23.93"/>
      <rect class="cls-34" x="638.43" y="79.81" width="7.98" height="23.93"/>
      <rect class="cls-42" x="646.42" y="79.81" width="7.98" height="31.91"/>
      <rect class="cls-96" x="654.4" y="79.81" width="7.98" height="31.91"/>
      <rect class="cls-62" x="686.31" y="79.81" width="7.98" height="7.98"/>
      <polygon class="cls-42" points="710.25 79.81 710.25 143.65 702.27 143.65 702.27 87.79 694.29 87.79 694.29 79.81 710.25 79.81"/>
      <rect class="cls-93" x="710.25" y="79.81" width="7.98" height="63.84"/>
      <rect class="cls-62" x="638.43" y="71.83" width="7.98" height="7.98"/>
      <rect class="cls-96" x="646.42" y="71.83" width="7.98" height="7.98"/>
      <rect class="cls-62" x="694.29" y="71.83" width="7.98" height="7.98"/>
      <rect class="cls-104" x="702.27" y="71.83" width="7.98" height="7.98"/>
    </g>
    <g>
      <rect class="cls-62" x="399.02" y="159.61" width="55.87" height="7.98"/>
      <rect class="cls-62" x="391.04" y="151.63" width="7.98" height="7.98"/>
      <rect class="cls-112" x="414.98" y="151.63" width="39.91" height="7.98"/>
      <rect class="cls-62" x="454.89" y="151.63" width="7.97" height="7.98"/>
      <rect class="cls-98" x="526.71" y="151.63" width="7.98" height="7.98"/>
      <rect class="cls-48" x="407" y="143.65" width="7.98" height="7.98"/>
      <polygon class="cls-14" points="454.89 95.76 454.89 151.63 414.98 151.63 414.98 143.65 446.91 143.65 446.91 95.76 454.89 95.76"/>
      <rect class="cls-111" x="454.89" y="143.65" width="7.97" height="7.98"/>
      <rect class="cls-48" x="399.02" y="135.67" width="7.98" height="7.98"/>
      <rect class="cls-47" x="407" y="135.67" width="7.98" height="7.98"/>
      <rect class="cls-88" x="422.96" y="135.67" width="7.98" height="7.98"/>
      <polygon class="cls-71" points="446.91 127.68 446.91 143.65 430.94 143.65 430.94 135.67 438.93 135.67 438.93 127.68 446.91 127.68"/>
      <polygon class="cls-58" points="542.67 143.65 542.67 167.59 518.73 167.59 518.73 135.67 526.71 135.67 526.71 159.61 534.69 159.61 534.69 143.65 542.67 143.65"/>
      <rect class="cls-34" x="526.71" y="135.67" width="7.98" height="15.96"/>
      <polygon class="cls-21" points="414.98 151.63 414.98 159.61 399.02 159.61 399.02 151.63 391.04 151.63 391.04 127.68 399.02 127.68 399.02 143.65 407 143.65 407 151.63 414.98 151.63"/>
      <polygon class="cls-40" points="422.96 127.68 422.96 143.65 414.98 143.65 414.98 135.67 407 135.67 407 127.68 422.96 127.68"/>
      <rect class="cls-104" x="422.96" y="127.68" width="7.98" height="7.98"/>
      <rect class="cls-90" x="430.94" y="127.68" width="7.98" height="7.98"/>
      <rect class="cls-43" x="534.69" y="127.68" width="7.98" height="15.96"/>
      <rect class="cls-58" x="526.71" y="119.7" width="7.98" height="15.96"/>
      <rect class="cls-6" x="534.69" y="119.7" width="7.98" height="7.98"/>
      <rect class="cls-58" x="542.67" y="119.7" width="7.98" height="23.94"/>
      <rect class="cls-9" x="590.55" y="111.72" width="15.96" height="7.98"/>
      <rect class="cls-58" x="494.78" y="103.74" width="15.96" height="7.98"/>
      <rect class="cls-28" x="510.74" y="103.74" width="7.98" height="7.98"/>
      <rect class="cls-58" x="534.69" y="103.74" width="7.98" height="15.96"/>
      <rect class="cls-43" x="542.67" y="103.74" width="7.98" height="15.96"/>
      <rect class="cls-58" x="550.65" y="103.74" width="7.98" height="15.96"/>
      <rect class="cls-9" x="574.58" y="103.74" width="15.96" height="7.98"/>
      <rect class="cls-16" x="590.55" y="103.74" width="7.98" height="7.98"/>
      <rect class="cls-35" x="598.53" y="103.74" width="7.98" height="7.98"/>
      <rect class="cls-104" x="606.51" y="103.74" width="7.98" height="7.98"/>
      <rect class="cls-58" x="486.8" y="95.76" width="7.98" height="7.98"/>
      <rect class="cls-8" x="494.78" y="95.76" width="23.94" height="7.98"/>
      <rect class="cls-58" x="518.73" y="95.76" width="15.96" height="7.98"/>
      <rect class="cls-34" x="534.69" y="95.76" width="7.98" height="7.98"/>
      <polygon class="cls-58" points="558.63 87.79 558.63 95.76 550.65 95.76 550.65 103.74 542.67 103.74 542.67 87.79 558.63 87.79"/>
      <rect class="cls-6" x="550.65" y="95.76" width="7.98" height="7.98"/>
      <rect class="cls-9" x="558.63" y="95.76" width="15.95" height="7.98"/>
      <rect class="cls-34" x="590.55" y="95.76" width="7.98" height="7.98"/>
      <rect class="cls-30" x="598.53" y="95.76" width="7.98" height="7.98"/>
      <rect class="cls-35" x="606.51" y="95.76" width="7.98" height="7.98"/>
      <rect class="cls-104" x="614.49" y="95.76" width="7.98" height="7.98"/>
      <rect class="cls-62" x="383.06" y="87.79" width="7.98" height="63.84"/>
      <rect class="cls-20" x="391.04" y="87.79" width="7.98" height="39.89"/>
      <rect class="cls-68" x="446.91" y="87.79" width="7.98" height="7.97"/>
      <rect class="cls-58" x="478.82" y="87.78" width="7.98" height="7.98"/>
      <rect class="cls-98" x="486.8" y="87.79" width="7.98" height="7.97"/>
      <rect class="cls-34" x="494.78" y="87.79" width="39.91" height="7.97"/>
      <rect class="cls-42" x="534.69" y="87.79" width="7.98" height="7.97"/>
      <polygon class="cls-92" points="590.55 95.76 590.55 103.74 574.58 103.74 574.58 95.76 558.63 95.76 558.63 87.79 582.56 87.79 582.56 95.76 590.55 95.76"/>
      <rect class="cls-34" x="582.56" y="87.79" width="7.98" height="7.97"/>
      <rect class="cls-30" x="590.55" y="87.79" width="7.98" height="7.97"/>
      <rect class="cls-62" x="391.04" y="79.81" width="7.98" height="7.98"/>
      <rect class="cls-76" x="399.02" y="79.81" width="7.98" height="55.86"/>
      <rect class="cls-42" x="407" y="79.81" width="7.98" height="47.87"/>
      <rect class="cls-63" x="414.98" y="79.81" width="7.98" height="47.87"/>
      <rect class="cls-60" x="438.93" y="79.81" width="7.98" height="47.87"/>
      <polygon class="cls-53" points="462.86 79.81 462.86 143.65 454.89 143.65 454.89 87.79 446.91 87.79 446.91 79.81 462.86 79.81"/>
      <rect class="cls-106" x="462.86" y="79.81" width="7.98" height="71.82"/>
      <rect class="cls-58" x="486.8" y="79.81" width="7.98" height="7.98"/>
      <rect class="cls-100" x="494.78" y="79.81" width="39.91" height="7.98"/>
      <rect class="cls-104" x="534.69" y="79.81" width="7.98" height="7.98"/>
      <rect class="cls-58" x="558.63" y="79.81" width="7.98" height="7.98"/>
      <rect class="cls-111" x="566.62" y="79.81" width="7.97" height="7.98"/>
      <polygon class="cls-100" points="606.51 79.81 606.51 95.76 598.53 95.76 598.53 87.79 574.58 87.79 574.58 79.81 606.51 79.81"/>
      <rect class="cls-104" x="606.51" y="79.81" width="7.98" height="15.95"/>
      <rect class="cls-62" x="399.02" y="71.83" width="7.98" height="7.98"/>
      <rect class="cls-63" x="407" y="71.83" width="7.98" height="7.98"/>
      <rect class="cls-106" x="446.91" y="71.83" width="15.95" height="7.98"/>
      <rect class="cls-104" x="494.78" y="71.83" width="39.91" height="7.98"/>
      <rect class="cls-58" x="566.62" y="71.83" width="7.97" height="7.98"/>
      <rect class="cls-104" x="574.58" y="71.83" width="31.93" height="7.98"/>
    </g>
  </g>
</svg>