<?xml version="1.0" encoding="UTF-8"?>
<svg id="Warstwa_1" data-name="Warstwa 1" xmlns="http://www.w3.org/2000/svg" viewBox="0 0 141.73 102.05">
  <defs>
    <style>
      .cls-1 {
        fill: #4d813b;
      }

      .cls-2 {
        fill: #37542e;
      }

      .cls-3 {
        fill: #569a44;
      }

      .cls-4 {
        fill: #446b34;
      }

      .cls-5 {
        fill: #456b33;
      }

      .cls-6 {
        fill: #37552d;
      }

      .cls-7 {
        fill: #2f4325;
      }

      .cls-8 {
        fill: #6aa748;
      }

      .cls-9 {
        fill: #80b74e;
      }
    </style>
  </defs>
  <rect class="cls-7" x="11.34" y="96.38" width="119.05" height="5.67"/>
  <rect class="cls-7" x="5.67" y="90.71" width="5.67" height="5.67"/>
  <rect class="cls-7" x="130.39" y="90.71" width="5.67" height="5.67"/>
  <rect class="cls-7" y="85.04" width="5.67" height="5.67"/>
  <polygon class="cls-1" points="124.72 56.69 124.72 85.04 113.39 85.04 113.39 90.71 79.37 90.71 79.37 85.04 107.72 85.04 107.72 79.37 119.06 79.37 119.06 56.69 124.72 56.69"/>
  <rect class="cls-5" x="113.39" y="85.04" width="5.67" height="5.67"/>
  <polygon class="cls-8" points="102.05 56.69 102.05 68.03 96.38 68.03 96.38 73.7 79.37 73.7 79.37 79.37 73.7 79.37 73.7 85.04 51.02 85.04 51.02 90.71 5.67 90.71 5.67 73.7 11.34 73.7 11.34 79.37 17.01 79.37 17.01 85.04 39.69 85.04 39.69 79.37 45.35 79.37 45.35 73.7 51.02 73.7 51.02 51.02 45.35 51.02 45.35 45.35 39.69 45.35 39.69 39.69 17.01 39.69 17.01 34.02 51.02 34.02 51.02 39.69 68.03 39.69 68.03 45.35 85.04 45.35 85.04 51.02 90.71 51.02 90.71 56.69 102.05 56.69"/>
  <rect class="cls-1" x="113.39" y="51.02" width="5.67" height="5.67"/>
  <polygon class="cls-2" points="136.06 51.02 136.06 90.71 130.39 90.71 130.39 96.38 11.34 96.38 11.34 90.71 119.06 90.71 119.06 85.04 124.72 85.04 124.72 79.37 130.39 79.37 130.39 51.02 136.06 51.02"/>
  <rect class="cls-7" x="136.06" y="51.02" width="5.67" height="39.69"/>
  <rect class="cls-4" y="45.35" width="5.67" height="39.69"/>
  <rect class="cls-8" x="5.67" y="45.35" width="5.67" height="5.67"/>
  <rect class="cls-1" x="107.72" y="45.35" width="5.67" height="5.67"/>
  <rect class="cls-6" x="124.72" y="45.35" width="5.67" height="5.67"/>
  <rect class="cls-7" x="130.39" y="45.35" width="5.67" height="5.67"/>
  <rect class="cls-4" x="5.67" y="39.69" width="5.67" height="5.67"/>
  <rect class="cls-8" x="11.34" y="39.69" width="5.67" height="5.66"/>
  <polygon class="cls-9" points="51.02 51.02 51.02 73.7 45.35 73.7 45.35 79.37 39.69 79.37 39.69 85.04 17.01 85.04 17.01 79.37 11.34 79.37 11.34 73.7 5.67 73.7 5.67 51.02 11.34 51.02 11.34 45.35 17.01 45.35 17.01 39.69 39.69 39.69 39.69 45.35 45.35 45.35 45.35 51.02 51.02 51.02"/>
  <rect class="cls-4" x="11.34" y="34.02" width="5.67" height="5.67"/>
  <polygon class="cls-3" points="119.06 56.69 119.06 79.37 107.72 79.37 107.72 85.04 79.37 85.04 79.37 90.71 51.02 90.71 51.02 85.04 73.7 85.04 73.7 79.37 79.37 79.37 79.37 73.7 96.38 73.7 96.38 68.03 102.05 68.03 102.05 56.69 90.71 56.69 90.71 51.02 85.04 51.02 85.04 45.35 68.03 45.35 68.03 39.69 51.02 39.69 51.02 34.02 90.71 34.02 90.71 39.69 96.38 39.69 96.38 45.35 107.72 45.35 107.72 51.02 113.39 51.02 113.39 56.69 119.06 56.69"/>
  <polygon class="cls-1" points="107.72 39.69 107.72 45.35 96.38 45.35 96.38 39.69 90.71 39.69 90.71 34.02 102.05 34.02 102.05 39.69 107.72 39.69"/>
  <polygon class="cls-5" points="130.39 51.02 130.39 79.37 124.72 79.37 124.72 56.69 119.06 56.69 119.06 51.02 113.39 51.02 113.39 45.35 107.72 45.35 107.72 39.69 102.05 39.69 102.05 34.02 119.06 34.02 119.06 45.35 124.72 45.35 124.72 51.02 130.39 51.02"/>
  <polygon class="cls-2" points="124.72 28.35 124.72 45.35 119.06 45.35 119.06 34.02 11.34 34.02 11.34 28.35 124.72 28.35"/>
  <polygon class="cls-7" points="130.39 22.68 130.39 45.35 124.72 45.35 124.72 28.35 11.34 28.35 11.34 22.68 130.39 22.68"/>
  <rect class="cls-2" x="5.67" y="17.01" width="5.67" height="5.67"/>
  <rect class="cls-8" x="11.34" y="17.01" width="5.67" height="5.67"/>
  <polygon class="cls-8" points="113.39 5.67 113.39 11.34 102.05 11.34 102.05 17.01 45.35 17.01 45.35 22.68 28.35 22.68 28.35 17.01 34.02 17.01 34.02 11.34 28.35 11.34 28.35 5.67 113.39 5.67"/>
  <polygon class="cls-3" points="124.72 5.67 124.72 11.34 119.06 11.34 119.06 17.01 107.72 17.01 107.72 22.68 45.35 22.68 45.35 17.01 102.05 17.01 102.05 11.34 113.39 11.34 113.39 5.67 124.72 5.67"/>
  <polygon class="cls-1" points="124.72 11.34 124.72 22.68 107.72 22.68 107.72 17.01 119.06 17.01 119.06 11.34 124.72 11.34"/>
  <rect class="cls-6" x="124.72" y="17.01" width="5.67" height="5.67"/>
  <rect class="cls-7" x="130.39" y="17.01" width="5.67" height="5.67"/>
  <rect class="cls-2" y="11.34" width="5.67" height="5.67"/>
  <polygon class="cls-9" points="34.02 11.34 34.02 17.01 28.35 17.01 28.35 22.68 17.01 22.68 17.01 17.01 11.34 17.01 11.34 5.67 28.35 5.67 28.35 11.34 34.02 11.34"/>
  <polygon class="cls-4" points="136.06 5.67 136.06 11.34 130.39 11.34 130.39 17.01 124.72 17.01 124.72 5.67 136.06 5.67"/>
  <rect class="cls-6" x="130.39" y="11.34" width="5.67" height="5.67"/>
  <polygon class="cls-4" points="34.02 0 34.02 5.67 5.67 5.67 5.67 11.34 0 11.34 0 0 34.02 0"/>
  <rect class="cls-8" x="5.67" y="5.67" width="5.67" height="11.34"/>
  <rect class="cls-2" x="34.02" width="22.67" height="5.67"/>
  <polygon class="cls-7" points="141.73 0 141.73 17.01 136.06 17.01 136.06 5.67 56.69 5.67 56.69 0 141.73 0"/>
</svg>