<?xml version="1.0" encoding="UTF-8"?>
<svg id="Warstwa_1" data-name="Warstwa 1" xmlns="http://www.w3.org/2000/svg" viewBox="0 0 141.73 102.04">
  <defs>
    <style>
      .cls-1 {
        fill: #8d3587;
      }

      .cls-2 {
        fill: #ea9792;
      }

      .cls-3 {
        fill: #3363a3;
      }

      .cls-4 {
        fill: #4a9cc1;
      }

      .cls-5 {
        fill: #9a3f88;
      }

      .cls-6 {
        fill: #3f1f4d;
      }

      .cls-7 {
        fill: #5b2665;
      }

      .cls-8 {
        fill: #f4b1a5;
      }

      .cls-9 {
        fill: #3f2153;
      }

      .cls-10 {
        fill: #8d3585;
      }

      .cls-11 {
        fill: #732b79;
      }

      .cls-12 {
        fill: #b7508e;
      }

      .cls-13 {
        fill: #cc6c88;
      }
    </style>
  </defs>
  <rect class="cls-6" x="17.01" y="96.38" width="107.71" height="5.66"/>
  <rect class="cls-6" x="11.34" y="90.71" width="5.67" height="5.67"/>
  <rect class="cls-7" x="17.01" y="90.71" width="107.71" height="5.67"/>
  <rect class="cls-6" x="124.72" y="90.71" width="5.67" height="5.67"/>
  <rect class="cls-6" x="5.67" y="85.04" width="5.67" height="5.67"/>
  <rect class="cls-10" x="45.35" y="85.04" width="39.69" height="5.67"/>
  <polygon class="cls-11" points="136.06 68.03 136.06 73.7 130.39 73.7 130.39 85.04 124.72 85.04 124.72 90.71 85.04 90.71 85.04 85.04 113.39 85.04 113.39 79.37 119.06 79.37 119.06 73.7 124.72 73.7 124.72 68.03 136.06 68.03"/>
  <rect class="cls-7" x="124.72" y="85.04" width="5.67" height="5.67"/>
  <rect class="cls-6" x="130.39" y="85.04" width="5.67" height="5.67"/>
  <rect class="cls-6" y="79.37" width="5.67" height="5.67"/>
  <polygon class="cls-11" points="45.35 85.04 45.35 90.71 17.01 90.71 17.01 79.37 22.68 79.37 22.68 85.04 45.35 85.04"/>
  <rect class="cls-10" x="22.68" y="79.37" width="17.01" height="5.67"/>
  <polygon class="cls-10" points="124.72 68.03 124.72 73.7 119.06 73.7 119.06 79.37 113.39 79.37 113.39 85.04 90.71 85.04 90.71 79.37 102.05 79.37 102.05 73.7 113.39 73.7 113.39 68.03 124.72 68.03"/>
  <rect class="cls-7" x="130.39" y="79.37" width="5.67" height="5.67"/>
  <rect class="cls-11" x="11.34" y="73.7" width="5.67" height="5.67"/>
  <rect class="cls-10" x="17.01" y="73.7" width="5.67" height="5.67"/>
  <rect class="cls-7" x="130.39" y="73.7" width="5.67" height="5.67"/>
  <rect class="cls-10" x="5.67" y="68.03" width="11.34" height="5.67"/>
  <polygon class="cls-5" points="113.39 68.03 113.39 73.7 102.05 73.7 102.05 79.37 90.71 79.37 90.71 85.04 39.69 85.04 39.69 79.37 22.68 79.37 22.68 73.7 17.01 73.7 17.01 68.03 113.39 68.03"/>
  <rect class="cls-8" x="5.67" y="62.36" width="107.72" height="5.67"/>
  <rect class="cls-2" x="113.39" y="62.36" width="22.67" height="5.67"/>
  <rect class="cls-13" x="5.67" y="56.69" width="5.67" height="5.67"/>
  <rect class="cls-1" x="11.34" y="56.69" width="5.67" height="5.67"/>
  <rect class="cls-4" x="17.01" y="56.69" width="5.67" height="5.67"/>
  <rect class="cls-5" x="22.68" y="56.69" width="5.67" height="5.67"/>
  <rect class="cls-13" x="28.35" y="56.69" width="5.67" height="5.67"/>
  <rect class="cls-5" x="34.02" y="56.69" width="5.67" height="5.67"/>
  <rect class="cls-4" x="39.69" y="56.69" width="5.66" height="5.67"/>
  <rect class="cls-5" x="45.35" y="56.69" width="5.67" height="5.67"/>
  <rect class="cls-13" x="51.02" y="56.69" width="5.67" height="5.67"/>
  <rect class="cls-5" x="56.69" y="56.69" width="5.67" height="5.67"/>
  <rect class="cls-4" x="62.36" y="56.69" width="5.67" height="5.67"/>
  <rect class="cls-5" x="68.03" y="56.69" width="5.67" height="5.67"/>
  <rect class="cls-13" x="73.7" y="56.69" width="5.67" height="5.67"/>
  <rect class="cls-5" x="79.37" y="56.69" width="5.67" height="5.67"/>
  <rect class="cls-4" x="85.04" y="56.69" width="5.67" height="5.67"/>
  <rect class="cls-5" x="90.71" y="56.69" width="5.67" height="5.67"/>
  <rect class="cls-13" x="96.38" y="56.69" width="5.67" height="5.67"/>
  <rect class="cls-5" x="102.05" y="56.69" width="5.67" height="5.67"/>
  <rect class="cls-4" x="107.72" y="56.69" width="5.67" height="5.67"/>
  <rect class="cls-5" x="113.39" y="56.69" width="5.67" height="5.67"/>
  <rect class="cls-12" x="119.06" y="56.69" width="5.66" height="5.67"/>
  <rect class="cls-11" x="124.72" y="56.69" width="5.67" height="5.67"/>
  <rect class="cls-3" x="130.39" y="56.69" width="5.67" height="5.67"/>
  <rect class="cls-13" x="11.34" y="51.02" width="5.67" height="5.67"/>
  <rect class="cls-5" x="17.01" y="51.02" width="5.67" height="5.67"/>
  <rect class="cls-13" x="22.68" y="51.02" width="5.67" height="5.67"/>
  <rect class="cls-13" x="34.02" y="51.02" width="5.67" height="5.67"/>
  <rect class="cls-5" x="39.69" y="51.02" width="5.67" height="5.67"/>
  <rect class="cls-13" x="45.35" y="51.02" width="5.67" height="5.67"/>
  <rect class="cls-13" x="56.69" y="51.02" width="5.67" height="5.67"/>
  <rect class="cls-5" x="62.36" y="51.02" width="5.67" height="5.67"/>
  <rect class="cls-13" x="68.03" y="51.02" width="5.67" height="5.67"/>
  <rect class="cls-13" x="79.37" y="51.02" width="5.67" height="5.67"/>
  <rect class="cls-5" x="85.04" y="51.02" width="5.67" height="5.67"/>
  <rect class="cls-13" x="90.71" y="51.02" width="5.67" height="5.67"/>
  <rect class="cls-13" x="102.05" y="51.02" width="5.67" height="5.67"/>
  <rect class="cls-5" x="107.72" y="51.02" width="5.67" height="5.67"/>
  <rect class="cls-13" x="113.39" y="51.02" width="5.67" height="5.67"/>
  <polygon class="cls-10" points="130.39 28.34 130.39 51.02 124.72 51.02 124.72 56.69 119.06 56.69 119.06 39.68 124.72 39.68 124.72 28.34 130.39 28.34"/>
  <rect class="cls-12" x="124.72" y="51.02" width="5.67" height="5.67"/>
  <rect class="cls-11" x="130.39" y="51.02" width="5.67" height="5.67"/>
  <rect class="cls-13" x="17.01" y="45.35" width="5.67" height="5.67"/>
  <rect class="cls-13" x="39.69" y="45.35" width="5.66" height="5.67"/>
  <rect class="cls-13" x="62.36" y="45.35" width="5.67" height="5.67"/>
  <rect class="cls-13" x="85.04" y="45.35" width="5.67" height="5.67"/>
  <rect class="cls-13" x="107.72" y="45.35" width="5.67" height="5.67"/>
  <rect class="cls-12" x="130.39" y="45.35" width="5.67" height="5.67"/>
  <polygon class="cls-7" points="17.01 79.37 17.01 90.71 11.34 90.71 11.34 85.04 5.67 85.04 5.67 79.37 0 79.37 0 39.68 5.67 39.68 5.67 73.7 11.34 73.7 11.34 79.37 17.01 79.37"/>
  <polygon class="cls-5" points="124.72 28.34 124.72 39.68 119.06 39.68 119.06 51.02 113.39 51.02 113.39 45.35 107.72 45.35 107.72 51.02 102.05 51.02 102.05 56.69 96.38 56.69 96.38 51.02 90.71 51.02 90.71 45.35 85.04 45.35 85.04 51.02 79.37 51.02 79.37 56.69 73.7 56.69 73.7 51.02 68.03 51.02 68.03 45.35 62.36 45.35 62.36 51.02 56.69 51.02 56.69 56.69 51.02 56.69 51.02 51.02 45.35 51.02 45.35 45.35 39.69 45.35 39.69 51.02 34.02 51.02 34.02 56.69 28.35 56.69 28.35 51.02 22.68 51.02 22.68 45.35 17.01 45.35 17.01 28.34 22.68 28.34 22.68 22.67 28.35 22.67 28.35 17.01 90.71 17.01 90.71 22.67 113.39 22.67 113.39 28.34 124.72 28.34"/>
  <polygon class="cls-11" points="22.68 11.34 22.68 17.01 17.01 17.01 17.01 22.67 11.34 22.67 11.34 39.68 0 39.68 0 34.01 5.67 34.01 5.67 11.34 22.68 11.34"/>
  <polygon class="cls-10" points="124.72 22.67 124.72 28.34 113.39 28.34 113.39 22.67 90.71 22.67 90.71 17.01 28.35 17.01 28.35 22.67 22.68 22.67 22.68 28.34 17.01 28.34 17.01 51.02 11.34 51.02 11.34 56.69 5.67 56.69 5.67 39.68 11.34 39.68 11.34 22.67 17.01 22.67 17.01 17.01 22.68 17.01 22.68 11.34 102.05 11.34 102.05 17.01 119.06 17.01 119.06 22.67 124.72 22.67"/>
  <rect class="cls-7" y="11.34" width="5.67" height="22.67"/>
  <polygon class="cls-11" points="136.06 22.67 136.06 45.35 130.39 45.35 130.39 28.34 124.72 28.34 124.72 22.67 119.06 22.67 119.06 17.01 102.05 17.01 102.05 11.34 124.72 11.34 124.72 17.01 130.39 17.01 130.39 22.67 136.06 22.67"/>
  <rect class="cls-9" x="136.06" y="11.34" width="5.67" height="73.7"/>
  <polygon class="cls-7" points="136.06 11.34 136.06 22.67 130.39 22.67 130.39 17.01 124.72 17.01 124.72 11.34 5.67 11.34 5.67 5.67 130.39 5.67 130.39 11.34 136.06 11.34"/>
  <rect class="cls-9" x="130.39" y="5.67" width="5.67" height="5.67"/>
  <rect class="cls-9" x="11.34" width="119.05" height="5.67"/>
</svg>