<?xml version="1.0" encoding="UTF-8"?>
<svg id="Warstwa_1" data-name="Warstwa 1" xmlns="http://www.w3.org/2000/svg" viewBox="0 0 141.73 102.04">
  <defs>
    <style>
      .cls-1 {
        fill: #28387d;
      }

      .cls-2 {
        fill: #8ed0d8;
      }

      .cls-3 {
        fill: #32669d;
      }

      .cls-4 {
        fill: #3363a3;
      }

      .cls-5 {
        fill: #6ec5d5;
      }

      .cls-6 {
        fill: #2d488e;
      }

      .cls-7 {
        fill: #2c4a8f;
      }

      .cls-8 {
        fill: #2c3679;
      }

      .cls-9 {
        fill: #3364a0;
      }

      .cls-10 {
        fill: #27387c;
      }

      .cls-11 {
        fill: #3d7ab0;
      }

      .cls-12 {
        fill: #2b498f;
      }

      .cls-13 {
        fill: #4a9dc3;
      }

      .cls-14 {
        fill: #2a2d67;
      }

      .cls-15 {
        fill: #2e498d;
      }
    </style>
  </defs>
  <polygon class="cls-14" points="107.72 90.7 107.72 102.04 34.01 102.04 34.01 90.7 39.68 90.7 39.68 96.37 102.05 96.37 102.05 90.7 107.72 90.7"/>
  <rect class="cls-1" x="39.68" y="90.7" width="17.01" height="5.67"/>
  <rect class="cls-7" x="56.69" y="90.7" width="34.02" height="5.67"/>
  <rect class="cls-1" x="90.71" y="90.7" width="11.34" height="5.67"/>
  <rect class="cls-1" x="34.01" y="85.03" width="5.67" height="5.67"/>
  <rect class="cls-11" x="45.35" y="85.03" width="5.67" height="5.67"/>
  <rect class="cls-5" x="51.02" y="85.03" width="5.67" height="5.67"/>
  <rect class="cls-2" x="56.69" y="85.03" width="17.01" height="5.67"/>
  <rect class="cls-5" x="73.7" y="85.03" width="5.67" height="5.67"/>
  <rect class="cls-11" x="79.37" y="85.03" width="5.67" height="5.67"/>
  <rect class="cls-4" x="85.04" y="85.03" width="11.34" height="5.67"/>
  <rect class="cls-1" x="102.05" y="85.03" width="5.67" height="5.67"/>
  <polygon class="cls-14" points="141.73 0 141.73 28.34 136.06 28.34 136.06 51.02 130.39 51.02 130.39 62.36 124.72 62.36 124.72 73.7 119.05 73.7 119.05 85.03 113.38 85.03 113.38 90.7 107.72 90.7 107.72 85.03 102.05 85.03 102.05 79.37 113.38 79.37 113.38 73.7 107.72 73.7 107.72 68.03 119.05 68.03 119.05 62.36 113.38 62.36 113.38 56.69 124.72 56.69 124.72 51.02 119.05 51.02 119.05 45.35 130.39 45.35 130.39 28.34 124.72 28.34 124.72 22.67 136.06 22.67 136.06 5.66 130.39 5.66 130.39 0 141.73 0"/>
  <rect class="cls-7" x="39.68" y="79.37" width="5.67" height="11.33"/>
  <rect class="cls-4" x="45.35" y="79.37" width="5.67" height="5.66"/>
  <rect class="cls-13" x="51.02" y="79.37" width="22.68" height="5.66"/>
  <polygon class="cls-4" points="102.05 73.7 102.05 79.37 85.04 79.37 85.04 85.03 73.7 85.03 73.7 79.37 79.37 79.37 79.37 73.7 102.05 73.7"/>
  <polygon class="cls-7" points="102.05 79.37 102.05 90.7 96.38 90.7 96.38 85.03 85.04 85.03 85.04 79.37 102.05 79.37"/>
  <rect class="cls-1" x="28.35" y="73.7" width="5.66" height="5.67"/>
  <rect class="cls-7" x="34.01" y="73.7" width="5.67" height="5.67"/>
  <rect class="cls-11" x="39.68" y="73.7" width="5.67" height="5.67"/>
  <rect class="cls-5" x="45.35" y="73.7" width="5.67" height="5.67"/>
  <rect class="cls-2" x="51.02" y="73.7" width="11.34" height="5.67"/>
  <rect class="cls-5" x="62.36" y="73.7" width="11.34" height="5.67"/>
  <rect class="cls-11" x="73.7" y="73.7" width="5.67" height="5.67"/>
  <rect class="cls-15" x="102.05" y="73.7" width="5.67" height="5.67"/>
  <rect class="cls-1" x="107.72" y="73.7" width="5.66" height="5.67"/>
  <rect class="cls-4" x="34.01" y="68.03" width="5.67" height="5.67"/>
  <rect class="cls-4" x="39.68" y="68.03" width="5.67" height="5.67"/>
  <rect class="cls-13" x="45.35" y="68.03" width="17.01" height="5.67"/>
  <rect class="cls-4" x="62.36" y="68.03" width="11.34" height="5.67"/>
  <rect class="cls-7" x="73.7" y="68.03" width="28.35" height="5.67"/>
  <rect class="cls-1" x="102.05" y="68.03" width="5.67" height="5.67"/>
  <rect class="cls-1" x="22.68" y="62.36" width="5.67" height="5.67"/>
  <rect class="cls-7" x="28.35" y="62.36" width="5.66" height="11.34"/>
  <rect class="cls-11" x="34.01" y="62.36" width="5.67" height="5.67"/>
  <rect class="cls-5" x="39.68" y="62.36" width="5.67" height="5.67"/>
  <rect class="cls-2" x="45.35" y="62.36" width="17.01" height="5.67"/>
  <rect class="cls-5" x="62.36" y="62.36" width="5.67" height="5.67"/>
  <rect class="cls-11" x="68.03" y="62.36" width="11.34" height="5.67"/>
  <rect class="cls-3" x="79.37" y="62.36" width="28.35" height="5.67"/>
  <rect class="cls-1" x="113.38" y="62.36" width="5.67" height="5.67"/>
  <rect class="cls-9" x="28.35" y="56.69" width="5.66" height="5.67"/>
  <rect class="cls-13" x="34.01" y="56.69" width="28.35" height="5.67"/>
  <rect class="cls-4" x="62.36" y="56.69" width="5.67" height="5.67"/>
  <polygon class="cls-7" points="113.38 56.69 113.38 68.03 107.72 68.03 107.72 62.36 68.03 62.36 68.03 56.69 113.38 56.69"/>
  <rect class="cls-1" x="17.01" y="51.02" width="5.67" height="5.67"/>
  <rect class="cls-11" x="28.35" y="51.02" width="5.66" height="5.67"/>
  <rect class="cls-5" x="34.01" y="51.02" width="5.67" height="5.67"/>
  <rect class="cls-2" x="39.68" y="51.02" width="17.01" height="5.67"/>
  <rect class="cls-5" x="56.69" y="51.02" width="5.67" height="5.67"/>
  <rect class="cls-11" x="62.36" y="51.02" width="17.01" height="5.67"/>
  <rect class="cls-3" x="79.37" y="51.02" width="34.01" height="5.67"/>
  <rect class="cls-6" x="113.38" y="51.02" width="5.67" height="5.67"/>
  <rect class="cls-1" x="119.05" y="51.02" width="5.67" height="5.67"/>
  <rect class="cls-7" x="22.68" y="45.35" width="5.67" height="17.01"/>
  <rect class="cls-4" x="28.35" y="45.35" width="5.66" height="5.67"/>
  <rect class="cls-13" x="34.01" y="45.35" width="22.68" height="5.67"/>
  <rect class="cls-4" x="56.69" y="45.35" width="11.34" height="5.67"/>
  <rect class="cls-7" x="68.03" y="45.35" width="45.35" height="5.67"/>
  <rect class="cls-10" x="113.38" y="45.35" width="5.67" height="5.67"/>
  <polygon class="cls-11" points="96.38 28.34 96.38 34.01 90.71 34.01 90.71 39.68 85.04 39.68 85.04 45.35 62.36 45.35 62.36 28.34 96.38 28.34"/>
  <polygon class="cls-3" points="124.72 28.34 124.72 34.01 119.05 34.01 119.05 39.68 113.38 39.68 113.38 45.35 85.04 45.35 85.04 39.68 90.71 39.68 90.71 34.01 96.38 34.01 96.38 28.34 124.72 28.34"/>
  <rect class="cls-6" x="113.38" y="39.68" width="5.67" height="5.67"/>
  <rect class="cls-1" x="119.05" y="39.68" width="5.67" height="5.67"/>
  <rect class="cls-1" x="124.72" y="39.68" width="5.67" height="5.67"/>
  <rect class="cls-7" x="17.01" y="34.01" width="5.67" height="11.34"/>
  <rect class="cls-5" x="28.35" y="34.01" width="5.66" height="11.34"/>
  <rect class="cls-6" x="119.05" y="34.01" width="5.67" height="5.67"/>
  <rect class="cls-1" x="124.72" y="34.01" width="5.67" height="5.67"/>
  <rect class="cls-11" x="22.68" y="28.34" width="5.67" height="17.01"/>
  <polygon class="cls-2" points="56.69 39.68 56.69 45.35 34.01 45.35 34.01 34.01 28.35 34.01 28.35 28.34 45.35 28.34 45.35 39.68 56.69 39.68"/>
  <polygon class="cls-5" points="62.36 28.34 62.36 45.35 56.69 45.35 56.69 39.68 45.35 39.68 45.35 28.34 62.36 28.34"/>
  <rect class="cls-6" x="124.72" y="28.34" width="5.67" height="5.67"/>
  <rect class="cls-8" x="11.34" y="22.67" width="5.67" height="22.68"/>
  <rect class="cls-13" x="28.35" y="22.67" width="17" height="5.67"/>
  <rect class="cls-4" x="45.35" y="22.67" width="11.34" height="5.67"/>
  <polygon class="cls-7" points="130.39 5.66 130.39 17 124.72 17 124.72 22.67 119.05 22.67 119.05 28.34 56.69 28.34 56.69 22.67 107.72 22.67 107.72 17 119.05 17 119.05 11.33 124.72 11.33 124.72 5.66 130.39 5.66"/>
  <rect class="cls-1" x="119.05" y="22.67" width="5.67" height="5.67"/>
  <polygon class="cls-5" points="56.69 17 56.69 22.67 45.35 22.67 45.35 17 28.35 17 28.35 22.67 22.68 22.67 22.68 11.33 51.02 11.33 51.02 17 56.69 17"/>
  <rect class="cls-2" x="28.35" y="17" width="17" height="5.67"/>
  <polygon class="cls-4" points="124.72 5.66 124.72 11.33 119.05 11.33 119.05 17 107.72 17 107.72 22.67 90.71 22.67 90.71 17 96.38 17 96.38 11.33 102.05 11.33 102.05 5.66 124.72 5.66"/>
  <rect class="cls-1" x="124.72" y="17" width="5.67" height="5.67"/>
  <rect class="cls-1" x="130.39" y="17" width="5.67" height="5.67"/>
  <rect class="cls-7" x="11.34" y="11.33" width="5.67" height="11.34"/>
  <rect class="cls-1" x="130.39" y="11.33" width="5.67" height="5.67"/>
  <rect class="cls-8" x="5.67" y="5.66" width="5.67" height="17.01"/>
  <polygon class="cls-4" points="28.35 22.67 28.35 28.34 22.68 28.34 22.68 34.01 17.01 34.01 17.01 11.33 11.34 11.33 11.34 5.66 22.68 5.66 22.68 22.67 28.35 22.67"/>
  <polygon class="cls-11" points="102.05 5.66 102.05 11.33 96.38 11.33 96.38 17 90.71 17 90.71 22.67 56.69 22.67 56.69 17 51.02 17 51.02 11.33 22.68 11.33 22.68 5.66 102.05 5.66"/>
  <rect class="cls-1" x="130.39" y="5.66" width="5.67" height="5.67"/>
  <polygon class="cls-14" points="39.68 79.37 39.68 85.03 34.01 85.03 34.01 90.7 28.35 90.7 28.35 85.03 22.68 85.03 22.68 73.7 17.01 73.7 17.01 62.36 11.34 62.36 11.34 51.02 5.67 51.02 5.67 28.34 0 28.34 0 0 11.34 0 11.34 5.66 5.67 5.66 5.67 22.67 11.34 22.67 11.34 45.35 22.68 45.35 22.68 51.02 17.01 51.02 17.01 56.69 22.68 56.69 22.68 68.03 28.35 68.03 28.35 79.37 39.68 79.37"/>
  <rect class="cls-8" x="11.34" width="5.67" height="5.66"/>
  <rect class="cls-12" x="17.01" width="5.67" height="5.66"/>
  <rect class="cls-4" x="22.68" width="73.7" height="5.66"/>
  <rect class="cls-7" x="96.38" width="28.34" height="5.66"/>
  <rect class="cls-1" x="124.72" width="5.67" height="5.66"/>
</svg>