<?xml version="1.0" encoding="UTF-8"?>
<svg id="Warstwa_1" data-name="Warstwa 1" xmlns="http://www.w3.org/2000/svg" viewBox="0 0 442.21 68.04">
  <defs>
    <style>
      .cls-1 {
        fill: #ecbd4a;
      }

      .cls-2 {
        fill: #efb952;
      }

      .cls-3 {
        fill: #db8539;
      }

      .cls-4 {
        fill: #edbc4a;
      }

      .cls-5 {
        fill: #eba94a;
      }

      .cls-6 {
        fill: #eeb953;
      }

      .cls-7 {
        fill: #eca849;
      }

      .cls-8 {
        fill: #dd823c;
      }

      .cls-9 {
        fill: #df823a;
      }

      .cls-10 {
        fill: #ebbc4b;
      }

      .cls-11 {
        fill: #dd8339;
      }

      .cls-12 {
        fill: #eaa84b;
      }

      .cls-13 {
        fill: #e8aa48;
      }

      .cls-14 {
        fill: #2e7e41;
      }

      .cls-15 {
        fill: #dd833c;
      }

      .cls-16 {
        fill: #eca949;
      }

      .cls-17 {
        fill: #efb84f;
      }

      .cls-18 {
        fill: #eca847;
      }

      .cls-19 {
        fill: #f0a54a;
      }

      .cls-20 {
        fill: #eda946;
      }

      .cls-21 {
        fill: #eda644;
      }

      .cls-22 {
        fill: #193432;
      }

      .cls-23 {
        fill: #eba84b;
      }

      .cls-24 {
        fill: #eba946;
      }

      .cls-25 {
        fill: #63211d;
      }

      .cls-26 {
        fill: #18583f;
      }

      .cls-27 {
        fill: #efb84e;
      }

      .cls-28 {
        fill: #efbb4a;
      }

      .cls-29 {
        fill: #eabe42;
      }

      .cls-30 {
        fill: #eebb49;
      }

      .cls-31 {
        fill: #eba848;
      }

      .cls-32 {
        fill: #f1b94b;
      }

      .cls-33 {
        fill: #f3b84c;
      }

      .cls-34 {
        fill: #7f4131;
      }

      .cls-35 {
        fill: #eba847;
      }

      .cls-36 {
        fill: #7f4133;
      }

      .cls-37 {
        fill: #dd8439;
      }

      .cls-38 {
        fill: #e9aa40;
      }

      .cls-39 {
        fill: #2a4d3d;
      }

      .cls-40 {
        fill: #814331;
      }

      .cls-41 {
        fill: #eaa848;
      }

      .cls-42 {
        fill: #f0b84f;
      }

      .cls-43 {
        fill: #f0b953;
      }

      .cls-44 {
        fill: #ecbc49;
      }

      .cls-45 {
        fill: #f3cc92;
      }

      .cls-46 {
        fill: #f1ba44;
      }

      .cls-47 {
        fill: #eca84a;
      }

      .cls-48 {
        fill: #f5a350;
      }

      .cls-49 {
        fill: #c5935e;
      }

      .cls-50 {
        fill: #61211e;
      }

      .cls-51 {
        fill: #e9a945;
      }

      .cls-52 {
        fill: #64201d;
      }

      .cls-53 {
        fill: #eca845;
      }

      .cls-54 {
        fill: #e5a844;
      }

      .cls-55 {
        fill: #eaa956;
      }

      .cls-56 {
        fill: #efba50;
      }

      .cls-57 {
        fill: #dec349;
      }

      .cls-58 {
        fill: #173631;
      }

      .cls-59 {
        fill: #edb85c;
      }

      .cls-60 {
        fill: #e9a949;
      }

      .cls-61 {
        fill: #f0b850;
      }

      .cls-62 {
        fill: #f1ba45;
      }

      .cls-63 {
        fill: #833f33;
      }

      .cls-64 {
        fill: #e9a94c;
      }

      .cls-65 {
        fill: #e08238;
      }

      .cls-66 {
        fill: #60221d;
      }

      .cls-67 {
        fill: #de823b;
      }

      .cls-68 {
        fill: #eba945;
      }

      .cls-69 {
        fill: #e9a83f;
      }

      .cls-70 {
        fill: #f0a54c;
      }

      .cls-71 {
        fill: #f0bb44;
      }

      .cls-72 {
        fill: #1f3135;
      }

      .cls-73 {
        fill: #e18238;
      }

      .cls-74 {
        fill: #df813a;
      }

      .cls-75 {
        fill: #d36d2e;
      }

      .cls-76 {
        fill: #e0833a;
      }

      .cls-77 {
        fill: #e9a84c;
      }

      .cls-78 {
        fill: #ac5940;
      }

      .cls-79 {
        fill: #edba50;
      }

      .cls-80 {
        fill: #1d543f;
      }

      .cls-81 {
        fill: #de823a;
      }

      .cls-82 {
        fill: #6f3734;
      }

      .cls-83 {
        fill: #eba845;
      }

      .cls-84 {
        fill: #f3d852;
      }

      .cls-85 {
        fill: #efbb47;
      }

      .cls-86 {
        fill: #c7935b;
      }

      .cls-87 {
        fill: #f0b950;
      }

      .cls-88 {
        fill: #eabb54;
      }

      .cls-89 {
        fill: #823f32;
      }

      .cls-90 {
        fill: #579942;
      }

      .cls-91 {
        fill: #eca848;
      }

      .cls-92 {
        fill: #eba84e;
      }

      .cls-93 {
        fill: #f4a549;
      }

      .cls-94 {
        fill: #eea649;
      }

      .cls-95 {
        fill: #eba841;
      }

      .cls-96 {
        fill: #efbc4a;
      }

      .cls-97 {
        fill: #f3b753;
      }

      .cls-98 {
        fill: #efba4c;
      }

      .cls-99 {
        fill: #e9a948;
      }

      .cls-100 {
        fill: #eaa843;
      }

      .cls-101 {
        fill: #e08237;
      }

      .cls-102 {
        fill: #dc8139;
      }
    </style>
  </defs>
  <rect class="cls-75" x="56.7" y="56.7" width="11.33" height="5.67"/>
  <rect class="cls-75" x="90.71" y="56.7" width="11.34" height="5.67"/>
  <rect class="cls-79" x="51.03" y="51.03" width="5.67" height="5.67"/>
  <rect class="cls-5" x="56.7" y="51.03" width="5.67" height="5.67"/>
  <rect class="cls-37" x="62.37" y="51.03" width="5.66" height="5.67"/>
  <rect class="cls-57" x="85.04" y="51.03" width="5.67" height="5.67"/>
  <rect class="cls-51" x="90.71" y="51.03" width="5.67" height="5.67"/>
  <rect class="cls-76" x="96.38" y="51.03" width="5.67" height="5.67"/>
  <rect class="cls-84" x="51.03" y="45.36" width="5.67" height="5.67"/>
  <rect class="cls-28" x="56.7" y="45.36" width="5.67" height="5.67"/>
  <rect class="cls-83" x="62.37" y="45.36" width="5.66" height="5.67"/>
  <rect class="cls-75" x="68.03" y="45.36" width="5.67" height="11.34"/>
  <rect class="cls-84" x="85.04" y="45.36" width="5.67" height="5.67"/>
  <rect class="cls-30" x="90.71" y="45.36" width="5.67" height="5.67"/>
  <rect class="cls-51" x="96.38" y="45.36" width="5.67" height="5.67"/>
  <rect class="cls-75" x="34.02" y="39.69" width="5.67" height="5.67"/>
  <rect class="cls-75" x="39.69" y="39.69" width="5.67" height="5.67"/>
  <rect class="cls-84" x="56.7" y="39.69" width="5.67" height="5.67"/>
  <rect class="cls-31" x="62.37" y="39.69" width="5.67" height="5.67"/>
  <rect class="cls-22" x="73.7" y="39.69" width="11.34" height="5.67"/>
  <rect class="cls-84" x="90.71" y="39.69" width="5.67" height="5.67"/>
  <rect class="cls-35" x="96.38" y="39.69" width="5.67" height="5.67"/>
  <rect class="cls-87" x="28.35" y="34.02" width="5.67" height="5.67"/>
  <rect class="cls-48" x="34.02" y="34.02" width="5.67" height="5.67"/>
  <rect class="cls-67" x="39.69" y="34.02" width="5.67" height="5.67"/>
  <rect class="cls-75" x="45.36" y="34.02" width="5.67" height="5.67"/>
  <rect class="cls-58" x="68.03" y="34.02" width="5.67" height="5.67"/>
  <rect class="cls-58" x="85.04" y="34.02" width="5.67" height="5.67"/>
  <rect class="cls-25" x="5.67" y="28.35" width="22.68" height="5.67"/>
  <rect class="cls-84" x="28.35" y="28.35" width="5.67" height="5.67"/>
  <rect class="cls-43" x="34.02" y="28.35" width="5.67" height="5.67"/>
  <rect class="cls-16" x="39.69" y="28.35" width="5.67" height="5.67"/>
  <rect class="cls-75" x="45.36" y="28.35" width="5.67" height="5.67"/>
  <rect class="cls-50" x="51.03" y="28.35" width="5.67" height="5.67"/>
  <rect class="cls-72" x="56.7" y="28.35" width="11.33" height="5.67"/>
  <rect class="cls-50" x="68.03" y="28.35" width="22.68" height="5.67"/>
  <rect class="cls-72" x="90.71" y="28.35" width="11.34" height="5.67"/>
  <rect class="cls-36" x="5.67" y="22.68" width="5.67" height="5.67"/>
  <rect class="cls-75" x="11.34" y="22.68" width="11.34" height="5.67"/>
  <rect class="cls-36" x="22.68" y="22.68" width="5.67" height="5.67"/>
  <rect class="cls-36" x="28.35" y="22.68" width="5.67" height="5.67"/>
  <rect class="cls-84" x="34.02" y="22.68" width="5.67" height="5.67"/>
  <rect class="cls-55" x="39.69" y="22.68" width="5.67" height="5.67"/>
  <rect class="cls-34" x="45.36" y="22.68" width="5.67" height="5.67"/>
  <rect class="cls-26" x="51.03" y="22.68" width="5.67" height="5.67"/>
  <rect class="cls-34" x="56.7" y="22.68" width="45.35" height="5.67"/>
  <rect class="cls-62" x="5.67" y="17.01" width="5.67" height="5.67"/>
  <rect class="cls-35" x="11.34" y="17.01" width="5.67" height="5.67"/>
  <rect class="cls-67" x="17.01" y="17.01" width="5.67" height="5.67"/>
  <rect class="cls-78" x="28.35" y="17.01" width="5.67" height="5.67"/>
  <rect class="cls-78" x="34.02" y="17.01" width="5.67" height="5.67"/>
  <rect class="cls-80" x="39.69" y="17.01" width="11.34" height="5.67"/>
  <rect class="cls-78" x="51.03" y="17.01" width="56.69" height="5.67"/>
  <rect class="cls-25" y="11.34" width="5.67" height="17.01"/>
  <rect class="cls-84" x="5.67" y="11.34" width="5.67" height="5.67"/>
  <rect class="cls-17" x="11.34" y="11.34" width="5.67" height="5.67"/>
  <rect class="cls-91" x="17.01" y="11.34" width="5.67" height="5.67"/>
  <rect class="cls-75" x="22.68" y="11.34" width="5.67" height="11.34"/>
  <rect class="cls-49" x="28.35" y="11.34" width="5.67" height="5.67"/>
  <rect class="cls-39" x="34.02" y="11.34" width="5.67" height="5.67"/>
  <polygon class="cls-45" points="22.68 0 22.68 5.67 11.34 5.67 11.34 11.34 0 11.34 0 5.67 5.67 5.67 5.67 0 22.68 0"/>
  <rect class="cls-84" x="11.34" y="5.67" width="5.67" height="5.67"/>
  <rect class="cls-92" x="17.01" y="5.67" width="5.67" height="5.67"/>
  <rect class="cls-86" x="22.68" y="5.67" width="5.67" height="5.67"/>
  <rect class="cls-14" x="28.35" y="5.67" width="5.67" height="5.67"/>
  <polygon class="cls-86" points="124.73 5.67 124.73 11.34 119.06 11.34 119.06 17.01 39.69 17.01 39.69 11.34 34.02 11.34 34.02 5.67 124.73 5.67"/>
  <rect class="cls-90" x="22.68" width="5.67" height="5.67"/>
  <rect class="cls-45" x="28.35" width="102.05" height="5.67"/>
  <rect class="cls-75" x="198.43" y="62.37" width="11.34" height="5.67"/>
  <rect class="cls-42" x="192.76" y="56.7" width="5.67" height="5.67"/>
  <rect class="cls-91" x="198.43" y="56.7" width="5.67" height="5.67"/>
  <rect class="cls-9" x="204.1" y="56.7" width="5.67" height="5.67"/>
  <rect class="cls-75" x="226.77" y="56.7" width="11.34" height="5.67"/>
  <rect class="cls-84" x="192.76" y="51.03" width="5.67" height="5.67"/>
  <rect class="cls-44" x="198.43" y="51.03" width="5.67" height="5.67"/>
  <rect class="cls-68" x="204.1" y="51.03" width="5.67" height="5.67"/>
  <rect class="cls-75" x="209.77" y="51.03" width="5.67" height="11.34"/>
  <rect class="cls-10" x="221.11" y="51.03" width="5.67" height="5.67"/>
  <rect class="cls-41" x="226.77" y="51.03" width="5.67" height="5.67"/>
  <rect class="cls-74" x="232.44" y="51.03" width="5.67" height="5.67"/>
  <rect class="cls-75" x="102.05" y="45.36" width="5.67" height="11.34"/>
  <rect class="cls-75" x="175.75" y="45.36" width="11.34" height="5.67"/>
  <rect class="cls-84" x="198.43" y="45.36" width="5.67" height="5.67"/>
  <rect class="cls-69" x="204.1" y="45.36" width="5.67" height="5.67"/>
  <rect class="cls-84" x="221.11" y="45.36" width="5.67" height="5.67"/>
  <rect class="cls-85" x="226.77" y="45.36" width="5.67" height="5.67"/>
  <rect class="cls-47" x="232.44" y="45.36" width="5.67" height="5.67"/>
  <rect class="cls-75" x="238.11" y="45.36" width="5.67" height="11.34"/>
  <rect class="cls-75" x="119.06" y="39.69" width="11.34" height="5.67"/>
  <rect class="cls-98" x="170.08" y="39.69" width="5.67" height="5.67"/>
  <rect class="cls-91" x="175.75" y="39.69" width="5.67" height="5.67"/>
  <rect class="cls-8" x="181.42" y="39.69" width="5.67" height="5.67"/>
  <rect class="cls-22" x="209.77" y="39.69" width="11.34" height="5.67"/>
  <rect class="cls-84" x="226.77" y="39.69" width="5.67" height="5.67"/>
  <rect class="cls-21" x="232.44" y="39.69" width="5.67" height="5.67"/>
  <rect class="cls-75" x="255.12" y="39.69" width="11.34" height="5.67"/>
  <rect class="cls-32" x="113.39" y="34.02" width="5.67" height="5.67"/>
  <rect class="cls-19" x="119.06" y="34.02" width="5.67" height="5.67"/>
  <rect class="cls-73" x="124.73" y="34.02" width="5.67" height="5.67"/>
  <rect class="cls-84" x="170.08" y="34.02" width="5.67" height="5.67"/>
  <rect class="cls-97" x="175.75" y="34.02" width="5.67" height="5.67"/>
  <rect class="cls-94" x="181.42" y="34.02" width="5.67" height="5.67"/>
  <rect class="cls-75" x="187.09" y="34.02" width="5.67" height="11.34"/>
  <rect class="cls-22" x="204.1" y="34.02" width="5.67" height="5.67"/>
  <rect class="cls-22" x="221.11" y="34.02" width="5.66" height="5.67"/>
  <rect class="cls-59" x="249.45" y="34.02" width="5.67" height="5.67"/>
  <rect class="cls-16" x="255.12" y="34.02" width="5.67" height="5.67"/>
  <rect class="cls-102" x="260.79" y="34.02" width="5.67" height="5.67"/>
  <rect class="cls-50" x="102.05" y="28.35" width="11.34" height="5.67"/>
  <rect class="cls-84" x="113.39" y="28.35" width="5.67" height="5.67"/>
  <rect class="cls-2" x="119.06" y="28.35" width="5.67" height="5.67"/>
  <rect class="cls-99" x="124.73" y="28.35" width="5.67" height="5.67"/>
  <rect class="cls-75" x="130.4" y="28.35" width="5.67" height="11.34"/>
  <rect class="cls-50" x="136.07" y="28.35" width="17" height="5.67"/>
  <rect class="cls-75" x="153.07" y="28.35" width="11.34" height="5.67"/>
  <rect class="cls-50" x="164.41" y="28.35" width="11.34" height="5.67"/>
  <rect class="cls-84" x="175.75" y="28.35" width="5.67" height="5.67"/>
  <rect class="cls-24" x="181.42" y="28.35" width="5.67" height="5.67"/>
  <rect class="cls-50" x="187.09" y="28.35" width="5.67" height="5.67"/>
  <rect class="cls-72" x="192.76" y="28.35" width="11.34" height="5.67"/>
  <rect class="cls-50" x="204.1" y="28.35" width="22.67" height="5.67"/>
  <rect class="cls-72" x="226.77" y="28.35" width="11.34" height="5.67"/>
  <rect class="cls-50" x="238.11" y="28.35" width="11.34" height="5.67"/>
  <rect class="cls-84" x="249.45" y="28.35" width="5.67" height="5.67"/>
  <rect class="cls-6" x="255.12" y="28.35" width="5.67" height="5.67"/>
  <rect class="cls-12" x="260.79" y="28.35" width="5.67" height="5.67"/>
  <rect class="cls-75" x="266.46" y="28.35" width="5.67" height="11.34"/>
  <rect class="cls-26" x="102.05" y="22.68" width="5.67" height="5.67"/>
  <rect class="cls-34" x="107.72" y="22.68" width="11.34" height="5.67"/>
  <rect class="cls-84" x="119.06" y="22.68" width="5.67" height="5.67"/>
  <rect class="cls-95" x="124.73" y="22.68" width="5.67" height="5.67"/>
  <rect class="cls-34" x="130.4" y="22.68" width="17" height="5.67"/>
  <rect class="cls-56" x="147.4" y="22.68" width="5.67" height="5.67"/>
  <rect class="cls-94" x="153.07" y="22.68" width="5.67" height="5.67"/>
  <rect class="cls-65" x="158.74" y="22.68" width="5.67" height="5.67"/>
  <rect class="cls-34" x="170.08" y="22.68" width="17.01" height="5.67"/>
  <rect class="cls-26" x="187.09" y="22.68" width="5.67" height="5.67"/>
  <rect class="cls-34" x="192.76" y="22.68" width="45.35" height="5.67"/>
  <rect class="cls-26" x="238.11" y="22.68" width="5.67" height="5.67"/>
  <rect class="cls-34" x="243.78" y="22.68" width="11.34" height="5.67"/>
  <rect class="cls-84" x="255.12" y="22.68" width="5.67" height="5.67"/>
  <rect class="cls-64" x="260.79" y="22.68" width="5.67" height="5.67"/>
  <rect class="cls-34" x="266.46" y="22.68" width="17.01" height="5.67"/>
  <rect class="cls-80" x="107.72" y="17.01" width="5.67" height="5.67"/>
  <rect class="cls-80" x="113.39" y="17.01" width="5.67" height="5.67"/>
  <rect class="cls-78" x="119.06" y="17.01" width="28.34" height="5.67"/>
  <rect class="cls-84" x="147.4" y="17.01" width="5.67" height="5.67"/>
  <rect class="cls-42" x="153.07" y="17.01" width="5.67" height="5.67"/>
  <rect class="cls-91" x="158.74" y="17.01" width="5.67" height="5.67"/>
  <rect class="cls-75" x="164.41" y="17.01" width="5.67" height="11.34"/>
  <rect class="cls-78" x="170.08" y="17.01" width="5.67" height="5.67"/>
  <rect class="cls-80" x="175.75" y="17.01" width="11.34" height="5.67"/>
  <rect class="cls-78" x="187.09" y="17.01" width="56.69" height="5.67"/>
  <rect class="cls-80" x="243.78" y="17.01" width="11.34" height="5.67"/>
  <rect class="cls-78" x="255.12" y="17.01" width="22.68" height="5.67"/>
  <rect class="cls-39" x="119.06" y="11.34" width="5.67" height="5.67"/>
  <polygon class="cls-86" points="164.41 5.67 164.41 11.34 153.07 11.34 153.07 17.01 124.73 17.01 124.73 11.34 130.4 11.34 130.4 5.67 164.41 5.67"/>
  <rect class="cls-84" x="153.07" y="11.34" width="5.67" height="5.67"/>
  <rect class="cls-18" x="158.74" y="11.34" width="5.67" height="5.67"/>
  <rect class="cls-86" x="164.41" y="11.34" width="5.67" height="5.67"/>
  <rect class="cls-39" x="170.08" y="11.34" width="5.67" height="5.67"/>
  <rect class="cls-39" x="255.12" y="11.34" width="5.67" height="5.67"/>
  <polygon class="cls-86" points="283.47 5.67 283.47 11.34 277.8 11.34 277.8 17.01 260.79 17.01 260.79 11.34 266.46 11.34 266.46 5.67 283.47 5.67"/>
  <rect class="cls-14" x="124.73" y="5.67" width="5.67" height="5.67"/>
  <rect class="cls-14" x="164.41" y="5.67" width="5.67" height="5.67"/>
  <polygon class="cls-86" points="260.79 5.67 260.79 11.34 255.12 11.34 255.12 17.01 175.75 17.01 175.75 11.34 170.08 11.34 170.08 5.67 260.79 5.67"/>
  <rect class="cls-14" x="260.79" y="5.67" width="5.67" height="5.67"/>
  <rect class="cls-90" x="130.4" width="5.67" height="5.67"/>
  <rect class="cls-45" x="136.07" width="22.67" height="5.67"/>
  <rect class="cls-90" x="158.74" width="5.67" height="5.67"/>
  <rect class="cls-45" x="164.41" width="102.05" height="5.67"/>
  <rect class="cls-90" x="266.46" width="5.67" height="5.67"/>
  <rect class="cls-75" x="328.82" y="56.7" width="11.34" height="5.67"/>
  <rect class="cls-75" x="362.84" y="56.7" width="11.34" height="5.67"/>
  <rect class="cls-2" x="323.15" y="51.03" width="5.67" height="5.67"/>
  <rect class="cls-100" x="328.82" y="51.03" width="5.67" height="5.67"/>
  <rect class="cls-81" x="334.49" y="51.03" width="5.67" height="5.67"/>
  <rect class="cls-33" x="357.17" y="51.03" width="5.67" height="5.67"/>
  <rect class="cls-93" x="362.84" y="51.03" width="5.67" height="5.67"/>
  <rect class="cls-3" x="368.51" y="51.03" width="5.67" height="5.67"/>
  <rect class="cls-84" x="323.15" y="45.36" width="5.67" height="5.67"/>
  <rect class="cls-1" x="328.82" y="45.36" width="5.67" height="5.67"/>
  <rect class="cls-91" x="334.49" y="45.36" width="5.67" height="5.67"/>
  <rect class="cls-75" x="340.16" y="45.36" width="5.67" height="11.34"/>
  <rect class="cls-84" x="357.17" y="45.36" width="5.67" height="5.67"/>
  <rect class="cls-4" x="362.84" y="45.36" width="5.67" height="5.67"/>
  <rect class="cls-60" x="368.51" y="45.36" width="5.67" height="5.67"/>
  <rect class="cls-75" x="374.18" y="45.36" width="5.67" height="11.34"/>
  <rect class="cls-75" x="306.14" y="39.69" width="11.34" height="5.67"/>
  <rect class="cls-84" x="328.82" y="39.69" width="5.67" height="5.67"/>
  <rect class="cls-53" x="334.49" y="39.69" width="5.67" height="5.67"/>
  <rect class="cls-22" x="345.83" y="39.69" width="11.34" height="5.67"/>
  <rect class="cls-84" x="362.84" y="39.69" width="5.67" height="5.67"/>
  <rect class="cls-13" x="368.51" y="39.69" width="5.67" height="5.67"/>
  <rect class="cls-75" x="385.51" y="39.69" width="11.34" height="5.67"/>
  <rect class="cls-29" x="300.48" y="34.02" width="5.67" height="5.67"/>
  <rect class="cls-83" x="306.14" y="34.02" width="5.67" height="5.67"/>
  <rect class="cls-101" x="311.81" y="34.02" width="5.67" height="5.67"/>
  <rect class="cls-22" x="340.16" y="34.02" width="5.67" height="5.67"/>
  <rect class="cls-22" x="357.17" y="34.02" width="5.67" height="5.67"/>
  <rect class="cls-88" x="379.85" y="34.02" width="5.67" height="5.67"/>
  <rect class="cls-35" x="385.51" y="34.02" width="5.67" height="5.67"/>
  <rect class="cls-15" x="391.18" y="34.02" width="5.67" height="5.67"/>
  <rect class="cls-50" x="272.13" y="28.35" width="22.68" height="5.67"/>
  <rect class="cls-50" x="294.81" y="28.35" width="5.67" height="5.67"/>
  <rect class="cls-84" x="300.48" y="28.35" width="5.66" height="5.67"/>
  <rect class="cls-71" x="306.14" y="28.35" width="5.67" height="5.67"/>
  <rect class="cls-77" x="311.81" y="28.35" width="5.67" height="5.67"/>
  <rect class="cls-75" x="317.48" y="28.35" width="5.67" height="11.34"/>
  <rect class="cls-50" x="323.15" y="28.35" width="5.67" height="5.67"/>
  <rect class="cls-72" x="328.82" y="28.35" width="11.34" height="5.67"/>
  <rect class="cls-50" x="340.16" y="28.35" width="22.68" height="5.67"/>
  <rect class="cls-72" x="362.84" y="28.35" width="11.34" height="5.67"/>
  <rect class="cls-50" x="374.18" y="28.35" width="5.67" height="5.67"/>
  <rect class="cls-84" x="379.85" y="28.35" width="5.67" height="5.67"/>
  <rect class="cls-28" x="385.51" y="28.35" width="5.67" height="5.67"/>
  <rect class="cls-23" x="391.18" y="28.35" width="5.67" height="5.67"/>
  <rect class="cls-75" x="396.85" y="28.35" width="5.67" height="11.34"/>
  <rect class="cls-66" x="402.52" y="28.35" width="34.02" height="5.67"/>
  <rect class="cls-75" x="283.47" y="22.68" width="11.34" height="5.67"/>
  <rect class="cls-34" x="294.81" y="22.68" width="11.33" height="5.67"/>
  <rect class="cls-84" x="306.14" y="22.68" width="5.67" height="5.67"/>
  <rect class="cls-38" x="311.81" y="22.68" width="5.67" height="5.67"/>
  <rect class="cls-34" x="317.48" y="22.68" width="5.67" height="5.67"/>
  <rect class="cls-26" x="323.15" y="22.68" width="5.67" height="5.67"/>
  <rect class="cls-89" x="328.82" y="22.68" width="45.36" height="5.67"/>
  <rect class="cls-26" x="374.18" y="22.68" width="5.67" height="5.67"/>
  <rect class="cls-89" x="379.85" y="22.68" width="5.67" height="5.67"/>
  <rect class="cls-84" x="385.51" y="22.68" width="5.67" height="5.67"/>
  <rect class="cls-20" x="391.18" y="22.68" width="5.67" height="5.67"/>
  <rect class="cls-63" x="396.85" y="22.68" width="11.34" height="5.67"/>
  <rect class="cls-75" x="408.19" y="22.68" width="5.67" height="5.67"/>
  <rect class="cls-75" x="413.86" y="22.68" width="5.67" height="5.67"/>
  <rect class="cls-40" x="419.53" y="22.68" width="17.01" height="5.67"/>
  <rect class="cls-82" x="436.54" y="22.68" width="5.67" height="5.67"/>
  <rect class="cls-61" x="277.8" y="17.01" width="5.67" height="5.67"/>
  <rect class="cls-91" x="283.47" y="17.01" width="5.67" height="5.67"/>
  <rect class="cls-11" x="289.14" y="17.01" width="5.67" height="5.67"/>
  <rect class="cls-78" x="300.48" y="17.01" width="11.33" height="5.67"/>
  <rect class="cls-80" x="311.81" y="17.01" width="11.34" height="5.67"/>
  <rect class="cls-78" x="323.15" y="17.01" width="56.7" height="5.67"/>
  <rect class="cls-80" x="379.85" y="17.01" width="5.66" height="5.67"/>
  <rect class="cls-80" x="385.51" y="17.01" width="5.67" height="5.67"/>
  <rect class="cls-78" x="391.18" y="17.01" width="11.34" height="5.67"/>
  <rect class="cls-46" x="402.52" y="17.01" width="5.67" height="5.67"/>
  <rect class="cls-70" x="408.19" y="17.01" width="5.67" height="5.67"/>
  <rect class="cls-67" x="413.86" y="17.01" width="5.67" height="5.67"/>
  <rect class="cls-78" x="425.2" y="17.01" width="11.34" height="5.67"/>
  <rect class="cls-52" x="436.54" y="17.01" width="5.67" height="5.67"/>
  <rect class="cls-84" x="277.8" y="11.34" width="5.67" height="5.67"/>
  <rect class="cls-96" x="283.47" y="11.34" width="5.67" height="5.67"/>
  <rect class="cls-7" x="289.14" y="11.34" width="5.67" height="5.67"/>
  <rect class="cls-75" x="294.81" y="11.34" width="5.67" height="11.34"/>
  <rect class="cls-86" x="300.48" y="11.34" width="5.66" height="5.67"/>
  <rect class="cls-39" x="306.14" y="11.34" width="5.67" height="5.67"/>
  <rect class="cls-39" x="391.18" y="11.34" width="5.67" height="5.67"/>
  <rect class="cls-86" x="396.85" y="11.34" width="5.67" height="5.67"/>
  <rect class="cls-84" x="402.52" y="11.34" width="5.67" height="5.67"/>
  <rect class="cls-27" x="408.19" y="11.34" width="5.67" height="5.67"/>
  <rect class="cls-35" x="413.86" y="11.34" width="5.67" height="5.67"/>
  <rect class="cls-75" x="419.53" y="11.34" width="5.67" height="11.34"/>
  <rect class="cls-84" x="283.47" y="5.67" width="5.67" height="5.67"/>
  <rect class="cls-54" x="289.14" y="5.67" width="5.67" height="5.67"/>
  <rect class="cls-86" x="294.81" y="5.67" width="5.67" height="5.67"/>
  <rect class="cls-14" x="300.48" y="5.67" width="5.66" height="5.67"/>
  <polygon class="cls-86" points="396.85 5.67 396.85 11.34 391.18 11.34 391.18 17.01 311.81 17.01 311.81 11.34 306.14 11.34 306.14 5.67 396.85 5.67"/>
  <rect class="cls-14" x="396.85" y="5.67" width="5.67" height="5.67"/>
  <rect class="cls-86" x="402.52" y="5.67" width="5.67" height="5.67"/>
  <rect class="cls-84" x="408.19" y="5.67" width="5.67" height="5.67"/>
  <rect class="cls-60" x="413.86" y="5.67" width="5.67" height="5.67"/>
  <polygon class="cls-86" points="436.54 11.34 436.54 17.01 425.2 17.01 425.2 11.34 419.53 11.34 419.53 5.67 430.87 5.67 430.87 11.34 436.54 11.34"/>
  <rect class="cls-45" x="272.13" width="22.68" height="5.67"/>
  <rect class="cls-90" x="294.81" width="5.67" height="5.67"/>
  <rect class="cls-45" x="300.48" width="102.04" height="5.67"/>
  <rect class="cls-90" x="402.52" width="5.67" height="5.67"/>
  <polygon class="cls-45" points="442.21 5.67 442.21 17.01 436.54 17.01 436.54 11.34 430.87 11.34 430.87 5.67 408.19 5.67 408.19 0 436.54 0 436.54 5.67 442.21 5.67"/>
</svg>