<?xml version="1.0" encoding="UTF-8"?>
<svg id="Calque_1" data-name="Calque 1" xmlns="http://www.w3.org/2000/svg" viewBox="0 0 192.76 85.04">
  <defs>
    <style>
      .cls-1 {
        fill: #a93223;
      }

      .cls-2 {
        fill: #ce7133;
      }

      .cls-3 {
        fill: #532b1f;
      }

      .cls-4 {
        fill: #92241b;
      }

      .cls-5 {
        fill: #a02d28;
      }

      .cls-6 {
        fill: #d46e2f;
      }

      .cls-7 {
        fill: #9f3a20;
      }

      .cls-8 {
        fill: #a9483f;
      }

      .cls-9 {
        fill: #cfaf8a;
      }

      .cls-10 {
        fill: #a73620;
      }

      .cls-11 {
        fill: #e7cfa1;
      }

      .cls-12 {
        fill: #e6cc9d;
      }
    </style>
  </defs>
  <rect class="cls-3" x="11.34" y="79.37" width="11.34" height="5.67"/>
  <rect class="cls-3" x="5.67" y="73.7" width="5.67" height="5.67"/>
  <rect class="cls-7" x="11.34" y="73.7" width="5.67" height="5.67"/>
  <polygon class="cls-4" points="28.35 56.69 28.35 73.7 22.68 73.7 22.68 79.37 17.01 79.37 17.01 28.34 22.68 28.34 22.68 56.69 28.35 56.69"/>
  <rect class="cls-3" x="22.68" y="73.7" width="5.67" height="5.67"/>
  <rect class="cls-2" x="5.67" y="68.03" width="5.67" height="5.67"/>
  <rect class="cls-12" x="11.34" y="68.03" width="5.67" height="5.67"/>
  <rect class="cls-3" x="28.35" y="56.69" width="5.67" height="17.01"/>
  <rect class="cls-12" x="5.67" y="62.36" width="5.67" height="5.67"/>
  <rect class="cls-7" x="11.34" y="62.36" width="5.67" height="5.67"/>
  <rect class="cls-3" y="56.69" width="5.67" height="17.01"/>
  <rect class="cls-2" x="5.67" y="56.69" width="5.67" height="5.67"/>
  <rect class="cls-12" x="11.34" y="56.69" width="5.67" height="5.67"/>
  <rect class="cls-3" x="5.67" y="5.67" width="5.67" height="51.02"/>
  <rect class="cls-10" x="11.34" y="28.34" width="5.67" height="28.35"/>
  <polygon class="cls-3" points="28.35 45.35 187.09 45.35 187.09 51.02 28.35 51.02 28.35 56.69 22.68 56.69 22.68 5.67 28.35 5.67 28.35 22.68 187.09 22.68 187.09 28.34 28.35 28.34 28.35 45.35"/>
  <rect class="cls-5" x="28.35" y="39.68" width="113.38" height="5.67"/>
  <rect class="cls-1" x="28.35" y="34.01" width="113.38" height="5.67"/>
  <rect class="cls-6" x="28.35" y="28.34" width="113.38" height="5.67"/>
  <rect class="cls-8" x="141.73" y="28.34" width="45.36" height="17.01"/>
  <rect class="cls-11" x="11.34" y="5.67" width="5.67" height="22.67"/>
  <rect class="cls-9" x="17.01" y="5.67" width="5.67" height="22.67"/>
  <rect class="cls-3" x="11.34" width="11.34" height="5.67"/>
  <rect class="cls-3" x="187.09" y="28.34" width="5.67" height="17.01"/>
</svg>